{
.appVersion = "1352";
DisplayStrings = (
"abcdefghijklmnopqrstuv\012uvwxyz",
ABCDEFGHIJKLMNOPQRSTUVWXYZ,
"/Ccedilla.ss01",
"n¹/one.numr/three.numr/fraction/four.dnom/twoinferior ½¼¾",
"HH0H1HH2HH3H\012HH4HH5HH6HH\012HH7H8HH9HH/zero.lf \0120/Placeholder 0/space 1/Placeholder 1/space 2/Placeholder 2/space 3/Placeholder 3/space 4/Placeholder 4/space 5/Placeholder 5/space 6/Placeholder 6/space 7/Placeholder 7/space 8/Placeholder 8/space 9/Placeholder 9\012012347507647989/nbspace \012/one.lf/two.lf/three.lf/four.lf/five.lf/six.lf/seven.lf/eight.lf/nine.lf \012nn/Placeholder no/Placeholder oo\012/zero.osf/one.osf/two.osf/three.osf/four.osf/five.osf/six.osf/seven.osf/zero.osf/eight.osf/nine.osf/space \0120123456789\012H/zero.slash.ss01 H/zero.ss01 H/one.ss01 H/two.ss01 H/three.ss01 H/four.ss01 H/five.ss01 H/six.ss01 H/seven.ss01 H/eight.ss01 H/nine.ss01 H",

glyphs = (
{
glyphname = .notdef;
lastChange = "2021-12-06 09:15:28 +0000";
layers = (
{
layerId = "6544E2DB-1912-401E-9B5B-A29F161A5995";
paths = (
{
closed = 1;
nodes = (
"479 0 LINE",
"488 8 LINE",
"488 621 LINE",
"479 630 LINE",
"58 630 LINE",
"50 620 LINE",
"50 9 LINE",
"58 0 LINE"
);
},
{
closed = 1;
nodes = (
"154 150 LINE",
"244 316 LINE",
"154 479 LINE",
"173 514 LINE",
"263 350 LINE",
"354 514 LINE",
"373 479 LINE",
"283 314 LINE",
"373 150 LINE",
"354 116 LINE",
"263 279 LINE",
"173 116 LINE"
);
},
{
closed = 1;
nodes = (
"67 613 LINE",
"471 613 LINE",
"471 16 LINE",
"67 16 LINE"
);
},
{
closed = 1;
nodes = (
"437 49 LINE",
"437 577 LINE",
"102 577 LINE",
"102 49 LINE"
);
}
);
userData = {
assembly = "SVTCA[0]	/* SetFreedomAndProjectionVectorToAxis */\012PUSHW[ ]	/* 1 value pushed */\0122 \012MDAP[1]	/* MoveDirectAbsPt */\012PUSHW[ ]	/* 1 value pushed */\0120 \012RCVT[ ]	/* ReadCVT */\012IF[ ]	/* If */\012PUSHW[ ]	/* 1 value pushed */\0126 \012MDAP[1]	/* MoveDirectAbsPt */\012ELSE[ ]	/* Else */\012PUSHW[ ]	/* 2 values pushed */\0126 7 \012MIAP[0]	/* MoveIndirectAbsPt */\012EIF[ ]	/* EndIf */\012PUSHW[ ]	/* 3 values pushed */\01216 6 2 \012SRP1[ ]	/* SetRefPoint1 */\012SRP2[ ]	/* SetRefPoint2 */\012IP[ ]	/* InterpolatePts */\012PUSHW[ ]	/* 3 values pushed */\01217 6 2 \012SRP1[ ]	/* SetRefPoint1 */\012SRP2[ ]	/* SetRefPoint2 */\012IP[ ]	/* InterpolatePts */\012PUSHW[ ]	/* 3 values pushed */\01218 6 2 \012SRP1[ ]	/* SetRefPoint1 */\012SRP2[ ]	/* SetRefPoint2 */\012IP[ ]	/* InterpolatePts */\012PUSHW[ ]	/* 3 values pushed */\01222 6 2 \012SRP1[ ]	/* SetRefPoint1 */\012SRP2[ ]	/* SetRefPoint2 */\012IP[ ]	/* InterpolatePts */\012PUSHW[ ]	/* 3 values pushed */\01223 6 2 \012SRP1[ ]	/* SetRefPoint1 */\012SRP2[ ]	/* SetRefPoint2 */\012IP[ ]	/* InterpolatePts */\012PUSHW[ ]	/* 3 values pushed */\01224 6 2 \012SRP1[ ]	/* SetRefPoint1 */\012SRP2[ ]	/* SetRefPoint2 */\012IP[ ]	/* InterpolatePts */\012IUP[0]	/* InterpolateUntPts */\012IUP[1]	/* InterpolateUntPts */";
};
width = 538;
}
);
note = .notdef;
},
{
glyphname = A;
lastChange = "2021-12-07 19:39:21 +0000";
layers = (
{
anchors = (
{
name = bottom;
position = "{166, 0}";
},
{
name = ogonek;
position = "{361, 0}";
},
{
name = top;
position = "{250, 591}";
}
);
layerId = "6544E2DB-1912-401E-9B5B-A29F161A5995";
paths = (
{
closed = 1;
nodes = (
"376 0 LINE",
"379 591 LINE",
"129 591 LINE",
"-36 0 LINE"
);
},
{
closed = 1;
nodes = (
"199 184 LINE",
"203 233 LINE",
"203 237 OFFCURVE",
"205 271 OFFCURVE",
"207 291 CURVE",
"185 184 LINE"
);
},
{
closed = 1;
nodes = (
"141 573 LINE",
"361 573 LINE",
"358 18 LINE",
"184 18 LINE",
"187 96 LINE",
"172 96 LINE",
"155 18 LINE",
"-14 18 LINE"
);
},
{
closed = 1;
nodes = (
"148 27 LINE",
"164 105 LINE",
"196 105 LINE",
"192 27 LINE",
"348 27 LINE",
"352 564 LINE",
"147 564 LINE",
"-3 27 LINE"
);
},
{
closed = 1;
nodes = (
"230 450 LINE",
"206 175 LINE",
"175 175 LINE"
);
}
);
userData = {
assembly = "SVTCA[0]	/* SetFreedomAndProjectionVectorToAxis */\012PUSHW[ ]	/* 4 values pushed */\0129 4 2 4 \012CALL[ ]	/* CallFunction */\012PUSHW[ ]	/* 1 value pushed */\0129 \012SRP0[ ]	/* SetRefPoint0 */\012PUSHW[ ]	/* 2 values pushed */\0123 2 \012MIRP[10100]	/* MoveIndirectRelPt */\012PUSHW[ ]	/* 1 value pushed */\0122 \012SRP0[ ]	/* SetRefPoint0 */\012PUSHW[ ]	/* 1 value pushed */\0125 \012MDRP[10000]	/* MoveDirectRelPt */\012IUP[0]	/* InterpolateUntPts */\012IUP[1]	/* InterpolateUntPts */";
};
width = 415;
}
);
leftKerningGroup = A;
note = A;
rightKerningGroup = A;
unicode = 0041;
},
{
color = 8;
glyphname = Aogonek;
lastChange = "2021-12-06 09:27:29 +0000";
layers = (
{
anchors = (
{
name = bottom;
position = "{165, 0}";
},
{
name = ogonek;
position = "{343, 0}";
},
{
name = top;
position = "{248, 591}";
}
);
background = {
components = (
{
name = A;
transform = "{1, 0, 0, 1, 1, 0}";
},
{
name = ogonek;
transform = "{1, 0, 0, 1, 69, 0}";
}
);
};
layerId = "6544E2DB-1912-401E-9B5B-A29F161A5995";
paths = (
{
closed = 1;
nodes = (
"377 591 LINE",
"133 591 LINE",
"-36 0 LINE",
"137 0 LINE",
"156 86 LINE",
"193 86 LINE",
"188 0 LINE",
"271 0 LINE",
"222 -10 OFFCURVE",
"188 -49 OFFCURVE",
"183 -83 CURVE SMOOTH",
"178 -117 OFFCURVE",
"208 -151 OFFCURVE",
"266 -151 CURVE SMOOTH",
"316 -151 OFFCURVE",
"338 -137 OFFCURVE",
"346 -133 CURVE",
"334 -96 LINE",
"331 -96 OFFCURVE",
"325 -99 OFFCURVE",
"316 -99 CURVE SMOOTH",
"300 -99 OFFCURVE",
"281 -85 OFFCURVE",
"284 -61 CURVE SMOOTH",
"287 -39 OFFCURVE",
"306 -10 OFFCURVE",
"343 0 CURVE",
"376 0 LINE"
);
},
{
closed = 1;
nodes = (
"228 466 LINE",
"203 163 LINE",
"167 163 LINE"
);
}
);
width = 415;
}
);
leftKerningGroup = A;
leftMetricsKey = A;
rightKerningGroup = A;
rightMetricsKey = A;
unicode = 0104;
},
{
glyphname = AE;
lastChange = "2021-12-06 09:01:27 +0000";
layers = (
{
anchors = (
{
name = bottom;
position = "{233, 0}";
},
{
name = top;
position = "{347, 591}";
}
);
layerId = "6544E2DB-1912-401E-9B5B-A29F161A5995";
paths = (
{
closed = 1;
nodes = (
"480 0 LINE",
"501 153 LINE",
"386 153 LINE",
"387 218 LINE",
"501 218 LINE",
"525 386 LINE",
"388 386 LINE",
"388 397 OFFCURVE",
"388 406 OFFCURVE",
"388 413 CURVE SMOOTH",
"387 436 LINE",
"541 436 LINE",
"563 591 LINE",
"132 591 LINE",
"-36 0 LINE"
);
},
{
closed = 1;
nodes = (
"205 184 LINE",
"215 302 LINE",
"191 184 LINE"
);
},
{
closed = 1;
nodes = (
"231 428 LINE",
"236 450 LINE",
"234 428 LINE",
"213 175 LINE",
"181 175 LINE"
);
},
{
closed = 1;
nodes = (
"144 573 LINE",
"542 573 LINE",
"525 454 LINE",
"368 454 LINE",
"368 439 OFFCURVE",
"368 424 OFFCURVE",
"369 411 CURVE SMOOTH",
"370 398 OFFCURVE",
"370 383 OFFCURVE",
"369 368 CURVE",
"504 368 LINE",
"486 236 LINE",
"369 236 LINE",
"368 219 OFFCURVE",
"368 202 OFFCURVE",
"369 186 CURVE SMOOTH",
"370 170 OFFCURVE",
"369 153 OFFCURVE",
"368 134 CURVE",
"480 134 LINE",
"464 18 LINE",
"190 18 LINE",
"193 96 LINE",
"178 96 LINE",
"161 18 LINE",
"-13 18 LINE"
);
},
{
closed = 1;
nodes = (
"154 27 LINE",
"170 105 LINE",
"203 105 LINE",
"199 27 LINE",
"456 27 LINE",
"470 125 LINE",
"359 125 LINE",
"360 245 LINE",
"478 245 LINE",
"494 359 LINE",
"360 359 LINE",
"361 463 LINE",
"518 463 LINE",
"532 564 LINE",
"151 564 LINE",
"-1 27 LINE"
);
}
);
userData = {
assembly = "SVTCA[0]	/* SetFreedomAndProjectionVectorToAxis */\012PUSHW[ ]	/* 4 values pushed */\01227 3 14 4 \012CALL[ ]	/* CallFunction */\012PUSHW[ ]	/* 1 value pushed */\01214 \012SRP0[ ]	/* SetRefPoint0 */\012PUSHW[ ]	/* 1 value pushed */\0122 \012MDRP[10000]	/* MoveDirectRelPt */\012IUP[0]	/* InterpolateUntPts */\012IUP[1]	/* InterpolateUntPts */";
};
width = 524;
}
);
leftKerningGroup = AE;
note = AE;
rightKerningGroup = E;
unicode = 00C6;
},
{
glyphname = B;
lastChange = "2021-12-06 09:15:41 +0000";
layers = (
{
layerId = "6544E2DB-1912-401E-9B5B-A29F161A5995";
paths = (
{
closed = 1;
nodes = (
"191 0 LINE SMOOTH",
"288 0 OFFCURVE",
"350 34 OFFCURVE",
"365 141 CURVE SMOOTH",
"375 211 LINE SMOOTH",
"383 263 OFFCURVE",
"373 299 OFFCURVE",
"346 320 CURVE",
"370 343 OFFCURVE",
"384 377 OFFCURVE",
"391 414 CURVE SMOOTH",
"399 472 LINE SMOOTH",
"410 545 OFFCURVE",
"372 591 OFFCURVE",
"282 591 CURVE SMOOTH",
"57 591 LINE",
"-27 0 LINE"
);
},
{
closed = 1;
nodes = (
"177 253 LINE",
"190 253 LINE SMOOTH",
"198 253 OFFCURVE",
"202 246 OFFCURVE",
"201 231 CURVE SMOOTH",
"200 216 OFFCURVE",
"198 198 OFFCURVE",
"195 177 CURVE SMOOTH",
"192 156 OFFCURVE",
"188 138 OFFCURVE",
"184 123 CURVE SMOOTH",
"180 108 OFFCURVE",
"175 101 OFFCURVE",
"169 101 CURVE SMOOTH",
"156 101 LINE"
);
},
{
closed = 1;
nodes = (
"170 110 LINE SMOOTH",
"173 110 OFFCURVE",
"175 117 OFFCURVE",
"178 130 CURVE SMOOTH",
"181 143 OFFCURVE",
"183 158 OFFCURVE",
"186 177 CURVE SMOOTH",
"189 196 OFFCURVE",
"192 212 OFFCURVE",
"193 225 CURVE SMOOTH",
"194 238 OFFCURVE",
"192 244 OFFCURVE",
"189 244 CURVE SMOOTH",
"185 244 LINE",
"166 110 LINE"
);
},
{
closed = 1;
nodes = (
"71 573 LINE",
"279 573 LINE SMOOTH",
"362 573 OFFCURVE",
"389 532 OFFCURVE",
"381 472 CURVE SMOOTH",
"373 414 LINE SMOOTH",
"366 371 OFFCURVE",
"348 336 OFFCURVE",
"312 317 CURVE",
"348 305 OFFCURVE",
"366 271 OFFCURVE",
"357 211 CURVE SMOOTH",
"347 141 LINE SMOOTH",
"334 49 OFFCURVE",
"282 18 OFFCURVE",
"193 18 CURVE SMOOTH",
"-8 18 LINE"
);
},
{
closed = 1;
nodes = (
"194 27 LINE SMOOTH",
"274 27 OFFCURVE",
"327 54 OFFCURVE",
"339 141 CURVE SMOOTH",
"349 211 LINE SMOOTH",
"358 280 OFFCURVE",
"324 314 OFFCURVE",
"275 314 CURVE",
"275 316 LINE",
"331 323 OFFCURVE",
"358 363 OFFCURVE",
"365 414 CURVE SMOOTH",
"373 472 LINE SMOOTH",
"380 527 OFFCURVE",
"354 564 OFFCURVE",
"278 564 CURVE SMOOTH",
"78 564 LINE",
"2 27 LINE"
);
},
{
closed = 1;
nodes = (
"210 488 LINE",
"223 488 LINE SMOOTH",
"231 488 OFFCURVE",
"235 481 OFFCURVE",
"235 467 CURVE SMOOTH",
"234 453 OFFCURVE",
"232 436 OFFCURVE",
"229 415 CURVE SMOOTH",
"226 395 OFFCURVE",
"222 378 OFFCURVE",
"217 364 CURVE SMOOTH",
"212 350 OFFCURVE",
"207 343 OFFCURVE",
"201 343 CURVE SMOOTH",
"190 343 LINE"
);
},
{
closed = 1;
nodes = (
"202 352 LINE SMOOTH",
"205 352 OFFCURVE",
"209 358 OFFCURVE",
"212 371 CURVE SMOOTH",
"215 383 OFFCURVE",
"217 398 OFFCURVE",
"220 415 CURVE SMOOTH",
"223 432 OFFCURVE",
"225 447 OFFCURVE",
"226 460 CURVE SMOOTH",
"227 472 OFFCURVE",
"225 478 OFFCURVE",
"222 478 CURVE SMOOTH",
"218 478 LINE",
"200 352 LINE"
);
}
);
userData = {
assembly = "SVTCA[0]	/* SetFreedomAndProjectionVectorToAxis */\012PUSHW[ ]	/* 4 values pushed */\01219 2 16 4 \012CALL[ ]	/* CallFunction */\012PUSHW[ ]	/* 4 values pushed */\01227 1 25 4 \012CALL[ ]	/* CallFunction */\012PUSHW[ ]	/* 3 values pushed */\0129 25 27 \012SRP1[ ]	/* SetRefPoint1 */\012SRP2[ ]	/* SetRefPoint2 */\012IP[ ]	/* InterpolatePts */\012PUSHW[ ]	/* 3 values pushed */\01264 25 27 \012SRP1[ ]	/* SetRefPoint1 */\012SRP2[ ]	/* SetRefPoint2 */\012IP[ ]	/* InterpolatePts */\012IUP[0]	/* InterpolateUntPts */\012IUP[1]	/* InterpolateUntPts */";
};
width = 382;
}
);
leftKerningGroup = H;
leftMetricsKey = H;
note = B;
rightKerningGroup = B;
rightMetricsKey = "=O-5";
unicode = 0042;
},
{
glyphname = C;
lastChange = "2021-12-06 09:01:27 +0000";
layers = (
{
anchors = (
{
name = bottom;
position = "{163, 0}";
},
{
name = top;
position = "{237, 591}";
}
);
layerId = "6544E2DB-1912-401E-9B5B-A29F161A5995";
paths = (
{
closed = 1;
nodes = (
"274 -11 OFFCURVE",
"334 29 OFFCURVE",
"356 186 CURVE SMOOTH",
"369 280 LINE",
"206 280 LINE",
"208 298 LINE",
"371 298 LINE",
"393 451 LINE SMOOTH",
"409 560 OFFCURVE",
"348 601 OFFCURVE",
"239 601 CURVE SMOOTH",
"129 601 OFFCURVE",
"51 559 OFFCURVE",
"36 451 CURVE SMOOTH",
"-1 185 LINE SMOOTH",
"-23 29 OFFCURVE",
"31 -11 OFFCURVE",
"153 -11 CURVE SMOOTH"
);
},
{
closed = 1;
nodes = (
"43 7 OFFCURVE",
"-4 44 OFFCURVE",
"16 185 CURVE SMOOTH",
"53 451 LINE SMOOTH",
"66 547 OFFCURVE",
"136 583 OFFCURVE",
"236 583 CURVE SMOOTH",
"335 583 OFFCURVE",
"390 547 OFFCURVE",
"376 451 CURVE SMOOTH",
"357 316 LINE",
"204 316 LINE",
"224 458 LINE SMOOTH",
"225 465 OFFCURVE",
"226 470 OFFCURVE",
"225 473 CURVE SMOOTH",
"224 475 OFFCURVE",
"222 476 OFFCURVE",
"221 476 CURVE SMOOTH",
"219 476 OFFCURVE",
"218 475 OFFCURVE",
"217 473 CURVE SMOOTH",
"216 470 OFFCURVE",
"214 465 OFFCURVE",
"213 458 CURVE SMOOTH",
"166 127 LINE",
"165 115 OFFCURVE",
"167 109 OFFCURVE",
"170 109 CURVE SMOOTH",
"171 109 OFFCURVE",
"173 110 OFFCURVE",
"174 113 CURVE SMOOTH",
"175 116 OFFCURVE",
"176 120 OFFCURVE",
"177 127 CURVE SMOOTH",
"196 262 LINE",
"349 262 LINE",
"339 186 LINE SMOOTH",
"320 44 OFFCURVE",
"264 7 OFFCURVE",
"155 7 CURVE SMOOTH"
);
},
{
closed = 1;
nodes = (
"261 16 OFFCURVE",
"312 50 OFFCURVE",
"330 186 CURVE SMOOTH",
"339 253 LINE",
"203 253 LINE",
"185 127 LINE SMOOTH",
"184 117 OFFCURVE",
"182 110 OFFCURVE",
"179 106 CURVE SMOOTH",
"176 102 OFFCURVE",
"172 100 OFFCURVE",
"169 100 CURVE SMOOTH",
"164 100 OFFCURVE",
"161 102 OFFCURVE",
"159 106 CURVE SMOOTH",
"157 110 OFFCURVE",
"157 117 OFFCURVE",
"158 127 CURVE SMOOTH",
"205 458 LINE SMOOTH",
"207 469 OFFCURVE",
"209 476 OFFCURVE",
"212 480 CURVE SMOOTH",
"215 483 OFFCURVE",
"218 485 OFFCURVE",
"223 485 CURVE SMOOTH",
"226 485 OFFCURVE",
"229 483 OFFCURVE",
"231 480 CURVE SMOOTH",
"233 476 OFFCURVE",
"234 469 OFFCURVE",
"232 458 CURVE SMOOTH",
"213 325 LINE",
"349 325 LINE",
"367 451 LINE SMOOTH",
"380 540 OFFCURVE",
"328 574 OFFCURVE",
"235 574 CURVE SMOOTH",
"140 574 OFFCURVE",
"75 542 OFFCURVE",
"62 451 CURVE SMOOTH",
"25 185 LINE SMOOTH",
"6 51 OFFCURVE",
"52 16 OFFCURVE",
"157 16 CURVE SMOOTH"
);
}
);
width = 371;
}
);
leftKerningGroup = O;
leftMetricsKey = O;
note = C;
rightKerningGroup = C;
unicode = 0043;
},
{
color = 8;
glyphname = Ccedilla;
lastChange = "2021-12-06 09:27:36 +0000";
layers = (
{
anchors = (
{
name = bottom;
position = "{151, -253}";
},
{
name = top;
position = "{233, 591}";
}
);
background = {
components = (
{
name = C;
transform = "{1, 0, 0, 1, -13, 0}";
},
{
name = cedilla;
transform = "{1, 0, 0, 1, -13, 0}";
}
);
};
layerId = "6544E2DB-1912-401E-9B5B-A29F161A5995";
paths = (
{
closed = 1;
nodes = (
"130 600 OFFCURVE",
"52 564 OFFCURVE",
"38 465 CURVE SMOOTH",
"-3 173 LINE SMOOTH",
"-22 34 OFFCURVE",
"28 -3 OFFCURVE",
"114 -11 CURVE",
"82 -58 LINE",
"119 -80 LINE",
"122 -78 OFFCURVE",
"127 -74 OFFCURVE",
"135 -74 CURVE SMOOTH",
"145 -74 OFFCURVE",
"152 -79 OFFCURVE",
"150 -91 CURVE SMOOTH",
"148 -106 OFFCURVE",
"137 -115 OFFCURVE",
"120 -115 CURVE SMOOTH",
"104 -115 OFFCURVE",
"88 -107 OFFCURVE",
"81 -100 CURVE",
"55 -147 LINE",
"63 -153 OFFCURVE",
"89 -168 OFFCURVE",
"119 -168 CURVE SMOOTH",
"184 -168 OFFCURVE",
"228 -134 OFFCURVE",
"234 -94 CURVE SMOOTH",
"238 -64 OFFCURVE",
"221 -33 OFFCURVE",
"179 -33 CURVE SMOOTH",
"168 -33 OFFCURVE",
"159 -35 OFFCURVE",
"152 -37 CURVE",
"170 -12 LINE",
"269 -9 OFFCURVE",
"333 22 OFFCURVE",
"354 174 CURVE SMOOTH",
"365 248 LINE",
"206 248 LINE",
"186 110 LINE SMOOTH",
"183 87 OFFCURVE",
"175 80 OFFCURVE",
"166 80 CURVE SMOOTH",
"156 80 OFFCURVE",
"151 87 OFFCURVE",
"154 110 CURVE SMOOTH",
"205 473 LINE SMOOTH",
"208 496 OFFCURVE",
"215 503 OFFCURVE",
"225 503 CURVE SMOOTH",
"234 503 OFFCURVE",
"240 496 OFFCURVE",
"237 473 CURVE SMOOTH",
"217 327 LINE",
"376 327 LINE",
"395 465 LINE SMOOTH",
"409 564 OFFCURVE",
"348 600 OFFCURVE",
"239 600 CURVE SMOOTH"
);
}
);
width = 371;
}
);
leftKerningGroup = O;
leftMetricsKey = C;
rightKerningGroup = C;
rightMetricsKey = C;
unicode = 00C7;
},
{
glyphname = D;
lastChange = "2021-12-06 09:01:27 +0000";
layers = (
{
anchors = (
{
name = bottom;
position = "{136, 0}";
},
{
name = center;
position = "{75, 296}";
},
{
name = top;
position = "{238, 591}";
}
);
layerId = "6544E2DB-1912-401E-9B5B-A29F161A5995";
paths = (
{
closed = 1;
nodes = (
"178 0 LINE SMOOTH",
"274 0 OFFCURVE",
"335 34 OFFCURVE",
"350 141 CURVE SMOOTH",
"397 472 LINE SMOOTH",
"407 543 OFFCURVE",
"375 591 OFFCURVE",
"282 591 CURVE SMOOTH",
"57 591 LINE",
"-27 0 LINE"
);
},
{
closed = 1;
nodes = (
"72 573 LINE",
"279 573 LINE SMOOTH",
"360 573 OFFCURVE",
"389 532 OFFCURVE",
"380 472 CURVE SMOOTH",
"333 141 LINE SMOOTH",
"320 49 OFFCURVE",
"269 18 OFFCURVE",
"180 18 CURVE SMOOTH",
"-7 18 LINE"
);
},
{
closed = 1;
nodes = (
"181 27 LINE SMOOTH",
"261 27 OFFCURVE",
"313 54 OFFCURVE",
"325 141 CURVE SMOOTH",
"372 472 LINE SMOOTH",
"380 527 OFFCURVE",
"354 564 OFFCURVE",
"278 564 CURVE SMOOTH",
"79 564 LINE",
"3 27 LINE"
);
},
{
closed = 1;
nodes = (
"210 484 LINE",
"223 484 LINE SMOOTH",
"228 484 OFFCURVE",
"231 482 OFFCURVE",
"233 479 CURVE SMOOTH",
"235 475 OFFCURVE",
"236 468 OFFCURVE",
"234 457 CURVE SMOOTH",
"187 127 LINE SMOOTH",
"185 116 OFFCURVE",
"184 109 OFFCURVE",
"181 106 CURVE SMOOTH",
"178 102 OFFCURVE",
"174 100 OFFCURVE",
"169 100 CURVE SMOOTH",
"156 100 LINE"
);
},
{
closed = 1;
nodes = (
"170 109 LINE SMOOTH",
"171 109 OFFCURVE",
"173 110 OFFCURVE",
"174 113 CURVE SMOOTH",
"175 115 OFFCURVE",
"177 120 OFFCURVE",
"178 127 CURVE SMOOTH",
"225 457 LINE SMOOTH",
"227 469 OFFCURVE",
"226 475 OFFCURVE",
"221 475 CURVE SMOOTH",
"217 475 LINE",
"166 109 LINE"
);
}
);
userData = {
assembly = "SVTCA[0]	/* SetFreedomAndProjectionVectorToAxis */\012PUSHW[ ]	/* 4 values pushed */\01216 2 8 4 \012CALL[ ]	/* CallFunction */\012IUP[0]	/* InterpolateUntPts */\012IUP[1]	/* InterpolateUntPts */";
};
width = 372;
}
);
leftKerningGroup = H;
leftMetricsKey = H;
note = D;
rightKerningGroup = O;
rightMetricsKey = O;
unicode = 0044;
},
{
glyphname = Eth;
lastChange = "2021-12-06 09:01:27 +0000";
layers = (
{
layerId = "6544E2DB-1912-401E-9B5B-A29F161A5995";
paths = (
{
closed = 1;
nodes = (
"216 0 LINE SMOOTH",
"372 0 OFFCURVE",
"392 64 OFFCURVE",
"416 232 CURVE SMOOTH",
"437 380 LINE SMOOTH",
"461 543 OFFCURVE",
"461 591 OFFCURVE",
"306 591 CURVE SMOOTH",
"83 591 LINE",
"42 300 LINE",
"10 300 LINE",
"-11 163 LINE",
"22 163 LINE",
"-1 0 LINE"
);
},
{
closed = 1;
nodes = (
"42 182 LINE",
"11 182 LINE",
"25 282 LINE",
"56 282 LINE",
"97 573 LINE",
"303 573 LINE SMOOTH",
"444 573 OFFCURVE",
"441 527 OFFCURVE",
"420 380 CURVE SMOOTH",
"399 232 LINE SMOOTH",
"378 78 OFFCURVE",
"357 18 OFFCURVE",
"218 18 CURVE SMOOTH",
"19 18 LINE"
);
},
{
closed = 1;
nodes = (
"219 27 LINE SMOOTH",
"352 27 OFFCURVE",
"369 85 OFFCURVE",
"390 232 CURVE SMOOTH",
"411 380 LINE SMOOTH",
"430 522 OFFCURVE",
"434 564 OFFCURVE",
"302 564 CURVE SMOOTH",
"105 564 LINE",
"64 273 LINE",
"32 273 LINE",
"20 191 LINE",
"52 191 LINE",
"29 27 LINE"
);
},
{
closed = 1;
nodes = (
"199 191 LINE",
"216 191 LINE",
"228 273 LINE",
"211 273 LINE",
"241 488 LINE",
"261 488 LINE SMOOTH",
"274 488 OFFCURVE",
"282 482 OFFCURVE",
"279 461 CURVE SMOOTH",
"274 427 OFFCURVE",
"258 305 OFFCURVE",
"256 297 CURVE SMOOTH",
"233 129 LINE SMOOTH",
"230 106 OFFCURVE",
"220 101 OFFCURVE",
"207 101 CURVE SMOOTH",
"187 101 LINE"
);
},
{
closed = 1;
nodes = (
"208 110 LINE SMOOTH",
"216 110 OFFCURVE",
"221 114 OFFCURVE",
"224 129 CURVE SMOOTH",
"251 326 LINE SMOOTH",
"256 358 OFFCURVE",
"264 409 OFFCURVE",
"271 461 CURVE SMOOTH",
"274 476 OFFCURVE",
"268 479 OFFCURVE",
"260 479 CURVE SMOOTH",
"248 479 LINE",
"220 282 LINE",
"238 282 LINE",
"224 182 LINE",
"206 182 LINE",
"196 110 LINE"
);
}
);
userData = {
assembly = "SVTCA[0]	/* SetFreedomAndProjectionVectorToAxis */\012PUSHW[ ]	/* 4 values pushed */\01233 2 13 4 \012CALL[ ]	/* CallFunction */\012PUSHW[ ]	/* 4 values pushed */\0120 2 15 4 \012CALL[ ]	/* CallFunction */\012PUSHW[ ]	/* 1 value pushed */\0120 \012SRP0[ ]	/* SetRefPoint0 */\012PUSHW[ ]	/* 1 value pushed */\01228 \012MDRP[10000]	/* MoveDirectRelPt */\012PUSHW[ ]	/* 1 value pushed */\01215 \012SRP0[ ]	/* SetRefPoint0 */\012PUSHW[ ]	/* 1 value pushed */\01230 \012MDRP[10000]	/* MoveDirectRelPt */\012IUP[0]	/* InterpolateUntPts */\012IUP[1]	/* InterpolateUntPts */";
};
width = 429;
}
);
leftKerningGroup = H;
note = Eth;
rightKerningGroup = O;
unicode = 00D0;
},
{
glyphname = E;
lastChange = "2021-12-06 09:01:27 +0000";
layers = (
{
anchors = (
{
name = bottom;
position = "{115, 0}";
},
{
name = ogonek;
position = "{253, 0}";
},
{
name = top;
position = "{190, 591}";
},
{
name = topleft;
position = "{57, 591}";
}
);
layerId = "6544E2DB-1912-401E-9B5B-A29F161A5995";
paths = (
{
closed = 1;
nodes = (
"260 0 LINE",
"281 153 LINE",
"181 153 LINE",
"190 218 LINE",
"281 218 LINE",
"305 386 LINE",
"214 386 LINE",
"221 436 LINE",
"321 436 LINE",
"343 591 LINE",
"57 591 LINE",
"-27 0 LINE"
);
},
{
closed = 1;
nodes = (
"70 573 LINE",
"323 573 LINE",
"306 454 LINE",
"207 454 LINE",
"195 368 LINE",
"286 368 LINE",
"268 236 LINE",
"177 236 LINE",
"162 134 LINE",
"261 134 LINE",
"245 18 LINE",
"-9 18 LINE"
);
},
{
closed = 1;
nodes = (
"238 27 LINE",
"252 125 LINE",
"153 125 LINE",
"170 245 LINE",
"261 245 LINE",
"277 359 LINE",
"186 359 LINE",
"201 463 LINE",
"300 463 LINE",
"314 564 LINE",
"77 564 LINE",
"1 27 LINE"
);
}
);
userData = {
assembly = "PUSHW[ ]	/* 4 values pushed */\01229 6 7 4 \012CALL[ ]	/* CallFunction */\012PUSHW[ ]	/* 1 value pushed */\01229 \012SRP0[ ]	/* SetRefPoint0 */\012PUSHW[ ]	/* 1 value pushed */\0122 \012MDRP[10000]	/* MoveDirectRelPt */\012PUSHW[ ]	/* 1 value pushed */\0122 \012MDAP[1]	/* MoveDirectAbsPt */\012PUSHW[ ]	/* 1 value pushed */\0127 \012SRP0[ ]	/* SetRefPoint0 */\012PUSHW[ ]	/* 1 value pushed */\01216 \012MDRP[10000]	/* MoveDirectRelPt */\012PUSHW[ ]	/* 1 value pushed */\01216 \012MDAP[1]	/* MoveDirectAbsPt */\012PUSHW[ ]	/* 1 value pushed */\01229 \012SRP0[ ]	/* SetRefPoint0 */\012PUSHW[ ]	/* 1 value pushed */\01221 \012MDRP[10000]	/* MoveDirectRelPt */\012PUSHW[ ]	/* 1 value pushed */\01221 \012MDAP[1]	/* MoveDirectAbsPt */\012PUSHW[ ]	/* 1 value pushed */\01229 \012SRP0[ ]	/* SetRefPoint0 */\012PUSHW[ ]	/* 1 value pushed */\01237 \012MDRP[11100]	/* MoveDirectRelPt */\012SVTCA[0]	/* SetFreedomAndProjectionVectorToAxis */\012PUSHW[ ]	/* 4 values pushed */\0129 3 10 4 \012CALL[ ]	/* CallFunction */\012IUP[0]	/* InterpolateUntPts */\012IUP[1]	/* InterpolateUntPts */";
};
width = 301;
}
);
leftKerningGroup = H;
leftMetricsKey = H;
note = E;
rightKerningGroup = E;
unicode = 0045;
},
{
color = 8;
glyphname = Eogonek;
lastChange = "2021-12-06 09:27:43 +0000";
layers = (
{
anchors = (
{
name = bottom;
position = "{113, 0}";
},
{
name = ogonek;
position = "{246, 10}";
},
{
name = top;
position = "{197, 591}";
},
{
name = topleft;
position = "{51, 591}";
}
);
background = {
components = (
{
name = E;
transform = "{1, 0, 0, 1, -17, 0}";
},
{
name = ogonek;
transform = "{1, 0, 0, 1, -50, 0}";
}
);
};
layerId = "6544E2DB-1912-401E-9B5B-A29F161A5995";
paths = (
{
closed = 1;
nodes = (
"56 591 LINE",
"-27 0 LINE",
"180 0 LINE",
"131 -10 OFFCURVE",
"97 -49 OFFCURVE",
"92 -83 CURVE SMOOTH",
"87 -117 OFFCURVE",
"117 -151 OFFCURVE",
"175 -151 CURVE SMOOTH",
"225 -151 OFFCURVE",
"247 -137 OFFCURVE",
"255 -133 CURVE",
"243 -96 LINE",
"240 -96 OFFCURVE",
"234 -99 OFFCURVE",
"225 -99 CURVE SMOOTH",
"209 -99 OFFCURVE",
"190 -85 OFFCURVE",
"193 -61 CURVE SMOOTH",
"196 -39 OFFCURVE",
"215 -10 OFFCURVE",
"252 0 CURVE",
"259 0 LINE",
"280 153 LINE",
"180 153 LINE",
"189 218 LINE",
"280 218 LINE",
"304 386 LINE",
"213 386 LINE",
"220 436 LINE",
"320 436 LINE",
"342 591 LINE"
);
}
);
width = 314;
}
);
leftKerningGroup = H;
leftMetricsKey = E;
rightKerningGroup = E;
rightMetricsKey = E;
unicode = 0118;
},
{
glyphname = F;
lastChange = "2021-12-07 16:22:05 +0000";
layers = (
{
layerId = "6544E2DB-1912-401E-9B5B-A29F161A5995";
paths = (
{
closed = 1;
nodes = (
"160 0 LINE",
"190 218 LINE",
"281 218 LINE",
"305 386 LINE",
"214 386 LINE",
"221 436 LINE",
"321 436 LINE",
"343 591 LINE",
"57 591 LINE",
"-27 0 LINE"
);
},
{
closed = 1;
nodes = (
"70 573 LINE",
"323 573 LINE",
"306 454 LINE",
"207 454 LINE",
"195 368 LINE",
"286 368 LINE",
"268 236 LINE",
"177 236 LINE",
"146 18 LINE",
"-9 18 LINE"
);
},
{
closed = 1;
nodes = (
"139 27 LINE",
"170 245 LINE",
"261 245 LINE",
"277 359 LINE",
"186 359 LINE",
"201 463 LINE",
"300 463 LINE",
"314 564 LINE",
"77 564 LINE",
"1 27 LINE"
);
}
);
userData = {
assembly = "PUSHW[ ]	/* 4 values pushed */\01225 6 7 4 \012CALL[ ]	/* CallFunction */\012PUSHW[ ]	/* 1 value pushed */\01225 \012SRP0[ ]	/* SetRefPoint0 */\012PUSHW[ ]	/* 1 value pushed */\0122 \012MDRP[10000]	/* MoveDirectRelPt */\012PUSHW[ ]	/* 1 value pushed */\0122 \012MDAP[1]	/* MoveDirectAbsPt */\012PUSHW[ ]	/* 1 value pushed */\0127 \012SRP0[ ]	/* SetRefPoint0 */\012PUSHW[ ]	/* 1 value pushed */\01212 \012MDRP[10000]	/* MoveDirectRelPt */\012PUSHW[ ]	/* 1 value pushed */\01212 \012MDAP[1]	/* MoveDirectAbsPt */\012PUSHW[ ]	/* 1 value pushed */\01225 \012SRP0[ ]	/* SetRefPoint0 */\012PUSHW[ ]	/* 1 value pushed */\01217 \012MDRP[10000]	/* MoveDirectRelPt */\012PUSHW[ ]	/* 1 value pushed */\01217 \012MDAP[1]	/* MoveDirectAbsPt */\012PUSHW[ ]	/* 1 value pushed */\01225 \012SRP0[ ]	/* SetRefPoint0 */\012PUSHW[ ]	/* 1 value pushed */\01231 \012MDRP[11100]	/* MoveDirectRelPt */\012SVTCA[0]	/* SetFreedomAndProjectionVectorToAxis */\012PUSHW[ ]	/* 1 value pushed */\0128 \012MDAP[1]	/* MoveDirectAbsPt */\012IUP[0]	/* InterpolateUntPts */\012IUP[1]	/* InterpolateUntPts */";
};
width = 301;
}
);
leftKerningGroup = H;
leftMetricsKey = H;
note = F;
rightKerningGroup = F;
unicode = 0046;
},
{
glyphname = G;
lastChange = "2021-12-06 09:01:27 +0000";
layers = (
{
anchors = (
{
name = bottom;
position = "{150, 0}";
},
{
name = top;
position = "{233, 591}";
}
);
layerId = "6544E2DB-1912-401E-9B5B-A29F161A5995";
paths = (
{
closed = 1;
nodes = (
"137 -9 OFFCURVE",
"160 1 OFFCURVE",
"179 16 CURVE",
"180 0 LINE",
"329 0 LINE",
"376 338 LINE",
"207 338 LINE",
"207 339 LINE",
"376 339 LINE",
"392 449 LINE SMOOTH",
"408 556 OFFCURVE",
"340 599 OFFCURVE",
"232 599 CURVE SMOOTH",
"125 599 OFFCURVE",
"50 558 OFFCURVE",
"35 449 CURVE SMOOTH",
"-5 165 LINE SMOOTH",
"-24 33 OFFCURVE",
"26 -9 OFFCURVE",
"106 -9 CURVE SMOOTH"
);
},
{
closed = 1;
nodes = (
"175 109 OFFCURVE",
"179 115 OFFCURVE",
"180 127 CURVE",
"193 220 LINE",
"172 220 LINE",
"159 127 LINE",
"158 115 OFFCURVE",
"161 109 OFFCURVE",
"168 109 CURVE SMOOTH"
);
},
{
closed = 1;
nodes = (
"37 9 OFFCURVE",
"-4 48 OFFCURVE",
"12 165 CURVE SMOOTH",
"52 449 LINE SMOOTH",
"65 545 OFFCURVE",
"133 581 OFFCURVE",
"229 581 CURVE SMOOTH",
"325 581 OFFCURVE",
"388 544 OFFCURVE",
"375 449 CURVE SMOOTH",
"362 358 LINE",
"213 358 LINE",
"227 458 LINE SMOOTH",
"229 470 OFFCURVE",
"226 476 OFFCURVE",
"219 476 CURVE SMOOTH",
"212 476 OFFCURVE",
"208 470 OFFCURVE",
"206 458 CURVE SMOOTH",
"186 319 LINE",
"356 319 LINE",
"314 18 LINE",
"196 18 LINE",
"192 55 LINE",
"177 31 OFFCURVE",
"152 9 OFFCURVE",
"109 9 CURVE SMOOTH"
);
},
{
closed = 1;
nodes = (
"159 18 OFFCURVE",
"186 55 OFFCURVE",
"200 84 CURVE",
"204 27 LINE",
"306 27 LINE",
"346 310 LINE",
"193 310 LINE",
"182 229 LINE",
"204 229 LINE",
"189 127 LINE SMOOTH",
"186 106 OFFCURVE",
"178 100 OFFCURVE",
"167 100 CURVE SMOOTH",
"156 100 OFFCURVE",
"148 106 OFFCURVE",
"151 127 CURVE SMOOTH",
"198 458 LINE SMOOTH",
"201 479 OFFCURVE",
"210 485 OFFCURVE",
"221 485 CURVE SMOOTH",
"232 485 OFFCURVE",
"239 479 OFFCURVE",
"236 458 CURVE SMOOTH",
"223 367 LINE",
"354 367 LINE",
"366 449 LINE SMOOTH",
"377 538 OFFCURVE",
"321 572 OFFCURVE",
"228 572 CURVE SMOOTH",
"137 572 OFFCURVE",
"73 538 OFFCURVE",
"61 449 CURVE SMOOTH",
"21 165 LINE SMOOTH",
"5 56 OFFCURVE",
"42 18 OFFCURVE",
"110 18 CURVE SMOOTH"
);
}
);
userData = {
assembly = "PUSHW[ ]	/* 4 values pushed */\01275 6 48 4 \012CALL[ ]	/* CallFunction */\012PUSHW[ ]	/* 3 values pushed */\0123 48 75 \012SRP1[ ]	/* SetRefPoint1 */\012SRP2[ ]	/* SetRefPoint2 */\012IP[ ]	/* InterpolatePts */\012PUSHW[ ]	/* 3 values pushed */\01273 48 75 \012SRP1[ ]	/* SetRefPoint1 */\012SRP2[ ]	/* SetRefPoint2 */\012IP[ ]	/* InterpolatePts */\012PUSHW[ ]	/* 3 values pushed */\01279 48 75 \012SRP1[ ]	/* SetRefPoint1 */\012SRP2[ ]	/* SetRefPoint2 */\012IP[ ]	/* InterpolatePts */\012PUSHW[ ]	/* 1 value pushed */\01248 \012SRP0[ ]	/* SetRefPoint0 */\012PUSHW[ ]	/* 1 value pushed */\01283 \012MDRP[10000]	/* MoveDirectRelPt */\012PUSHW[ ]	/* 1 value pushed */\01283 \012MDAP[1]	/* MoveDirectAbsPt */\012PUSHW[ ]	/* 1 value pushed */\01275 \012SRP0[ ]	/* SetRefPoint0 */\012PUSHW[ ]	/* 1 value pushed */\012103 \012MDRP[11100]	/* MoveDirectRelPt */\012SVTCA[0]	/* SetFreedomAndProjectionVectorToAxis */\012PUSHW[ ]	/* 1 value pushed */\0121 \012MDAP[1]	/* MoveDirectAbsPt */\012PUSHW[ ]	/* 4 values pushed */\01235 2 8 4 \012CALL[ ]	/* CallFunction */\012PUSHW[ ]	/* 3 values pushed */\0123 8 35 \012SRP1[ ]	/* SetRefPoint1 */\012SRP2[ ]	/* SetRefPoint2 */\012IP[ ]	/* InterpolatePts */\012PUSHW[ ]	/* 3 values pushed */\01273 8 35 \012SRP1[ ]	/* SetRefPoint1 */\012SRP2[ ]	/* SetRefPoint2 */\012IP[ ]	/* InterpolatePts */\012PUSHW[ ]	/* 1 value pushed */\0128 \012SRP0[ ]	/* SetRefPoint0 */\012PUSHW[ ]	/* 1 value pushed */\01274 \012MDRP[10000]	/* MoveDirectRelPt */\012IUP[0]	/* InterpolateUntPts */\012IUP[1]	/* InterpolateUntPts */";
};
width = 370;
}
);
leftKerningGroup = O;
leftMetricsKey = O;
note = G;
rightKerningGroup = G;
unicode = 0047;
},
{
glyphname = H;
lastChange = "2021-12-06 09:01:27 +0000";
layers = (
{
anchors = (
{
name = bottom;
position = "{151, 0}";
},
{
name = center;
position = "{193, 296}";
},
{
name = top;
position = "{234, 591}";
},
{
name = topleft;
position = "{52, 591}";
}
);
layerId = "6544E2DB-1912-401E-9B5B-A29F161A5995";
paths = (
{
closed = 1;
nodes = (
"328 0 LINE",
"411 591 LINE",
"57 591 LINE",
"-27 0 LINE"
);
},
{
closed = 1;
nodes = (
"71 573 LINE",
"225 573 LINE",
"196 365 LINE",
"209 365 LINE",
"238 573 LINE",
"391 573 LINE",
"313 18 LINE",
"160 18 LINE",
"191 241 LINE",
"178 241 LINE",
"147 18 LINE",
"-8 18 LINE"
);
},
{
closed = 1;
nodes = (
"139 27 LINE",
"171 250 LINE",
"202 250 LINE",
"170 27 LINE",
"306 27 LINE",
"382 564 LINE",
"246 564 LINE",
"217 356 LINE",
"186 356 LINE",
"215 564 LINE",
"79 564 LINE",
"3 27 LINE"
);
}
);
userData = {
assembly = "PUSHW[ ]	/* 1 value pushed */\01228 \012MDAP[1]	/* MoveDirectAbsPt */\012PUSHW[ ]	/* 1 value pushed */\01223 \012MDAP[1]	/* MoveDirectAbsPt */\012PUSHW[ ]	/* 1 value pushed */\0120 \012MDRP[10000]	/* MoveDirectRelPt */\012PUSHW[ ]	/* 1 value pushed */\0120 \012MDAP[1]	/* MoveDirectAbsPt */\012PUSHW[ ]	/* 1 value pushed */\01228 \012SRP0[ ]	/* SetRefPoint0 */\012PUSHW[ ]	/* 1 value pushed */\0122 \012MDRP[10000]	/* MoveDirectRelPt */\012PUSHW[ ]	/* 1 value pushed */\0122 \012MDAP[1]	/* MoveDirectAbsPt */\012PUSHW[ ]	/* 2 values pushed */\0121 6 \012MIRP[10100]	/* MoveIndirectRelPt */\012PUSHW[ ]	/* 1 value pushed */\01223 \012SRP0[ ]	/* SetRefPoint0 */\012PUSHW[ ]	/* 2 values pushed */\01214 6 \012MIRP[10100]	/* MoveIndirectRelPt */\012PUSHW[ ]	/* 1 value pushed */\0129 \012MDRP[10000]	/* MoveDirectRelPt */\012PUSHW[ ]	/* 1 value pushed */\0129 \012MDAP[1]	/* MoveDirectAbsPt */\012PUSHW[ ]	/* 1 value pushed */\01214 \012SRP0[ ]	/* SetRefPoint0 */\012PUSHW[ ]	/* 1 value pushed */\01229 \012MDRP[11100]	/* MoveDirectRelPt */\012SVTCA[0]	/* SetFreedomAndProjectionVectorToAxis */\012PUSHW[ ]	/* 1 value pushed */\0121 \012MDAP[1]	/* MoveDirectAbsPt */\012PUSHW[ ]	/* 1 value pushed */\0129 \012MDAP[1]	/* MoveDirectAbsPt */\012PUSHW[ ]	/* 4 values pushed */\0125 3 0 4 \012CALL[ ]	/* CallFunction */\012IUP[0]	/* InterpolateUntPts */\012IUP[1]	/* InterpolateUntPts */";
};
width = 372;
}
);
leftKerningGroup = H;
note = H;
rightKerningGroup = H;
unicode = 0048;
},
{
color = 8;
glyphname = Hbar;
lastChange = "2021-12-03 08:01:35 +0000";
layers = (
{
background = {
components = (
{
name = H;
},
{
name = hyphen;
transform = "{1.91197, 0, -0.09727, 0.69208, -4, 300}";
}
);
};
layerId = "6544E2DB-1912-401E-9B5B-A29F161A5995";
paths = (
{
closed = 1;
nodes = (
"428 591 LINE",
"269 591 LINE",
"258 517 LINE",
"222 517 LINE",
"233 591 LINE",
"74 591 LINE",
"63 517 LINE",
"32 517 LINE",
"22 445 LINE",
"53 445 LINE",
"-10 0 LINE",
"149 0 LINE",
"184 245 LINE",
"220 245 LINE",
"185 0 LINE",
"344 0 LINE",
"407 445 LINE",
"436 445 LINE",
"446 517 LINE",
"417 517 LINE"
);
},
{
closed = 1;
nodes = (
"212 445 LINE",
"248 445 LINE",
"236 362 LINE",
"200 362 LINE"
);
}
);
width = 404;
}
);
leftKerningGroup = H;
rightKerningGroup = H;
unicode = 0126;
},
{
glyphname = I;
lastChange = "2021-12-06 09:01:27 +0000";
layers = (
{
anchors = (
{
name = bottom;
position = "{54, 0}";
},
{
name = ogonek;
position = "{139, 10}";
},
{
name = top;
position = "{137, 591}";
},
{
name = topleft;
position = "{52, 591}";
}
);
layerId = "6544E2DB-1912-401E-9B5B-A29F161A5995";
paths = (
{
closed = 1;
nodes = (
"133 0 LINE",
"216 591 LINE",
"57 591 LINE",
"-27 0 LINE"
);
},
{
closed = 1;
nodes = (
"68 573 LINE",
"198 573 LINE",
"120 18 LINE",
"-11 18 LINE"
);
},
{
closed = 1;
nodes = (
"114 27 LINE",
"190 564 LINE",
"75 564 LINE",
"-1 27 LINE"
);
}
);
userData = {
assembly = "SVTCA[0]	/* SetFreedomAndProjectionVectorToAxis */\012PUSHW[ ]	/* 1 value pushed */\0120 \012MDAP[1]	/* MoveDirectAbsPt */\012IUP[0]	/* InterpolateUntPts */\012IUP[1]	/* InterpolateUntPts */";
};
width = 177;
}
);
leftKerningGroup = H;
leftMetricsKey = H;
note = I;
rightKerningGroup = H;
rightMetricsKey = H;
unicode = 0049;
},
{
color = 8;
glyphname = Iogonek;
lastChange = "2021-12-06 09:28:30 +0000";
layers = (
{
anchors = (
{
name = bottom;
position = "{63, 0}";
},
{
name = ogonek;
position = "{122, 0}";
},
{
name = top;
position = "{146, 591}";
},
{
name = topleft;
position = "{61, 591}";
}
);
background = {
components = (
{
name = I;
transform = "{1, 0, 0, 1, -7, 0}";
},
{
name = ogonek;
transform = "{1, 0, 0, 1, -184, 0}";
}
);
};
layerId = "6544E2DB-1912-401E-9B5B-A29F161A5995";
paths = (
{
closed = 1;
nodes = (
"226 591 LINE",
"67 591 LINE",
"-17 0 LINE",
"50 0 LINE",
"1 -10 OFFCURVE",
"-33 -49 OFFCURVE",
"-38 -83 CURVE SMOOTH",
"-43 -117 OFFCURVE",
"-13 -151 OFFCURVE",
"45 -151 CURVE SMOOTH",
"95 -151 OFFCURVE",
"117 -137 OFFCURVE",
"125 -133 CURVE",
"113 -96 LINE",
"110 -96 OFFCURVE",
"104 -99 OFFCURVE",
"95 -99 CURVE SMOOTH",
"79 -99 OFFCURVE",
"60 -85 OFFCURVE",
"63 -61 CURVE SMOOTH",
"66 -39 OFFCURVE",
"85 -10 OFFCURVE",
"122 0 CURVE",
"142 0 LINE"
);
}
);
width = 187;
}
);
leftMetricsKey = I;
rightMetricsKey = I;
unicode = 012E;
},
{
glyphname = J;
lastChange = "2021-12-06 09:15:41 +0000";
layers = (
{
layerId = "6544E2DB-1912-401E-9B5B-A29F161A5995";
paths = (
{
closed = 1;
nodes = (
"154 -1 OFFCURVE",
"202 40 OFFCURVE",
"223 172 CURVE SMOOTH",
"282 591 LINE",
"108 591 LINE",
"48 169 LINE SMOOTH",
"45 154 OFFCURVE",
"44 153 OFFCURVE",
"33 153 CURVE SMOOTH",
"-14 153 LINE",
"-35 3 LINE",
"-4 -1 OFFCURVE",
"22 -1 OFFCURVE",
"31 -1 CURVE SMOOTH"
);
},
{
closed = 1;
nodes = (
"11 17 LINE SMOOTH",
"0 17 OFFCURVE",
"-9 18 OFFCURVE",
"-17 19 CURVE",
"-1 134 LINE",
"30 134 LINE SMOOTH",
"54 134 OFFCURVE",
"60 141 OFFCURVE",
"64 169 CURVE SMOOTH",
"121 573 LINE",
"263 573 LINE",
"207 172 LINE SMOOTH",
"192 54 OFFCURVE",
"143 17 OFFCURVE",
"34 17 CURVE SMOOTH"
);
},
{
closed = 1;
nodes = (
"140 26 OFFCURVE",
"183 60 OFFCURVE",
"199 172 CURVE SMOOTH",
"254 564 LINE",
"128 564 LINE",
"72 169 LINE SMOOTH",
"67 133 OFFCURVE",
"60 125 OFFCURVE",
"29 125 CURVE SMOOTH",
"6 125 LINE",
"-8 27 LINE",
"-4 26 OFFCURVE",
"3 26 OFFCURVE",
"13 26 CURVE SMOOTH",
"35 26 LINE SMOOTH"
);
}
);
width = 246;
}
);
leftKerningGroup = J;
note = J;
rightKerningGroup = J;
rightMetricsKey = "=O+5";
unicode = 004A;
},
{
glyphname = K;
lastChange = "2021-12-06 09:01:27 +0000";
layers = (
{
anchors = (
{
name = bottom;
position = "{166, 0}";
},
{
name = top;
position = "{249, 591}";
}
);
layerId = "6544E2DB-1912-401E-9B5B-A29F161A5995";
paths = (
{
closed = 1;
nodes = (
"164 0 LINE",
"166 17 LINE",
"167 0 LINE",
"377 0 LINE",
"323 306 LINE",
"459 591 LINE",
"57 591 LINE",
"-27 0 LINE"
);
},
{
closed = 1;
nodes = (
"71 573 LINE",
"226 573 LINE",
"207 436 LINE",
"254 573 LINE",
"432 573 LINE",
"305 306 LINE",
"320 213 OFFCURVE",
"338 110 OFFCURVE",
"355 18 CURVE",
"183 18 LINE",
"171 182 LINE",
"148 18 LINE",
"-8 18 LINE"
);
},
{
closed = 1;
nodes = (
"141 27 LINE",
"175 269 LINE",
"191 27 LINE",
"345 27 LINE",
"296 306 LINE",
"419 564 LINE",
"260 564 LINE",
"186 345 LINE",
"217 564 LINE",
"79 564 LINE",
"3 27 LINE"
);
}
);
userData = {
assembly = "SVTCA[0]	/* SetFreedomAndProjectionVectorToAxis */\012PUSHW[ ]	/* 1 value pushed */\0124 \012MDAP[1]	/* MoveDirectAbsPt */\012PUSHW[ ]	/* 1 value pushed */\0127 \012MDAP[1]	/* MoveDirectAbsPt */\012IUP[0]	/* InterpolateUntPts */\012IUP[1]	/* InterpolateUntPts */";
};
width = 414;
}
);
leftKerningGroup = H;
leftMetricsKey = H;
note = K;
rightKerningGroup = K;
unicode = 004B;
},
{
glyphname = L;
lastChange = "2021-12-06 09:01:27 +0000";
layers = (
{
anchors = (
{
name = bottom;
position = "{99, 0}";
},
{
name = center;
position = "{141, 296}";
},
{
name = top;
position = "{193, 591}";
},
{
name = topright;
position = "{261, 441}";
}
);
layerId = "6544E2DB-1912-401E-9B5B-A29F161A5995";
paths = (
{
closed = 1;
nodes = (
"240 0 LINE",
"261 153 LINE",
"172 153 LINE",
"234 591 LINE",
"57 591 LINE",
"-27 0 LINE"
);
},
{
closed = 1;
nodes = (
"71 573 LINE",
"215 573 LINE",
"153 134 LINE",
"242 134 LINE",
"226 18 LINE",
"-8 18 LINE"
);
},
{
closed = 1;
nodes = (
"219 27 LINE",
"233 125 LINE",
"144 125 LINE",
"206 564 LINE",
"78 564 LINE",
"2 27 LINE"
);
}
);
userData = {
assembly = "SVTCA[0]	/* SetFreedomAndProjectionVectorToAxis */\012PUSHW[ ]	/* 4 values pushed */\0123 3 4 4 \012CALL[ ]	/* CallFunction */\012IUP[0]	/* InterpolateUntPts */\012IUP[1]	/* InterpolateUntPts */";
};
width = 278;
}
);
leftKerningGroup = H;
leftMetricsKey = H;
note = L;
rightKerningGroup = L;
unicode = 004C;
},
{
glyphname = Lslash;
lastChange = "2021-12-06 09:01:27 +0000";
layers = (
{
layerId = "6544E2DB-1912-401E-9B5B-A29F161A5995";
paths = (
{
closed = 1;
nodes = (
"282 199 LINE",
"297 308 LINE",
"236 296 LINE",
"279 591 LINE",
"102 591 LINE",
"56 263 LINE",
"4 254 LINE",
"-12 144 LINE",
"41 153 LINE",
"19 0 LINE",
"285 0 LINE",
"306 153 LINE",
"217 153 LINE",
"222 187 LINE"
);
},
{
closed = 1;
nodes = (
"60 171 LINE",
"5 160 LINE",
"17 241 LINE",
"54 248 LINE",
"71 251 LINE",
"116 573 LINE",
"260 573 LINE",
"218 279 LINE",
"234 282 LINE",
"278 291 LINE",
"267 210 LINE",
"224 201 LINE",
"208 198 LINE",
"198 134 LINE",
"287 134 LINE",
"271 18 LINE",
"38 18 LINE"
);
},
{
closed = 1;
nodes = (
"123 564 LINE",
"47 27 LINE",
"264 27 LINE",
"278 125 LINE",
"189 125 LINE",
"251 564 LINE"
);
},
{
closed = 1;
nodes = (
"269 281 LINE",
"218 270 LINE",
"209 205 LINE",
"259 216 LINE"
);
},
{
closed = 1;
nodes = (
"15 170 LINE",
"60 178 LINE",
"70 243 LINE",
"25 235 LINE"
);
}
);
width = 329;
}
);
leftKerningGroup = H;
note = Lslash;
rightKerningGroup = L;
unicode = 0141;
},
{
glyphname = M;
lastChange = "2021-12-06 09:01:27 +0000";
layers = (
{
layerId = "6544E2DB-1912-401E-9B5B-A29F161A5995";
paths = (
{
closed = 1;
nodes = (
"464 0 LINE",
"547 591 LINE",
"317 591 LINE",
"286 483 LINE",
"287 591 LINE",
"57 591 LINE",
"-27 0 LINE"
);
},
{
closed = 1;
nodes = (
"72 573 LINE",
"269 573 LINE",
"269 357 LINE",
"330 573 LINE",
"526 573 LINE",
"448 18 LINE",
"307 18 LINE",
"340 255 LINE",
"277 18 LINE",
"166 18 LINE",
"169 255 LINE",
"136 18 LINE",
"-7 18 LINE"
);
},
{
closed = 1;
nodes = (
"128 27 LINE",
"181 401 LINE",
"175 27 LINE",
"269 27 LINE",
"370 401 LINE",
"317 27 LINE",
"441 27 LINE",
"517 564 LINE",
"337 564 LINE",
"259 290 LINE",
"260 564 LINE",
"80 564 LINE",
"4 27 LINE"
);
}
);
userData = {
assembly = "SVTCA[0]	/* SetFreedomAndProjectionVectorToAxis */\012PUSHW[ ]	/* 1 value pushed */\0121 \012MDAP[1]	/* MoveDirectAbsPt */\012PUSHW[ ]	/* 1 value pushed */\0128 \012MDAP[1]	/* MoveDirectAbsPt */\012PUSHW[ ]	/* 1 value pushed */\01211 \012MDAP[1]	/* MoveDirectAbsPt */\012IUP[0]	/* InterpolateUntPts */\012IUP[1]	/* InterpolateUntPts */";
};
width = 508;
}
);
leftKerningGroup = H;
leftMetricsKey = H;
note = M;
rightKerningGroup = H;
rightMetricsKey = H;
unicode = 004D;
},
{
glyphname = N;
lastChange = "2021-12-06 09:01:27 +0000";
layers = (
{
anchors = (
{
name = bottom;
position = "{149, 0}";
},
{
name = top;
position = "{232, 591}";
}
);
layerId = "6544E2DB-1912-401E-9B5B-A29F161A5995";
paths = (
{
closed = 1;
nodes = (
"144 0 LINE",
"152 63 LINE",
"161 0 LINE",
"323 0 LINE",
"406 591 LINE",
"237 591 LINE",
"228 527 LINE",
"220 591 LINE",
"57 591 LINE",
"-27 0 LINE"
);
},
{
closed = 1;
nodes = (
"71 573 LINE",
"205 573 LINE",
"224 384 LINE",
"251 573 LINE",
"386 573 LINE",
"308 18 LINE",
"176 18 LINE",
"152 184 LINE",
"129 18 LINE",
"-8 18 LINE"
);
},
{
closed = 1;
nodes = (
"122 27 LINE",
"154 250 LINE",
"184 27 LINE",
"301 27 LINE",
"377 564 LINE",
"258 564 LINE",
"223 314 LINE",
"197 564 LINE",
"79 564 LINE",
"3 27 LINE"
);
}
);
userData = {
assembly = "SVTCA[0]	/* SetFreedomAndProjectionVectorToAxis */\012PUSHW[ ]	/* 1 value pushed */\0121 \012MDAP[1]	/* MoveDirectAbsPt */\012PUSHW[ ]	/* 1 value pushed */\0128 \012MDAP[1]	/* MoveDirectAbsPt */\012IUP[0]	/* InterpolateUntPts */\012IUP[1]	/* InterpolateUntPts */";
};
width = 367;
}
);
leftKerningGroup = H;
leftMetricsKey = H;
note = N;
rightKerningGroup = H;
rightMetricsKey = H;
unicode = 004E;
},
{
glyphname = Eng;
lastChange = "2021-12-06 09:01:27 +0000";
layers = (
{
layerId = "6544E2DB-1912-401E-9B5B-A29F161A5995";
paths = (
{
closed = 1;
nodes = (
"240 -233 OFFCURVE",
"294 -193 OFFCURVE",
"315 -56 CURVE SMOOTH",
"408 608 LINE",
"239 608 LINE",
"230 542 LINE",
"222 608 LINE",
"59 608 LINE",
"-27 0 LINE",
"136 0 LINE",
"127 -59 LINE SMOOTH",
"124 -74 OFFCURVE",
"123 -76 OFFCURVE",
"112 -76 CURVE SMOOTH",
"61 -76 LINE",
"39 -230 LINE",
"74 -233 OFFCURVE",
"102 -233 OFFCURVE",
"111 -233 CURVE SMOOTH"
);
},
{
closed = 1;
nodes = (
"89 -215 LINE SMOOTH",
"78 -215 OFFCURVE",
"68 -214 OFFCURVE",
"60 -213 CURVE",
"76 -94 LINE",
"109 -94 LINE SMOOTH",
"134 -94 OFFCURVE",
"141 -88 OFFCURVE",
"145 -59 CURVE SMOOTH",
"167 94 LINE",
"153 190 LINE",
"129 19 LINE",
"-8 19 LINE",
"73 589 LINE",
"207 589 LINE",
"226 395 LINE",
"253 589 LINE",
"388 589 LINE",
"298 -56 LINE SMOOTH",
"280 -177 OFFCURVE",
"230 -215 OFFCURVE",
"113 -215 CURVE SMOOTH"
);
},
{
closed = 1;
nodes = (
"226 -205 OFFCURVE",
"274 -172 OFFCURVE",
"290 -56 CURVE SMOOTH",
"379 580 LINE",
"260 580 LINE",
"224 323 LINE",
"199 580 LINE",
"81 580 LINE",
"3 28 LINE",
"122 28 LINE",
"155 257 LINE",
"175 97 LINE",
"153 -59 LINE SMOOTH",
"148 -95 OFFCURVE",
"140 -104 OFFCURVE",
"108 -104 CURVE SMOOTH",
"83 -104 LINE",
"69 -204 LINE",
"74 -205 OFFCURVE",
"81 -205 OFFCURVE",
"92 -205 CURVE SMOOTH",
"115 -205 LINE SMOOTH"
);
}
);
userData = {
assembly = "PUSHW[ ]	/* 4 values pushed */\01250 6 8 4 \012CALL[ ]	/* CallFunction */\012PUSHW[ ]	/* 4 values pushed */\01214 6 40 4 \012CALL[ ]	/* CallFunction */\012PUSHW[ ]	/* 3 values pushed */\0126 8 14 \012SRP1[ ]	/* SetRefPoint1 */\012SRP2[ ]	/* SetRefPoint2 */\012IP[ ]	/* InterpolatePts */\012PUSHW[ ]	/* 3 values pushed */\01211 40 14 \012SRP1[ ]	/* SetRefPoint1 */\012SRP2[ ]	/* SetRefPoint2 */\012IP[ ]	/* InterpolatePts */\012PUSHW[ ]	/* 3 values pushed */\01234 40 14 \012SRP1[ ]	/* SetRefPoint1 */\012SRP2[ ]	/* SetRefPoint2 */\012IP[ ]	/* InterpolatePts */\012PUSHW[ ]	/* 1 value pushed */\01250 \012SRP0[ ]	/* SetRefPoint0 */\012PUSHW[ ]	/* 1 value pushed */\01238 \012MDRP[10000]	/* MoveDirectRelPt */\012PUSHW[ ]	/* 1 value pushed */\01238 \012MDAP[1]	/* MoveDirectAbsPt */\012PUSHW[ ]	/* 1 value pushed */\0128 \012SRP0[ ]	/* SetRefPoint0 */\012PUSHW[ ]	/* 2 values pushed */\01251 6 \012MIRP[10100]	/* MoveIndirectRelPt */\012PUSHW[ ]	/* 3 values pushed */\01255 40 14 \012SRP1[ ]	/* SetRefPoint1 */\012SRP2[ ]	/* SetRefPoint2 */\012IP[ ]	/* InterpolatePts */\012SVTCA[0]	/* SetFreedomAndProjectionVectorToAxis */\012PUSHW[ ]	/* 1 value pushed */\0127 \012MDAP[1]	/* MoveDirectAbsPt */\012IUP[0]	/* InterpolateUntPts */\012IUP[1]	/* InterpolateUntPts */";
};
width = 367;
}
);
leftKerningGroup = H;
leftMetricsKey = H;
note = Eng;
rightKerningGroup = H;
rightMetricsKey = H;
unicode = 014A;
},
{
glyphname = O;
lastChange = "2021-12-06 09:01:27 +0000";
layers = (
{
anchors = (
{
name = bottom;
position = "{151, 0}";
},
{
name = center;
position = "{193, 296}";
},
{
name = ogonek;
position = "{208, 0}";
},
{
name = top;
position = "{239, 591}";
},
{
name = topleft;
position = "{55, 591}";
},
{
name = topright;
position = "{308, 591}";
}
);
layerId = "6544E2DB-1912-401E-9B5B-A29F161A5995";
paths = (
{
closed = 1;
nodes = (
"274 -11 OFFCURVE",
"334 29 OFFCURVE",
"356 186 CURVE SMOOTH",
"393 451 LINE SMOOTH",
"408 560 OFFCURVE",
"348 601 OFFCURVE",
"239 601 CURVE SMOOTH",
"129 601 OFFCURVE",
"51 559 OFFCURVE",
"36 451 CURVE SMOOTH",
"-1 185 LINE SMOOTH",
"-23 29 OFFCURVE",
"31 -11 OFFCURVE",
"153 -11 CURVE SMOOTH"
);
},
{
closed = 1;
nodes = (
"43 7 OFFCURVE",
"-4 44 OFFCURVE",
"16 185 CURVE SMOOTH",
"53 451 LINE SMOOTH",
"66 547 OFFCURVE",
"136 583 OFFCURVE",
"236 583 CURVE SMOOTH",
"335 583 OFFCURVE",
"389 547 OFFCURVE",
"376 451 CURVE SMOOTH",
"339 186 LINE SMOOTH",
"319 44 OFFCURVE",
"264 7 OFFCURVE",
"155 7 CURVE SMOOTH"
);
},
{
closed = 1;
nodes = (
"261 16 OFFCURVE",
"311 50 OFFCURVE",
"330 186 CURVE SMOOTH",
"367 451 LINE SMOOTH",
"379 540 OFFCURVE",
"328 574 OFFCURVE",
"235 574 CURVE SMOOTH",
"140 574 OFFCURVE",
"75 542 OFFCURVE",
"62 451 CURVE SMOOTH",
"25 185 LINE SMOOTH",
"6 51 OFFCURVE",
"52 16 OFFCURVE",
"157 16 CURVE SMOOTH"
);
},
{
closed = 1;
nodes = (
"164 100 OFFCURVE",
"161 102 OFFCURVE",
"159 106 CURVE SMOOTH",
"157 110 OFFCURVE",
"157 117 OFFCURVE",
"158 127 CURVE SMOOTH",
"205 458 LINE SMOOTH",
"207 469 OFFCURVE",
"209 476 OFFCURVE",
"212 480 CURVE SMOOTH",
"215 483 OFFCURVE",
"218 485 OFFCURVE",
"223 485 CURVE SMOOTH",
"226 485 OFFCURVE",
"229 483 OFFCURVE",
"231 480 CURVE SMOOTH",
"233 476 OFFCURVE",
"234 469 OFFCURVE",
"232 458 CURVE SMOOTH",
"185 127 LINE SMOOTH",
"184 117 OFFCURVE",
"182 110 OFFCURVE",
"179 106 CURVE SMOOTH",
"176 102 OFFCURVE",
"172 100 OFFCURVE",
"169 100 CURVE SMOOTH"
);
},
{
closed = 1;
nodes = (
"171 109 OFFCURVE",
"173 110 OFFCURVE",
"174 113 CURVE SMOOTH",
"175 116 OFFCURVE",
"176 120 OFFCURVE",
"177 127 CURVE SMOOTH",
"224 458 LINE SMOOTH",
"225 465 OFFCURVE",
"226 470 OFFCURVE",
"225 473 CURVE SMOOTH",
"224 475 OFFCURVE",
"222 476 OFFCURVE",
"221 476 CURVE SMOOTH",
"219 476 OFFCURVE",
"218 475 OFFCURVE",
"217 473 CURVE SMOOTH",
"216 470 OFFCURVE",
"214 465 OFFCURVE",
"213 458 CURVE SMOOTH",
"166 127 LINE",
"165 115 OFFCURVE",
"167 109 OFFCURVE",
"170 109 CURVE SMOOTH"
);
}
);
width = 372;
}
);
leftKerningGroup = O;
note = O;
rightKerningGroup = O;
unicode = 004F;
},
{
glyphname = Ohookabove;
lastChange = "2021-12-06 09:01:27 +0000";
layers = (
{
components = (
{
name = O;
transform = "{1, 0, 0, 1, -6, 0}";
},
{
name = hookabovecomb.case;
transform = "{1, 0, 0, 1, 109, 0}";
}
);
layerId = "6544E2DB-1912-401E-9B5B-A29F161A5995";
paths = (
{
closed = 1;
nodes = (
"353 613 OFFCURVE",
"341 597 OFFCURVE",
"321 593 CURVE",
"299 598 OFFCURVE",
"274 600 OFFCURVE",
"246 600 CURVE SMOOTH",
"137 600 OFFCURVE",
"59 564 OFFCURVE",
"45 465 CURVE SMOOTH",
"4 173 LINE SMOOTH",
"-18 14 OFFCURVE",
"51 -12 OFFCURVE",
"160 -12 CURVE SMOOTH",
"258 -12 OFFCURVE",
"337 14 OFFCURVE",
"360 174 CURVE SMOOTH",
"401 465 LINE SMOOTH",
"406 500 OFFCURVE",
"400 527 OFFCURVE",
"386 547 CURVE",
"419 564 OFFCURVE",
"452 594 OFFCURVE",
"456 638 CURVE SMOOTH",
"458 658 LINE",
"358 658 LINE",
"356 638 LINE SMOOTH"
);
},
{
closed = 1;
nodes = (
"200 87 OFFCURVE",
"182 80 OFFCURVE",
"173 80 CURVE SMOOTH",
"163 80 OFFCURVE",
"148 87 OFFCURVE",
"151 110 CURVE SMOOTH",
"202 473 LINE SMOOTH",
"205 496 OFFCURVE",
"211 503 OFFCURVE",
"221 503 CURVE SMOOTH",
"230 503 OFFCURVE",
"246 496 OFFCURVE",
"243 473 CURVE SMOOTH",
"203 110 LINE SMOOTH"
);
}
);
width = 398;
}
);
leftKerningGroup = O;
rightKerningGroup = O;
unicode = 1ECE;
},
{
color = 8;
glyphname = Ohorn;
lastChange = "2021-12-03 08:12:42 +0000";
layers = (
{
anchors = (
{
name = bottom;
position = "{169, 0}";
},
{
name = center;
position = "{211, 296}";
},
{
name = ogonek;
position = "{234, 0}";
},
{
name = top;
position = "{252, 591}";
},
{
name = topleft;
position = "{68, 591}";
},
{
name = topright;
position = "{485, 658}";
}
);
background = {
components = (
{
name = horncomb;
transform = "{1, 0, 0, 1, 226, 125}";
},
{
name = O;
}
);
};
layerId = "6544E2DB-1912-401E-9B5B-A29F161A5995";
paths = (
{
closed = 1;
nodes = (
"364 611 OFFCURVE",
"351 595 OFFCURVE",
"328 592 CURVE",
"307 598 OFFCURVE",
"281 601 OFFCURVE",
"252 601 CURVE SMOOTH",
"142 601 OFFCURVE",
"64 559 OFFCURVE",
"49 451 CURVE SMOOTH",
"12 185 LINE SMOOTH",
"-10 29 OFFCURVE",
"44 -11 OFFCURVE",
"166 -11 CURVE SMOOTH",
"287 -11 OFFCURVE",
"347 29 OFFCURVE",
"369 186 CURVE SMOOTH",
"406 451 LINE SMOOTH",
"411 489 OFFCURVE",
"407 518 OFFCURVE",
"396 541 CURVE",
"437 557 OFFCURVE",
"461 588 OFFCURVE",
"468 638 CURVE SMOOTH",
"470 658 LINE",
"370 658 LINE",
"368 638 LINE SMOOTH"
);
},
{
closed = 1;
nodes = (
"197 117 OFFCURVE",
"195 110 OFFCURVE",
"192 106 CURVE SMOOTH",
"189 102 OFFCURVE",
"185 100 OFFCURVE",
"182 100 CURVE SMOOTH",
"177 100 OFFCURVE",
"174 102 OFFCURVE",
"172 106 CURVE SMOOTH",
"170 110 OFFCURVE",
"170 117 OFFCURVE",
"171 127 CURVE SMOOTH",
"218 458 LINE SMOOTH",
"220 469 OFFCURVE",
"222 476 OFFCURVE",
"225 480 CURVE SMOOTH",
"228 483 OFFCURVE",
"231 485 OFFCURVE",
"236 485 CURVE SMOOTH",
"239 485 OFFCURVE",
"242 483 OFFCURVE",
"244 480 CURVE SMOOTH",
"246 476 OFFCURVE",
"247 469 OFFCURVE",
"245 458 CURVE SMOOTH",
"198 127 LINE SMOOTH"
);
}
);
width = 398;
}
);
leftKerningGroup = O;
rightKerningGroup = O;
unicode = 01A0;
},
{
color = 8;
glyphname = Oogonek;
lastChange = "2021-12-03 07:44:42 +0000";
layers = (
{
anchors = (
{
name = bottom;
position = "{169, 0}";
},
{
name = center;
position = "{211, 296}";
},
{
name = ogonek;
position = "{234, 0}";
},
{
name = top;
position = "{252, 591}";
},
{
name = topleft;
position = "{68, 591}";
},
{
name = topright;
position = "{292, 591}";
}
);
layerId = "6544E2DB-1912-401E-9B5B-A29F161A5995";
paths = (
{
closed = 1;
nodes = (
"143 600 OFFCURVE",
"65 564 OFFCURVE",
"51 465 CURVE SMOOTH",
"10 173 LINE SMOOTH",
"-10 32 OFFCURVE",
"43 -5 OFFCURVE",
"131 -11 CURVE",
"99 -27 OFFCURVE",
"78 -57 OFFCURVE",
"74 -83 CURVE SMOOTH",
"69 -117 OFFCURVE",
"99 -151 OFFCURVE",
"157 -151 CURVE SMOOTH",
"207 -151 OFFCURVE",
"229 -137 OFFCURVE",
"237 -133 CURVE",
"225 -96 LINE",
"222 -96 OFFCURVE",
"216 -99 OFFCURVE",
"207 -99 CURVE SMOOTH",
"191 -99 OFFCURVE",
"172 -85 OFFCURVE",
"175 -61 CURVE SMOOTH",
"177 -44 OFFCURVE",
"189 -24 OFFCURVE",
"210 -10 CURVE",
"296 -2 OFFCURVE",
"357 37 OFFCURVE",
"377 174 CURVE SMOOTH",
"418 465 LINE SMOOTH",
"432 564 OFFCURVE",
"361 600 OFFCURVE",
"252 600 CURVE SMOOTH"
);
},
{
closed = 1;
nodes = (
"206 87 OFFCURVE",
"188 80 OFFCURVE",
"179 80 CURVE SMOOTH",
"169 80 OFFCURVE",
"154 87 OFFCURVE",
"157 110 CURVE SMOOTH",
"208 473 LINE SMOOTH",
"211 496 OFFCURVE",
"228 503 OFFCURVE",
"238 503 CURVE SMOOTH",
"247 503 OFFCURVE",
"263 496 OFFCURVE",
"260 473 CURVE SMOOTH",
"209 110 LINE SMOOTH"
);
}
);
width = 407;
}
);
leftKerningGroup = O;
rightKerningGroup = O;
unicode = 01EA;
},
{
glyphname = Oslash;
lastChange = "2021-12-06 09:01:27 +0000";
layers = (
{
layerId = "6544E2DB-1912-401E-9B5B-A29F161A5995";
paths = (
{
closed = 1;
nodes = (
"78 -40 LINE",
"104 1 LINE",
"128 -8 OFFCURVE",
"156 -11 OFFCURVE",
"189 -11 CURVE SMOOTH",
"314 -11 OFFCURVE",
"374 29 OFFCURVE",
"396 187 CURVE SMOOTH",
"433 455 LINE SMOOTH",
"437 482 OFFCURVE",
"436 504 OFFCURVE",
"429 524 CURVE",
"499 634 LINE",
"379 634 LINE",
"355 596 LINE",
"333 603 OFFCURVE",
"307 606 OFFCURVE",
"276 606 CURVE SMOOTH",
"165 606 OFFCURVE",
"85 564 OFFCURVE",
"69 455 CURVE SMOOTH",
"32 186 LINE SMOOTH",
"25 139 OFFCURVE",
"26 106 OFFCURVE",
"34 77 CURVE",
"-40 -40 LINE"
);
},
{
closed = 1;
nodes = (
"210 110 OFFCURVE",
"213 116 OFFCURVE",
"215 129 CURVE SMOOTH",
"232 253 LINE",
"218 231 LINE",
"204 129 LINE SMOOTH",
"202 116 OFFCURVE",
"203 110 OFFCURVE",
"206 110 CURVE SMOOTH"
);
},
{
closed = 1;
nodes = (
"201 101 OFFCURVE",
"198 103 OFFCURVE",
"196 107 CURVE SMOOTH",
"194 110 OFFCURVE",
"194 118 OFFCURVE",
"195 129 CURVE SMOOTH",
"209 233 LINE",
"245 291 LINE",
"223 129 LINE SMOOTH",
"222 118 OFFCURVE",
"219 110 OFFCURVE",
"216 107 CURVE SMOOTH",
"213 103 OFFCURVE",
"209 101 OFFCURVE",
"205 101 CURVE SMOOTH"
);
},
{
closed = 1;
nodes = (
"53 76 LINE",
"44 102 OFFCURVE",
"43 139 OFFCURVE",
"50 186 CURVE SMOOTH",
"87 455 LINE SMOOTH",
"102 552 OFFCURVE",
"173 588 OFFCURVE",
"273 588 CURVE SMOOTH",
"308 588 OFFCURVE",
"337 583 OFFCURVE",
"360 573 CURVE",
"387 615 LINE",
"467 615 LINE",
"409 524 LINE",
"416 505 OFFCURVE",
"420 480 OFFCURVE",
"416 455 CURVE SMOOTH",
"379 187 LINE SMOOTH",
"359 44 OFFCURVE",
"302 7 OFFCURVE",
"191 7 CURVE SMOOTH",
"152 7 OFFCURVE",
"122 10 OFFCURVE",
"98 23 CURVE",
"69 -22 LINE",
"-10 -22 LINE"
);
},
{
closed = 1;
nodes = (
"65 -13 LINE",
"96 36 LINE",
"119 21 OFFCURVE",
"153 17 OFFCURVE",
"193 17 CURVE SMOOTH",
"300 17 OFFCURVE",
"350 51 OFFCURVE",
"370 187 CURVE SMOOTH",
"407 455 LINE SMOOTH",
"412 483 OFFCURVE",
"409 506 OFFCURVE",
"399 525 CURVE",
"451 606 LINE",
"391 606 LINE",
"363 561 LINE",
"340 573 OFFCURVE",
"309 579 OFFCURVE",
"272 579 CURVE SMOOTH",
"176 579 OFFCURVE",
"109 546 OFFCURVE",
"96 455 CURVE SMOOTH",
"59 186 LINE SMOOTH",
"52 138 OFFCURVE",
"54 104 OFFCURVE",
"63 77 CURVE",
"7 -13 LINE"
);
},
{
closed = 1;
nodes = (
"241 462 LINE SMOOTH",
"242 473 OFFCURVE",
"245 480 OFFCURVE",
"248 484 CURVE SMOOTH",
"251 487 OFFCURVE",
"255 489 OFFCURVE",
"259 489 CURVE SMOOTH",
"263 489 OFFCURVE",
"266 487 OFFCURVE",
"268 484 CURVE SMOOTH",
"270 480 OFFCURVE",
"270 473 OFFCURVE",
"269 462 CURVE SMOOTH",
"257 376 LINE",
"221 319 LINE"
);
},
{
closed = 1;
nodes = (
"250 378 LINE",
"261 462 LINE SMOOTH",
"262 469 OFFCURVE",
"263 474 OFFCURVE",
"262 477 CURVE SMOOTH",
"261 479 OFFCURVE",
"259 480 OFFCURVE",
"258 480 CURVE SMOOTH",
"257 480 OFFCURVE",
"255 479 OFFCURVE",
"254 477 CURVE SMOOTH",
"253 474 OFFCURVE",
"251 469 OFFCURVE",
"250 462 CURVE SMOOTH",
"236 356 LINE"
);
}
);
userData = {
assembly = "PUSHW[ ]	/* 4 values pushed */\01272 6 56 4 \012CALL[ ]	/* CallFunction */\012PUSHW[ ]	/* 1 value pushed */\01256 \012SRP0[ ]	/* SetRefPoint0 */\012PUSHW[ ]	/* 1 value pushed */\01229 \012MDRP[10000]	/* MoveDirectRelPt */\012PUSHW[ ]	/* 1 value pushed */\01229 \012MDAP[1]	/* MoveDirectAbsPt */\012PUSHW[ ]	/* 3 values pushed */\01230 56 72 \012SRP1[ ]	/* SetRefPoint1 */\012SRP2[ ]	/* SetRefPoint2 */\012IP[ ]	/* InterpolatePts */\012PUSHW[ ]	/* 1 value pushed */\01256 \012SRP0[ ]	/* SetRefPoint0 */\012PUSHW[ ]	/* 1 value pushed */\01235 \012MDRP[10000]	/* MoveDirectRelPt */\012PUSHW[ ]	/* 1 value pushed */\01235 \012MDAP[1]	/* MoveDirectAbsPt */\012PUSHW[ ]	/* 3 values pushed */\01252 56 72 \012SRP1[ ]	/* SetRefPoint1 */\012SRP2[ ]	/* SetRefPoint2 */\012IP[ ]	/* InterpolatePts */\012PUSHW[ ]	/* 1 value pushed */\01256 \012SRP0[ ]	/* SetRefPoint0 */\012PUSHW[ ]	/* 1 value pushed */\01258 \012MDRP[10000]	/* MoveDirectRelPt */\012PUSHW[ ]	/* 1 value pushed */\01258 \012MDAP[1]	/* MoveDirectAbsPt */\012PUSHW[ ]	/* 1 value pushed */\01272 \012SRP0[ ]	/* SetRefPoint0 */\012PUSHW[ ]	/* 1 value pushed */\012116 \012MDRP[11100]	/* MoveDirectRelPt */\012SVTCA[0]	/* SetFreedomAndProjectionVectorToAxis */\012PUSHW[ ]	/* 3 values pushed */\012101 4 3 \012CALL[ ]	/* CallFunction */\012PUSHW[ ]	/* 4 values pushed */\01226 2 83 4 \012CALL[ ]	/* CallFunction */\012PUSHW[ ]	/* 4 values pushed */\01272 2 40 4 \012CALL[ ]	/* CallFunction */\012PUSHW[ ]	/* 1 value pushed */\01283 \012SRP0[ ]	/* SetRefPoint0 */\012PUSHW[ ]	/* 1 value pushed */\0120 \012MDRP[10000]	/* MoveDirectRelPt */\012PUSHW[ ]	/* 1 value pushed */\0120 \012MDAP[1]	/* MoveDirectAbsPt */\012PUSHW[ ]	/* 1 value pushed */\01272 \012SRP0[ ]	/* SetRefPoint0 */\012PUSHW[ ]	/* 1 value pushed */\01213 \012MDRP[10000]	/* MoveDirectRelPt */\012PUSHW[ ]	/* 1 value pushed */\01213 \012MDAP[1]	/* MoveDirectAbsPt */\012PUSHW[ ]	/* 1 value pushed */\012101 \012SRP0[ ]	/* SetRefPoint0 */\012PUSHW[ ]	/* 1 value pushed */\01216 \012MDRP[10000]	/* MoveDirectRelPt */\012PUSHW[ ]	/* 3 values pushed */\01230 4 101 \012SRP1[ ]	/* SetRefPoint1 */\012SRP2[ ]	/* SetRefPoint2 */\012IP[ ]	/* InterpolatePts */\012PUSHW[ ]	/* 3 values pushed */\01235 4 101 \012SRP1[ ]	/* SetRefPoint1 */\012SRP2[ ]	/* SetRefPoint2 */\012IP[ ]	/* InterpolatePts */\012PUSHW[ ]	/* 3 values pushed */\01252 4 101 \012SRP1[ ]	/* SetRefPoint1 */\012SRP2[ ]	/* SetRefPoint2 */\012IP[ ]	/* InterpolatePts */\012PUSHW[ ]	/* 3 values pushed */\01257 4 101 \012SRP1[ ]	/* SetRefPoint1 */\012SRP2[ ]	/* SetRefPoint2 */\012IP[ ]	/* InterpolatePts */\012PUSHW[ ]	/* 1 value pushed */\0124 \012SRP0[ ]	/* SetRefPoint0 */\012PUSHW[ ]	/* 1 value pushed */\01286 \012MDRP[10000]	/* MoveDirectRelPt */\012PUSHW[ ]	/* 1 value pushed */\01286 \012MDAP[1]	/* MoveDirectAbsPt */\012IUP[0]	/* InterpolateUntPts */\012IUP[1]	/* InterpolateUntPts */";
};
width = 447;
}
);
leftKerningGroup = O;
note = Oslash;
rightKerningGroup = O;
unicode = 00D8;
},
{
glyphname = OE;
lastChange = "2021-12-06 09:01:27 +0000";
layers = (
{
layerId = "6544E2DB-1912-401E-9B5B-A29F161A5995";
paths = (
{
closed = 1;
nodes = (
"191 -11 OFFCURVE",
"221 -8 OFFCURVE",
"246 0 CURVE",
"449 0 LINE",
"470 153 LINE",
"363 153 LINE",
"372 219 LINE",
"470 219 LINE",
"494 387 LINE",
"396 387 LINE",
"403 437 LINE",
"510 437 LINE",
"532 593 LINE",
"320 593 LINE",
"297 600 OFFCURVE",
"274 601 OFFCURVE",
"245 601 CURVE SMOOTH",
"132 601 OFFCURVE",
"52 560 OFFCURVE",
"36 451 CURVE SMOOTH",
"-1 185 LINE SMOOTH",
"-23 28 OFFCURVE",
"33 -11 OFFCURVE",
"159 -11 CURVE SMOOTH"
);
},
{
closed = 1;
nodes = (
"170 100 OFFCURVE",
"167 102 OFFCURVE",
"165 106 CURVE SMOOTH",
"163 110 OFFCURVE",
"163 117 OFFCURVE",
"164 127 CURVE SMOOTH",
"211 458 LINE SMOOTH",
"212 469 OFFCURVE",
"215 476 OFFCURVE",
"218 480 CURVE SMOOTH",
"221 483 OFFCURVE",
"224 485 OFFCURVE",
"229 485 CURVE SMOOTH",
"233 485 OFFCURVE",
"236 483 OFFCURVE",
"238 480 CURVE SMOOTH",
"240 476 OFFCURVE",
"240 469 OFFCURVE",
"239 458 CURVE SMOOTH",
"192 127 LINE SMOOTH",
"191 117 OFFCURVE",
"189 110 OFFCURVE",
"186 106 CURVE SMOOTH",
"183 102 OFFCURVE",
"179 100 OFFCURVE",
"175 100 CURVE SMOOTH"
);
},
{
closed = 1;
nodes = (
"180 109 OFFCURVE",
"182 115 OFFCURVE",
"183 127 CURVE",
"230 458 LINE SMOOTH",
"231 465 OFFCURVE",
"232 470 OFFCURVE",
"231 473 CURVE SMOOTH",
"230 475 OFFCURVE",
"228 476 OFFCURVE",
"227 476 CURVE SMOOTH",
"225 476 OFFCURVE",
"224 475 OFFCURVE",
"223 473 CURVE SMOOTH",
"220 458 LINE",
"173 127 LINE",
"172 115 OFFCURVE",
"173 109 OFFCURVE",
"176 109 CURVE SMOOTH"
);
},
{
closed = 1;
nodes = (
"47 7 OFFCURVE",
"-3 44 OFFCURVE",
"17 185 CURVE SMOOTH",
"54 451 LINE SMOOTH",
"67 547 OFFCURVE",
"139 583 OFFCURVE",
"242 583 CURVE SMOOTH",
"269 583 OFFCURVE",
"295 579 OFFCURVE",
"314 575 CURVE",
"511 575 LINE",
"494 455 LINE",
"387 455 LINE",
"375 369 LINE",
"473 369 LINE",
"455 237 LINE",
"357 237 LINE",
"342 135 LINE",
"449 135 LINE",
"433 18 LINE",
"244 18 LINE",
"221 10 OFFCURVE",
"192 7 OFFCURVE",
"161 7 CURVE SMOOTH"
);
},
{
closed = 1;
nodes = (
"194 16 OFFCURVE",
"220 19 OFFCURVE",
"243 27 CURVE",
"425 27 LINE",
"439 126 LINE",
"333 126 LINE",
"350 246 LINE",
"447 246 LINE",
"463 360 LINE",
"366 360 LINE",
"381 464 LINE",
"487 464 LINE",
"501 566 LINE",
"310 566 LINE",
"291 571 OFFCURVE",
"268 574 OFFCURVE",
"241 574 CURVE SMOOTH",
"144 574 OFFCURVE",
"75 542 OFFCURVE",
"62 451 CURVE SMOOTH",
"25 185 LINE SMOOTH",
"5 50 OFFCURVE",
"55 16 OFFCURVE",
"163 16 CURVE SMOOTH"
);
}
);
userData = {
assembly = "PUSHW[ ]	/* 4 values pushed */\01291 6 49 4 \012CALL[ ]	/* CallFunction */\012PUSHW[ ]	/* 4 values pushed */\01212 6 58 4 \012CALL[ ]	/* CallFunction */\012PUSHW[ ]	/* 3 values pushed */\01211 49 91 \012SRP1[ ]	/* SetRefPoint1 */\012SRP2[ ]	/* SetRefPoint2 */\012IP[ ]	/* InterpolatePts */\012PUSHW[ ]	/* 1 value pushed */\01211 \012MDAP[1]	/* MoveDirectAbsPt */\012PUSHW[ ]	/* 1 value pushed */\01258 \012SRP0[ ]	/* SetRefPoint0 */\012PUSHW[ ]	/* 1 value pushed */\01218 \012MDRP[10000]	/* MoveDirectRelPt */\012PUSHW[ ]	/* 1 value pushed */\01218 \012MDAP[1]	/* MoveDirectAbsPt */\012PUSHW[ ]	/* 1 value pushed */\01211 \012SRP0[ ]	/* SetRefPoint0 */\012PUSHW[ ]	/* 2 values pushed */\01241 6 \012MIRP[10100]	/* MoveIndirectRelPt */\012PUSHW[ ]	/* 1 value pushed */\01212 \012SRP0[ ]	/* SetRefPoint0 */\012PUSHW[ ]	/* 1 value pushed */\01263 \012MDRP[10000]	/* MoveDirectRelPt */\012PUSHW[ ]	/* 1 value pushed */\01263 \012MDAP[1]	/* MoveDirectAbsPt */\012PUSHW[ ]	/* 1 value pushed */\01212 \012SRP0[ ]	/* SetRefPoint0 */\012PUSHW[ ]	/* 1 value pushed */\01296 \012MDRP[10000]	/* MoveDirectRelPt */\012PUSHW[ ]	/* 1 value pushed */\01296 \012MDAP[1]	/* MoveDirectAbsPt */\012PUSHW[ ]	/* 1 value pushed */\01258 \012SRP0[ ]	/* SetRefPoint0 */\012PUSHW[ ]	/* 1 value pushed */\01299 \012MDRP[10000]	/* MoveDirectRelPt */\012PUSHW[ ]	/* 1 value pushed */\01299 \012MDAP[1]	/* MoveDirectAbsPt */\012PUSHW[ ]	/* 1 value pushed */\01212 \012SRP0[ ]	/* SetRefPoint0 */\012PUSHW[ ]	/* 1 value pushed */\012106 \012MDRP[11100]	/* MoveDirectRelPt */\012SVTCA[0]	/* SetFreedomAndProjectionVectorToAxis */\012PUSHW[ ]	/* 4 values pushed */\01225 2 54 4 \012CALL[ ]	/* CallFunction */\012PUSHW[ ]	/* 4 values pushed */\01220 3 21 4 \012CALL[ ]	/* CallFunction */\012PUSHW[ ]	/* 4 values pushed */\01211 2 32 4 \012CALL[ ]	/* CallFunction */\012PUSHW[ ]	/* 1 value pushed */\01254 \012SRP0[ ]	/* SetRefPoint0 */\012PUSHW[ ]	/* 1 value pushed */\0120 \012MDRP[10000]	/* MoveDirectRelPt */\012PUSHW[ ]	/* 1 value pushed */\0120 \012MDAP[1]	/* MoveDirectAbsPt */\012PUSHW[ ]	/* 1 value pushed */\01225 \012SRP0[ ]	/* SetRefPoint0 */\012PUSHW[ ]	/* 2 values pushed */\01222 2 \012MIRP[10100]	/* MoveIndirectRelPt */\012IUP[0]	/* InterpolateUntPts */\012IUP[1]	/* InterpolateUntPts */";
};
width = 490;
}
);
leftKerningGroup = O;
leftMetricsKey = O;
note = OE;
rightKerningGroup = E;
rightMetricsKey = E;
unicode = 0152;
},
{
glyphname = P;
lastChange = "2021-12-07 19:39:12 +0000";
layers = (
{
layerId = "6544E2DB-1912-401E-9B5B-A29F161A5995";
paths = (
{
closed = 1;
nodes = (
"168 0 LINE",
"196 203 LINE",
"234 203 LINE SMOOTH",
"332 203 OFFCURVE",
"371 286 OFFCURVE",
"384 383 CURVE SMOOTH",
"397 472 LINE SMOOTH",
"408 543 OFFCURVE",
"375 591 OFFCURVE",
"282 591 CURVE SMOOTH",
"57 591 LINE",
"-27 0 LINE"
);
},
{
closed = 1;
nodes = (
"72 573 LINE",
"279 573 LINE SMOOTH",
"360 573 OFFCURVE",
"388 532 OFFCURVE",
"380 472 CURVE SMOOTH",
"367 383 LINE SMOOTH",
"353 296 OFFCURVE",
"323 222 OFFCURVE",
"237 222 CURVE SMOOTH",
"182 222 LINE",
"153 18 LINE",
"-7 18 LINE"
);
},
{
closed = 1;
nodes = (
"145 27 LINE",
"174 231 LINE",
"238 231 LINE SMOOTH",
"315 231 OFFCURVE",
"348 302 OFFCURVE",
"359 383 CURVE SMOOTH",
"372 472 LINE SMOOTH",
"379 527 OFFCURVE",
"354 564 OFFCURVE",
"278 564 CURVE SMOOTH",
"79 564 LINE",
"3 27 LINE"
);
},
{
closed = 1;
nodes = (
"210 488 LINE",
"223 488 LINE SMOOTH",
"230 488 OFFCURVE",
"234 481 OFFCURVE",
"234 468 CURVE SMOOTH",
"233 455 OFFCURVE",
"230 431 OFFCURVE",
"225 398 CURVE SMOOTH",
"220 364 OFFCURVE",
"216 341 OFFCURVE",
"211 328 CURVE SMOOTH",
"206 315 OFFCURVE",
"201 309 OFFCURVE",
"195 309 CURVE SMOOTH",
"185 309 LINE"
);
},
{
closed = 1;
nodes = (
"196 318 LINE SMOOTH",
"199 318 OFFCURVE",
"203 324 OFFCURVE",
"206 336 CURVE SMOOTH",
"209 347 OFFCURVE",
"213 368 OFFCURVE",
"217 398 CURVE SMOOTH",
"222 428 OFFCURVE",
"225 449 OFFCURVE",
"226 461 CURVE SMOOTH",
"227 472 OFFCURVE",
"225 478 OFFCURVE",
"222 478 CURVE SMOOTH",
"218 478 LINE",
"195 318 LINE"
);
}
);
userData = {
assembly = "SVTCA[0]	/* SetFreedomAndProjectionVectorToAxis */\012PUSHW[ ]	/* 1 value pushed */\01212 \012MDAP[1]	/* MoveDirectAbsPt */\012PUSHW[ ]	/* 4 values pushed */\01214 1 34 4 \012CALL[ ]	/* CallFunction */\012IUP[0]	/* InterpolateUntPts */\012IUP[1]	/* InterpolateUntPts */";
};
width = 371;
}
);
leftKerningGroup = H;
leftMetricsKey = H;
note = P;
rightKerningGroup = P;
unicode = 0050;
},
{
glyphname = Thorn;
lastChange = "2021-12-06 09:01:27 +0000";
layers = (
{
layerId = "6544E2DB-1912-401E-9B5B-A29F161A5995";
paths = (
{
closed = 1;
nodes = (
"165 0 LINE",
"181 115 LINE",
"219 115 LINE SMOOTH",
"317 115 OFFCURVE",
"356 198 OFFCURVE",
"369 295 CURVE SMOOTH",
"381 384 LINE SMOOTH",
"392 455 OFFCURVE",
"359 503 OFFCURVE",
"266 503 CURVE SMOOTH",
"236 503 LINE",
"249 591 LINE",
"54 591 LINE",
"-29 0 LINE"
);
},
{
closed = 1;
nodes = (
"69 573 LINE",
"229 573 LINE",
"217 485 LINE",
"264 485 LINE SMOOTH",
"345 485 OFFCURVE",
"373 444 OFFCURVE",
"364 384 CURVE SMOOTH",
"352 295 LINE SMOOTH",
"339 209 OFFCURVE",
"305 133 OFFCURVE",
"221 133 CURVE SMOOTH",
"166 133 LINE",
"150 18 LINE",
"-9 18 LINE"
);
},
{
closed = 1;
nodes = (
"142 27 LINE",
"159 143 LINE",
"223 143 LINE SMOOTH",
"300 143 OFFCURVE",
"333 214 OFFCURVE",
"344 295 CURVE SMOOTH",
"356 384 LINE SMOOTH",
"364 439 OFFCURVE",
"338 476 OFFCURVE",
"262 476 CURVE SMOOTH",
"206 476 LINE",
"219 564 LINE",
"76 564 LINE",
"0 27 LINE"
);
},
{
closed = 1;
nodes = (
"195 399 LINE",
"208 399 LINE SMOOTH",
"215 399 OFFCURVE",
"219 393 OFFCURVE",
"218 380 CURVE SMOOTH",
"217 367 OFFCURVE",
"215 343 OFFCURVE",
"210 310 CURVE SMOOTH",
"205 276 OFFCURVE",
"201 253 OFFCURVE",
"196 240 CURVE SMOOTH",
"191 227 OFFCURVE",
"186 221 OFFCURVE",
"180 221 CURVE SMOOTH",
"170 221 LINE"
);
},
{
closed = 1;
nodes = (
"181 230 LINE SMOOTH",
"184 230 OFFCURVE",
"188 236 OFFCURVE",
"191 248 CURVE SMOOTH",
"194 259 OFFCURVE",
"198 280 OFFCURVE",
"202 310 CURVE SMOOTH",
"206 340 OFFCURVE",
"209 361 OFFCURVE",
"210 373 CURVE SMOOTH",
"211 384 OFFCURVE",
"209 390 OFFCURVE",
"206 390 CURVE SMOOTH",
"202 390 LINE",
"180 230 LINE"
);
}
);
userData = {
assembly = "SVTCA[0]	/* SetFreedomAndProjectionVectorToAxis */\012PUSHW[ ]	/* 1 value pushed */\01214 \012MDAP[1]	/* MoveDirectAbsPt */\012IUP[0]	/* InterpolateUntPts */\012IUP[1]	/* InterpolateUntPts */";
};
width = 373;
}
);
leftKerningGroup = H;
note = Thorn;
rightKerningGroup = P;
unicode = 00DE;
},
{
glyphname = Q;
lastChange = "2021-12-06 09:01:27 +0000";
layers = (
{
layerId = "6544E2DB-1912-401E-9B5B-A29F161A5995";
paths = (
{
closed = 1;
nodes = (
"337 -45 LINE",
"321 -3 LINE SMOOTH",
"314 14 OFFCURVE",
"308 29 OFFCURVE",
"302 43 CURVE",
"329 74 OFFCURVE",
"346 120 OFFCURVE",
"357 188 CURVE SMOOTH",
"395 457 LINE SMOOTH",
"411 567 OFFCURVE",
"351 610 OFFCURVE",
"240 610 CURVE SMOOTH",
"129 610 OFFCURVE",
"53 568 OFFCURVE",
"37 457 CURVE SMOOTH",
"-1 188 LINE SMOOTH",
"-23 33 OFFCURVE",
"27 -8 OFFCURVE",
"144 -11 CURVE",
"191 -129 LINE"
);
},
{
closed = 1;
nodes = (
"155 7 LINE",
"42 7 OFFCURVE",
"-3 45 OFFCURVE",
"16 188 CURVE SMOOTH",
"54 457 LINE SMOOTH",
"69 556 OFFCURVE",
"138 591 OFFCURVE",
"238 591 CURVE SMOOTH",
"339 591 OFFCURVE",
"391 555 OFFCURVE",
"378 457 CURVE SMOOTH",
"340 188 LINE SMOOTH",
"329 115 OFFCURVE",
"310 72 OFFCURVE",
"282 45 CURVE",
"293 18 OFFCURVE",
"305 -14 OFFCURVE",
"314 -39 CURVE",
"201 -104 LINE"
);
},
{
closed = 1;
nodes = (
"303 -35 LINE",
"271 46 LINE",
"299 71 OFFCURVE",
"320 113 OFFCURVE",
"331 188 CURVE SMOOTH",
"369 457 LINE SMOOTH",
"382 549 OFFCURVE",
"329 582 OFFCURVE",
"236 582 CURVE SMOOTH",
"141 582 OFFCURVE",
"76 549 OFFCURVE",
"63 457 CURVE SMOOTH",
"25 188 LINE SMOOTH",
"5 52 OFFCURVE",
"52 17 OFFCURVE",
"157 17 CURVE SMOOTH",
"163 17 LINE",
"206 -91 LINE"
);
},
{
closed = 1;
nodes = (
"164 102 OFFCURVE",
"161 104 OFFCURVE",
"160 108 CURVE SMOOTH",
"158 111 OFFCURVE",
"158 118 OFFCURVE",
"159 129 CURVE SMOOTH",
"206 465 LINE SMOOTH",
"207 476 OFFCURVE",
"210 483 OFFCURVE",
"213 487 CURVE SMOOTH",
"216 490 OFFCURVE",
"219 492 OFFCURVE",
"224 492 CURVE SMOOTH",
"228 492 OFFCURVE",
"231 490 OFFCURVE",
"233 487 CURVE SMOOTH",
"235 483 OFFCURVE",
"235 476 OFFCURVE",
"234 465 CURVE SMOOTH",
"187 129 LINE SMOOTH",
"186 118 OFFCURVE",
"183 111 OFFCURVE",
"180 108 CURVE SMOOTH",
"177 104 OFFCURVE",
"173 102 OFFCURVE",
"169 102 CURVE SMOOTH"
);
},
{
closed = 1;
nodes = (
"171 111 OFFCURVE",
"173 112 OFFCURVE",
"174 115 CURVE SMOOTH",
"175 117 OFFCURVE",
"177 122 OFFCURVE",
"178 129 CURVE SMOOTH",
"225 465 LINE SMOOTH",
"226 472 OFFCURVE",
"227 477 OFFCURVE",
"226 480 CURVE SMOOTH",
"225 482 OFFCURVE",
"223 483 OFFCURVE",
"222 483 CURVE SMOOTH",
"221 483 OFFCURVE",
"220 482 OFFCURVE",
"219 480 CURVE SMOOTH",
"218 477 OFFCURVE",
"216 472 OFFCURVE",
"215 465 CURVE SMOOTH",
"168 129 LINE SMOOTH",
"167 122 OFFCURVE",
"166 117 OFFCURVE",
"167 115 CURVE SMOOTH",
"168 112 OFFCURVE",
"169 111 OFFCURVE",
"170 111 CURVE SMOOTH"
);
}
);
userData = {
assembly = "PUSHW[ ]	/* 4 values pushed */\01249 6 34 4 \012CALL[ ]	/* CallFunction */\012PUSHW[ ]	/* 1 value pushed */\01234 \012SRP0[ ]	/* SetRefPoint0 */\012PUSHW[ ]	/* 1 value pushed */\01237 \012MDRP[10000]	/* MoveDirectRelPt */\012PUSHW[ ]	/* 1 value pushed */\01237 \012MDAP[1]	/* MoveDirectAbsPt */\012PUSHW[ ]	/* 1 value pushed */\01249 \012SRP0[ ]	/* SetRefPoint0 */\012PUSHW[ ]	/* 1 value pushed */\01297 \012MDRP[11100]	/* MoveDirectRelPt */\012IUP[0]	/* InterpolateUntPts */\012IUP[1]	/* InterpolateUntPts */";
};
width = 385;
}
);
leftKerningGroup = O;
leftMetricsKey = O;
note = Q;
rightKerningGroup = Q;
rightMetricsKey = O;
unicode = 0051;
},
{
glyphname = R;
lastChange = "2021-12-06 09:01:27 +0000";
layers = (
{
anchors = (
{
name = bottom;
position = "{165, 0}";
},
{
name = top;
position = "{224, 591}";
}
);
layerId = "6544E2DB-1912-401E-9B5B-A29F161A5995";
paths = (
{
closed = 1;
nodes = (
"375 0 LINE",
"351 229 LINE",
"344 256 OFFCURVE",
"342 268 OFFCURVE",
"334 280 CURVE",
"370 307 OFFCURVE",
"384 347 OFFCURVE",
"390 390 CURVE SMOOTH",
"402 472 LINE SMOOTH",
"413 545 OFFCURVE",
"375 591 OFFCURVE",
"284 591 CURVE SMOOTH",
"57 591 LINE",
"-27 0 LINE"
);
},
{
closed = 1;
nodes = (
"71 573 LINE",
"281 573 LINE SMOOTH",
"364 573 OFFCURVE",
"393 531 OFFCURVE",
"384 472 CURVE SMOOTH",
"372 390 LINE SMOOTH",
"366 347 OFFCURVE",
"345 304 OFFCURVE",
"304 281 CURVE",
"319 272 OFFCURVE",
"326 257 OFFCURVE",
"334 218 CURVE",
"355 18 LINE",
"187 22 LINE",
"186 49 OFFCURVE",
"184 73 OFFCURVE",
"182 94 CURVE SMOOTH",
"181 112 OFFCURVE",
"179 129 OFFCURVE",
"178 145 CURVE SMOOTH",
"176 172 LINE",
"154 18 LINE",
"-8 18 LINE"
);
},
{
closed = 1;
nodes = (
"147 27 LINE",
"181 265 LINE",
"182 265 LINE",
"182 259 OFFCURVE",
"185 174 OFFCURVE",
"186 142 CURVE SMOOTH",
"191 27 LINE",
"345 27 LINE",
"325 222 LINE",
"316 264 OFFCURVE",
"303 277 OFFCURVE",
"277 280 CURVE",
"336 295 OFFCURVE",
"357 339 OFFCURVE",
"364 390 CURVE SMOOTH",
"376 472 LINE SMOOTH",
"384 527 OFFCURVE",
"356 564 OFFCURVE",
"280 564 CURVE SMOOTH",
"79 564 LINE",
"3 27 LINE"
);
},
{
closed = 1;
nodes = (
"212 488 LINE",
"225 488 LINE SMOOTH",
"232 488 OFFCURVE",
"236 481 OFFCURVE",
"236 468 CURVE SMOOTH",
"235 455 OFFCURVE",
"232 431 OFFCURVE",
"227 398 CURVE SMOOTH",
"222 365 OFFCURVE",
"218 343 OFFCURVE",
"214 333 CURVE SMOOTH",
"209 323 OFFCURVE",
"204 318 OFFCURVE",
"198 318 CURVE SMOOTH",
"188 318 LINE"
);
},
{
closed = 1;
nodes = (
"199 327 LINE SMOOTH",
"202 327 OFFCURVE",
"205 332 OFFCURVE",
"208 341 CURVE SMOOTH",
"211 350 OFFCURVE",
"215 369 OFFCURVE",
"219 398 CURVE SMOOTH",
"224 428 OFFCURVE",
"227 449 OFFCURVE",
"228 461 CURVE SMOOTH",
"229 472 OFFCURVE",
"227 478 OFFCURVE",
"224 478 CURVE SMOOTH",
"219 478 LINE",
"197 327 LINE"
);
}
);
userData = {
assembly = "SVTCA[0]	/* SetFreedomAndProjectionVectorToAxis */\012PUSHW[ ]	/* 1 value pushed */\01214 \012MDAP[1]	/* MoveDirectAbsPt */\012PUSHW[ ]	/* 1 value pushed */\01224 \012MDAP[1]	/* MoveDirectAbsPt */\012PUSHW[ ]	/* 1 value pushed */\01251 \012MDAP[1]	/* MoveDirectAbsPt */\012IUP[0]	/* InterpolateUntPts */\012IUP[1]	/* InterpolateUntPts */";
};
width = 412;
}
);
leftKerningGroup = H;
leftMetricsKey = H;
note = R;
rightKerningGroup = R;
unicode = 0052;
},
{
glyphname = S;
lastChange = "2021-12-06 09:01:27 +0000";
layers = (
{
anchors = (
{
name = bottom;
position = "{159, 0}";
},
{
name = top;
position = "{242, 591}";
}
);
layerId = "6544E2DB-1912-401E-9B5B-A29F161A5995";
paths = (
{
closed = 1;
nodes = (
"278 -7 OFFCURVE",
"353 45 OFFCURVE",
"373 183 CURVE SMOOTH",
"388 276 OFFCURVE",
"371 317 OFFCURVE",
"314 348 CURVE",
"390 348 LINE",
"403 436 LINE SMOOTH",
"418 541 OFFCURVE",
"364 594 OFFCURVE",
"242 594 CURVE SMOOTH",
"103 594 OFFCURVE",
"51 547 OFFCURVE",
"32 411 CURVE SMOOTH",
"19 316 OFFCURVE",
"33 262 OFFCURVE",
"105 226 CURVE",
"106 225 LINE",
"2 225 LINE",
"-4 181 LINE SMOOTH",
"-24 37 OFFCURVE",
"25 -7 OFFCURVE",
"153 -7 CURVE SMOOTH"
);
},
{
closed = 1;
nodes = (
"177 110 OFFCURVE",
"180 113 OFFCURVE",
"182 118 CURVE SMOOTH",
"184 123 OFFCURVE",
"186 134 OFFCURVE",
"189 151 CURVE SMOOTH",
"192 176 OFFCURVE",
"189 192 OFFCURVE",
"178 205 CURVE",
"172 158 LINE SMOOTH",
"169 137 OFFCURVE",
"167 124 OFFCURVE",
"168 119 CURVE SMOOTH",
"169 113 OFFCURVE",
"171 110 OFFCURVE",
"174 110 CURVE SMOOTH"
);
},
{
closed = 1;
nodes = (
"40 11 OFFCURVE",
"-5 51 OFFCURVE",
"13 181 CURVE SMOOTH",
"17 207 LINE",
"175 207 LINE",
"162 219 OFFCURVE",
"143 228 OFFCURVE",
"115 243 CURVE SMOOTH",
"50 275 OFFCURVE",
"38 326 OFFCURVE",
"50 411 CURVE SMOOTH",
"66 531 OFFCURVE",
"114 576 OFFCURVE",
"239 576 CURVE SMOOTH",
"350 576 OFFCURVE",
"399 529 OFFCURVE",
"386 436 CURVE SMOOTH",
"376 366 LINE",
"228 366 LINE",
"235 361 OFFCURVE",
"244 357 OFFCURVE",
"255 354 CURVE",
"254 355 LINE",
"255 354 OFFCURVE",
"257 354 OFFCURVE",
"260 353 CURVE SMOOTH",
"265 350 LINE",
"266 349 LINE",
"346 315 OFFCURVE",
"371 291 OFFCURVE",
"356 183 CURVE SMOOTH",
"338 57 OFFCURVE",
"268 11 OFFCURVE",
"155 11 CURVE SMOOTH"
);
},
{
closed = 1;
nodes = (
"263 20 OFFCURVE",
"331 64 OFFCURVE",
"347 183 CURVE SMOOTH",
"362 284 OFFCURVE",
"338 310 OFFCURVE",
"261 341 CURVE SMOOTH",
"222 359 OFFCURVE",
"194 362 OFFCURVE",
"202 416 CURVE SMOOTH",
"206 443 OFFCURVE",
"211 465 OFFCURVE",
"226 465 CURVE SMOOTH",
"235 465 OFFCURVE",
"240 459 OFFCURVE",
"239 446 CURVE SMOOTH",
"238 433 OFFCURVE",
"236 415 OFFCURVE",
"233 390 CURVE SMOOTH",
"231 376 LINE",
"368 376 LINE",
"377 436 LINE SMOOTH",
"389 523 OFFCURVE",
"343 566 OFFCURVE",
"238 566 CURVE SMOOTH",
"119 566 OFFCURVE",
"74 527 OFFCURVE",
"58 411 CURVE SMOOTH",
"47 328 OFFCURVE",
"58 282 OFFCURVE",
"119 251 CURVE SMOOTH",
"180 221 OFFCURVE",
"205 210 OFFCURVE",
"197 151 CURVE SMOOTH",
"194 130 OFFCURVE",
"191 116 OFFCURVE",
"188 110 CURVE SMOOTH",
"185 104 OFFCURVE",
"180 101 OFFCURVE",
"173 101 CURVE SMOOTH",
"167 101 OFFCURVE",
"163 104 OFFCURVE",
"161 111 CURVE SMOOTH",
"159 118 OFFCURVE",
"160 133 OFFCURVE",
"163 158 CURVE SMOOTH",
"168 198 LINE",
"24 198 LINE",
"22 181 LINE SMOOTH",
"4 58 OFFCURVE",
"47 20 OFFCURVE",
"156 20 CURVE SMOOTH"
);
},
{
closed = 1;
nodes = (
"224 390 LINE SMOOTH",
"227 411 OFFCURVE",
"230 428 OFFCURVE",
"231 439 CURVE SMOOTH",
"232 450 OFFCURVE",
"230 456 OFFCURVE",
"225 456 CURVE SMOOTH",
"221 456 OFFCURVE",
"218 452 OFFCURVE",
"216 444 CURVE SMOOTH",
"213 436 OFFCURVE",
"211 427 OFFCURVE",
"210 416 CURVE SMOOTH",
"207 393 OFFCURVE",
"211 380 OFFCURVE",
"222 371 CURVE"
);
}
);
userData = {
assembly = "PUSHW[ ]	/* 4 values pushed */\012113 6 70 4 \012CALL[ ]	/* CallFunction */\012PUSHW[ ]	/* 3 values pushed */\01260 70 113 \012SRP1[ ]	/* SetRefPoint1 */\012SRP2[ ]	/* SetRefPoint2 */\012IP[ ]	/* InterpolatePts */\012PUSHW[ ]	/* 3 values pushed */\01280 70 113 \012SRP1[ ]	/* SetRefPoint1 */\012SRP2[ ]	/* SetRefPoint2 */\012IP[ ]	/* InterpolatePts */\012PUSHW[ ]	/* 1 value pushed */\012113 \012SRP0[ ]	/* SetRefPoint0 */\012PUSHW[ ]	/* 1 value pushed */\012144 \012MDRP[11100]	/* MoveDirectRelPt */\012SVTCA[0]	/* SetFreedomAndProjectionVectorToAxis */\012PUSHW[ ]	/* 4 values pushed */\01221 2 10 4 \012CALL[ ]	/* CallFunction */\012PUSHW[ ]	/* 4 values pushed */\01237 3 45 4 \012CALL[ ]	/* CallFunction */\012IUP[0]	/* InterpolateUntPts */\012IUP[1]	/* InterpolateUntPts */";
};
width = 387;
}
);
leftKerningGroup = S;
note = S;
rightKerningGroup = S;
unicode = 0053;
},
{
color = 8;
glyphname = Scedilla;
lastChange = "2021-12-06 09:28:39 +0000";
layers = (
{
anchors = (
{
name = bottom;
position = "{160, -253}";
},
{
name = top;
position = "{252, 591}";
}
);
background = {
components = (
{
name = S;
transform = "{1, 0, 0, 1, -9, 0}";
},
{
name = cedillacomb;
transform = "{1, 0, 0, 1, -62, 0}";
}
);
};
layerId = "6544E2DB-1912-401E-9B5B-A29F161A5995";
paths = (
{
closed = 1;
nodes = (
"101 593 OFFCURVE",
"52 548 OFFCURVE",
"34 422 CURVE SMOOTH",
"22 332 OFFCURVE",
"35 279 OFFCURVE",
"105 246 CURVE SMOOTH",
"181 211 OFFCURVE",
"208 211 OFFCURVE",
"199 147 CURVE SMOOTH",
"192 101 OFFCURVE",
"186 92 OFFCURVE",
"171 92 CURVE SMOOTH",
"157 92 OFFCURVE",
"152 101 OFFCURVE",
"159 155 CURVE SMOOTH",
"166 206 LINE",
"-1 206 LINE",
"-6 169 LINE SMOOTH",
"-23 41 OFFCURVE",
"21 1 OFFCURVE",
"125 -7 CURVE",
"91 -58 LINE",
"128 -80 LINE",
"131 -78 OFFCURVE",
"136 -74 OFFCURVE",
"144 -74 CURVE SMOOTH",
"154 -74 OFFCURVE",
"161 -79 OFFCURVE",
"159 -91 CURVE SMOOTH",
"157 -106 OFFCURVE",
"146 -115 OFFCURVE",
"129 -115 CURVE SMOOTH",
"113 -115 OFFCURVE",
"97 -107 OFFCURVE",
"90 -100 CURVE",
"64 -147 LINE",
"72 -153 OFFCURVE",
"98 -168 OFFCURVE",
"128 -168 CURVE SMOOTH",
"193 -168 OFFCURVE",
"237 -134 OFFCURVE",
"243 -94 CURVE SMOOTH",
"247 -64 OFFCURVE",
"230 -33 OFFCURVE",
"188 -33 CURVE SMOOTH",
"177 -33 OFFCURVE",
"168 -35 OFFCURVE",
"161 -37 CURVE",
"182 -8 LINE",
"278 -3 OFFCURVE",
"353 43 OFFCURVE",
"371 171 CURVE SMOOTH",
"388 290 OFFCURVE",
"354 313 OFFCURVE",
"270 345 CURVE SMOOTH",
"216 366 OFFCURVE",
"193 377 OFFCURVE",
"200 427 CURVE SMOOTH",
"204 456 OFFCURVE",
"209 467 OFFCURVE",
"226 467 CURVE SMOOTH",
"247 467 OFFCURVE",
"245 453 OFFCURVE",
"237 399 CURVE SMOOTH",
"233 373 LINE",
"392 373 LINE",
"403 449 LINE SMOOTH",
"417 546 OFFCURVE",
"361 593 OFFCURVE",
"241 593 CURVE SMOOTH"
);
}
);
width = 387;
}
);
leftKerningGroup = S;
leftMetricsKey = S;
rightKerningGroup = S;
rightMetricsKey = S;
unicode = 015E;
},
{
glyphname = Germandbls;
lastChange = "2021-12-06 09:01:27 +0000";
layers = (
{
layerId = "6544E2DB-1912-401E-9B5B-A29F161A5995";
paths = (
{
closed = 1;
nodes = (
"-6 1 OFFCURVE",
"-23 1 OFFCURVE",
"170 0 CURVE",
"240 0 LINE SMOOTH",
"347 0 OFFCURVE",
"414 39 OFFCURVE",
"429 151 CURVE SMOOTH",
"440 228 LINE SMOOTH",
"448 285 OFFCURVE",
"437 325 OFFCURVE",
"407 347 CURVE",
"437 372 OFFCURVE",
"451 407 OFFCURVE",
"457 450 CURVE SMOOTH",
"466 513 LINE SMOOTH",
"477 592 OFFCURVE",
"408 642 OFFCURVE",
"295 642 CURVE SMOOTH",
"162 642 OFFCURVE",
"74 621 OFFCURVE",
"54 497 CURVE",
"35 361 LINE",
"-17 1 LINE"
);
},
{
closed = 1;
nodes = (
"214 271 LINE",
"238 270 LINE",
"226 175 LINE",
"225 171 LINE SMOOTH",
"223 158 OFFCURVE",
"220 133 OFFCURVE",
"223 130 CURVE",
"194 130 LINE"
);
},
{
closed = 1;
nodes = (
"154 29 LINE",
"219 490 LINE SMOOTH",
"224 527 OFFCURVE",
"233 546 OFFCURVE",
"265 546 CURVE SMOOTH",
"304 546 OFFCURVE",
"301 520 OFFCURVE",
"295 476 CURVE SMOOTH",
"289 432 LINE SMOOTH",
"283 396 OFFCURVE",
"278 374 OFFCURVE",
"255 374 CURVE SMOOTH",
"231 374 LINE",
"221 300 LINE",
"251 298 LINE SMOOTH",
"254 298 OFFCURVE",
"256 297 OFFCURVE",
"258 295 CURVE SMOOTH",
"262 292 OFFCURVE",
"265 286 OFFCURVE",
"264 274 CURVE",
"252 175 LINE SMOOTH",
"248 152 OFFCURVE",
"243 102 OFFCURVE",
"220 102 CURVE SMOOTH",
"188 102 LINE",
"178 28 LINE",
"244 28 LINE SMOOTH",
"332 28 OFFCURVE",
"390 58 OFFCURVE",
"403 151 CURVE SMOOTH",
"414 228 LINE SMOOTH",
"425 305 OFFCURVE",
"387 341 OFFCURVE",
"331 341 CURVE",
"331 343 LINE",
"392 350 OFFCURVE",
"422 394 OFFCURVE",
"430 450 CURVE SMOOTH",
"439 513 LINE SMOOTH",
"448 576 OFFCURVE",
"388 614 OFFCURVE",
"291 614 CURVE SMOOTH",
"172 614 OFFCURVE",
"94 596 OFFCURVE",
"80 493 CURVE SMOOTH",
"77 470 LINE",
"66 389 LINE",
"15 29 LINE"
);
},
{
closed = 1;
nodes = (
"5 19 LINE",
"55 380 LINE",
"69 479 LINE",
"71 493 LINE SMOOTH",
"87 606 OFFCURVE",
"169 624 OFFCURVE",
"292 624 CURVE SMOOTH",
"396 624 OFFCURVE",
"457 581 OFFCURVE",
"448 513 CURVE SMOOTH",
"439 450 LINE SMOOTH",
"433 405 OFFCURVE",
"410 364 OFFCURVE",
"372 343 CURVE",
"410 328 OFFCURVE",
"432 292 OFFCURVE",
"423 228 CURVE SMOOTH",
"412 151 LINE SMOOTH",
"398 52 OFFCURVE",
"339 19 OFFCURVE",
"243 19 CURVE SMOOTH",
"168 19 LINE",
"181 111 LINE",
"222 111 LINE SMOOTH",
"235 111 OFFCURVE",
"239 150 OFFCURVE",
"242 171 CURVE SMOOTH",
"243 175 LINE",
"255 274 LINE SMOOTH",
"256 280 OFFCURVE",
"256 284 OFFCURVE",
"253 287 CURVE SMOOTH",
"252 288 OFFCURVE",
"251 289 OFFCURVE",
"250 289 CURVE SMOOTH",
"211 291 LINE",
"224 383 LINE",
"257 383 LINE SMOOTH",
"264 383 OFFCURVE",
"269 387 OFFCURVE",
"272 396 CURVE SMOOTH",
"275 405 OFFCURVE",
"277 417 OFFCURVE",
"280 432 CURVE SMOOTH",
"286 476 LINE SMOOTH",
"291 515 OFFCURVE",
"295 536 OFFCURVE",
"264 536 CURVE SMOOTH",
"239 536 OFFCURVE",
"232 521 OFFCURVE",
"228 490 CURVE SMOOTH",
"162 19 LINE"
);
},
{
closed = 1;
nodes = (
"245 490 LINE SMOOTH",
"247 509 OFFCURVE",
"253 518 OFFCURVE",
"262 518 CURVE SMOOTH",
"268 518 OFFCURVE",
"271 514 OFFCURVE",
"271 507 CURVE SMOOTH",
"271 500 OFFCURVE",
"269 489 OFFCURVE",
"268 476 CURVE SMOOTH",
"262 432 LINE SMOOTH",
"259 412 OFFCURVE",
"258 409 OFFCURVE",
"257 402 CURVE",
"232 402 LINE"
);
}
);
width = 454;
}
);
unicode = 1E9E;
},
{
glyphname = Schwa;
lastChange = "2021-12-06 09:01:27 +0000";
layers = (
{
layerId = "6544E2DB-1912-401E-9B5B-A29F161A5995";
paths = (
{
closed = 1;
nodes = (
"115 601 OFFCURVE",
"52 567 OFFCURVE",
"26 381 CURVE SMOOTH",
"-5 161 LINE SMOOTH",
"-23 33 OFFCURVE",
"35 -9 OFFCURVE",
"149 -9 CURVE SMOOTH",
"263 -9 OFFCURVE",
"334 33 OFFCURVE",
"352 161 CURVE SMOOTH",
"383 381 LINE SMOOTH",
"409 567 OFFCURVE",
"359 601 OFFCURVE",
"235 601 CURVE SMOOTH"
);
},
{
closed = 1;
nodes = (
"342 583 OFFCURVE",
"388 549 OFFCURVE",
"365 381 CURVE SMOOTH",
"334 161 LINE SMOOTH",
"318 47 OFFCURVE",
"255 13 OFFCURVE",
"152 13 CURVE SMOOTH",
"49 13 OFFCURVE",
"-4 47 OFFCURVE",
"12 161 CURVE SMOOTH",
"31 296 LINE",
"201 296 LINE",
"223 454 LINE SMOOTH",
"225 465 OFFCURVE",
"226 476 OFFCURVE",
"221 476 CURVE SMOOTH",
"216 476 OFFCURVE",
"214 465 OFFCURVE",
"212 454 CURVE SMOOTH",
"198 350 LINE",
"39 350 LINE",
"43 381 LINE SMOOTH",
"66 548 OFFCURVE",
"121 583 OFFCURVE",
"232 583 CURVE SMOOTH"
);
},
{
closed = 1;
nodes = (
"127 574 OFFCURVE",
"75 538 OFFCURVE",
"53 381 CURVE SMOOTH",
"50 359 LINE",
"191 359 LINE",
"204 454 LINE SMOOTH",
"206 469 OFFCURVE",
"209 485 OFFCURVE",
"222 485 CURVE SMOOTH",
"231 485 OFFCURVE",
"234 476 OFFCURVE",
"231 454 CURVE SMOOTH",
"208 287 LINE",
"39 287 LINE",
"21 161 LINE SMOOTH",
"6 55 OFFCURVE",
"56 23 OFFCURVE",
"154 23 CURVE SMOOTH",
"253 23 OFFCURVE",
"311 55 OFFCURVE",
"326 161 CURVE SMOOTH",
"357 381 LINE SMOOTH",
"379 538 OFFCURVE",
"336 574 OFFCURVE",
"231 574 CURVE SMOOTH"
);
},
{
closed = 1;
nodes = (
"186 128 LINE SMOOTH",
"183 113 OFFCURVE",
"176 108 OFFCURVE",
"167 108 CURVE SMOOTH",
"159 108 OFFCURVE",
"153 114 OFFCURVE",
"154 124 CURVE SMOOTH",
"167 216 LINE",
"198 216 LINE"
);
},
{
closed = 1;
nodes = (
"175 207 LINE",
"165 136 LINE SMOOTH",
"163 122 OFFCURVE",
"162 118 OFFCURVE",
"169 118 CURVE SMOOTH",
"175 118 OFFCURVE",
"176 122 OFFCURVE",
"178 136 CURVE SMOOTH",
"188 207 LINE"
);
}
);
width = 371;
}
);
rightKerningGroup = o;
unicode = 018F;
},
{
glyphname = T;
lastChange = "2021-12-06 09:01:27 +0000";
layers = (
{
anchors = (
{
name = bottom;
position = "{137, 0}";
},
{
name = center;
position = "{175, 296}";
},
{
name = top;
position = "{216, 591}";
}
);
layerId = "6544E2DB-1912-401E-9B5B-A29F161A5995";
paths = (
{
closed = 1;
nodes = (
"226 0 LINE",
"287 436 LINE",
"358 436 LINE",
"380 591 LINE",
"51 591 LINE",
"29 436 LINE",
"101 436 LINE",
"40 0 LINE"
);
},
{
closed = 1;
nodes = (
"120 454 LINE",
"48 454 LINE",
"65 573 LINE",
"361 573 LINE",
"344 454 LINE",
"272 454 LINE",
"211 18 LINE",
"59 18 LINE"
);
},
{
closed = 1;
nodes = (
"203 27 LINE",
"265 463 LINE",
"337 463 LINE",
"351 564 LINE",
"73 564 LINE",
"59 463 LINE",
"131 463 LINE",
"69 27 LINE"
);
}
);
userData = {
assembly = "SVTCA[0]	/* SetFreedomAndProjectionVectorToAxis */\012PUSHW[ ]	/* 1 value pushed */\0121 \012MDAP[1]	/* MoveDirectAbsPt */\012IUP[0]	/* InterpolateUntPts */\012IUP[1]	/* InterpolateUntPts */";
};
width = 335;
}
);
leftKerningGroup = T;
note = T;
rightKerningGroup = T;
unicode = 0054;
},
{
color = 8;
glyphname = Tbar;
lastChange = "2021-12-06 09:28:45 +0000";
layers = (
{
anchors = (
{
name = bottom;
position = "{133, 0}";
},
{
name = center;
position = "{187, 379}";
},
{
name = top;
position = "{216, 591}";
}
);
background = {
components = (
{
name = T;
transform = "{1, 0, 0, 1, -5, 0}";
},
{
name = hyphen;
transform = "{1.1366, 0, 0, 0.76327, 24, 160}";
}
);
};
layerId = "6544E2DB-1912-401E-9B5B-A29F161A5995";
paths = (
{
closed = 1;
nodes = (
"51 591 LINE",
"29 436 LINE",
"101 436 LINE",
"87 334 LINE",
"59 334 LINE",
"49 257 LINE",
"76 257 LINE",
"40 0 LINE",
"226 0 LINE",
"262 257 LINE",
"291 257 LINE",
"301 334 LINE",
"273 334 LINE",
"287 436 LINE",
"358 436 LINE",
"380 591 LINE"
);
}
);
width = 335;
}
);
leftKerningGroup = T;
leftMetricsKey = T;
rightKerningGroup = T;
rightMetricsKey = T;
unicode = 0166;
},
{
color = 8;
glyphname = Tcedilla;
lastChange = "2021-12-06 09:28:51 +0000";
layers = (
{
anchors = (
{
name = bottom;
position = "{134, -253}";
},
{
name = center;
position = "{187, 379}";
},
{
name = top;
position = "{216, 591}";
}
);
background = {
components = (
{
name = T;
transform = "{1, 0, 0, 1, -5, 0}";
},
{
name = cedillacomb;
transform = "{1, 0, 0, 1, -105, 0}";
}
);
};
layerId = "6544E2DB-1912-401E-9B5B-A29F161A5995";
paths = (
{
closed = 1;
nodes = (
"121 480 LINE",
"53 0 LINE",
"104 0 LINE",
"65 -58 LINE",
"102 -80 LINE",
"105 -78 OFFCURVE",
"110 -74 OFFCURVE",
"118 -74 CURVE SMOOTH",
"128 -74 OFFCURVE",
"135 -79 OFFCURVE",
"133 -91 CURVE SMOOTH",
"131 -106 OFFCURVE",
"120 -115 OFFCURVE",
"103 -115 CURVE SMOOTH",
"87 -115 OFFCURVE",
"71 -107 OFFCURVE",
"64 -100 CURVE",
"38 -147 LINE",
"46 -153 OFFCURVE",
"72 -168 OFFCURVE",
"102 -168 CURVE SMOOTH",
"167 -168 OFFCURVE",
"211 -134 OFFCURVE",
"217 -94 CURVE SMOOTH",
"221 -64 OFFCURVE",
"204 -33 OFFCURVE",
"162 -33 CURVE SMOOTH",
"151 -33 OFFCURVE",
"142 -35 OFFCURVE",
"135 -37 CURVE",
"161 0 LINE",
"212 0 LINE",
"280 480 LINE",
"365 480 LINE",
"381 591 LINE",
"52 591 LINE",
"36 480 LINE"
);
}
);
width = 336;
}
);
leftKerningGroup = T;
leftMetricsKey = T;
rightKerningGroup = T;
rightMetricsKey = T;
unicode = 0162;
},
{
glyphname = U;
lastChange = "2021-12-06 09:15:41 +0000";
layers = (
{
anchors = (
{
name = bottom;
position = "{154, 0}";
},
{
name = ogonek;
position = "{317, 10}";
},
{
name = top;
position = "{237, 591}";
},
{
name = topright;
position = "{418, 591}";
}
);
layerId = "6544E2DB-1912-401E-9B5B-A29F161A5995";
paths = (
{
closed = 1;
nodes = (
"271 -11 OFFCURVE",
"332 19 OFFCURVE",
"354 176 CURVE SMOOTH",
"413 592 LINE",
"61 592 LINE",
"2 176 LINE SMOOTH",
"-22 20 OFFCURVE",
"31 -11 OFFCURVE",
"152 -11 CURVE SMOOTH"
);
},
{
closed = 1;
nodes = (
"46 7 OFFCURVE",
"-2 35 OFFCURVE",
"19 176 CURVE SMOOTH",
"75 574 LINE",
"228 574 LINE",
"166 132 LINE SMOOTH",
"165 125 OFFCURVE",
"165 120 OFFCURVE",
"166 118 CURVE SMOOTH",
"167 115 OFFCURVE",
"169 114 OFFCURVE",
"170 114 CURVE SMOOTH",
"172 114 OFFCURVE",
"174 115 OFFCURVE",
"175 118 CURVE SMOOTH",
"176 120 OFFCURVE",
"177 125 OFFCURVE",
"178 132 CURVE SMOOTH",
"240 574 LINE",
"393 574 LINE",
"337 176 LINE SMOOTH",
"317 35 OFFCURVE",
"264 7 OFFCURVE",
"154 7 CURVE SMOOTH"
);
},
{
closed = 1;
nodes = (
"260 16 OFFCURVE",
"309 42 OFFCURVE",
"329 176 CURVE SMOOTH",
"384 565 LINE",
"248 565 LINE",
"187 132 LINE SMOOTH",
"184 111 OFFCURVE",
"177 105 OFFCURVE",
"168 105 CURVE SMOOTH",
"164 105 OFFCURVE",
"161 107 OFFCURVE",
"159 111 CURVE SMOOTH",
"157 114 OFFCURVE",
"157 121 OFFCURVE",
"158 132 CURVE SMOOTH",
"219 565 LINE",
"83 565 LINE",
"28 176 LINE SMOOTH",
"8 42 OFFCURVE",
"54 16 OFFCURVE",
"156 16 CURVE SMOOTH"
);
}
);
width = 377;
}
);
leftKerningGroup = U;
leftMetricsKey = "=O+5";
note = U;
rightKerningGroup = U;
rightMetricsKey = "=O+5";
unicode = 0055;
},
{
color = 8;
glyphname = Uhorn;
lastChange = "2021-12-06 09:29:07 +0000";
layers = (
{
anchors = (
{
name = bottom;
position = "{153, 0}";
},
{
name = ogonek;
position = "{214, 0}";
},
{
name = top;
position = "{236, 591}";
},
{
name = topright;
position = "{475, 658}";
}
);
background = {
components = (
{
name = horncomb;
transform = "{1, 0, 0, 1, 277, 119}";
},
{
name = U;
transform = "{1, 0, 0, 1, -13, 0}";
}
);
};
layerId = "6544E2DB-1912-401E-9B5B-A29F161A5995";
paths = (
{
closed = 1;
nodes = (
"347 608 OFFCURVE",
"332 591 OFFCURVE",
"303 591 CURVE SMOOTH",
"253 591 LINE",
"186 115 LINE SMOOTH",
"183 92 OFFCURVE",
"175 85 OFFCURVE",
"165 85 CURVE SMOOTH",
"155 85 OFFCURVE",
"149 92 OFFCURVE",
"152 115 CURVE SMOOTH",
"219 591 LINE",
"60 591 LINE",
"0 163 LINE SMOOTH",
"-22 4 OFFCURVE",
"46 -12 OFFCURVE",
"152 -12 CURVE SMOOTH",
"258 -12 OFFCURVE",
"330 4 OFFCURVE",
"352 164 CURVE SMOOTH",
"407 555 LINE",
"432 573 OFFCURVE",
"447 600 OFFCURVE",
"452 638 CURVE SMOOTH",
"454 658 LINE",
"354 658 LINE",
"352 638 LINE SMOOTH"
);
}
);
width = 409;
}
);
leftKerningGroup = U;
leftMetricsKey = U;
rightKerningGroup = U;
rightMetricsKey = U;
unicode = 01AF;
},
{
color = 8;
glyphname = Uogonek;
lastChange = "2021-12-06 09:29:00 +0000";
layers = (
{
anchors = (
{
name = bottom;
position = "{153, 0}";
},
{
name = ogonek;
position = "{214, 0}";
},
{
name = top;
position = "{236, 591}";
},
{
name = topright;
position = "{282, 591}";
}
);
background = {
components = (
{
name = U;
transform = "{1, 0, 0, 1, -13, 0}";
},
{
name = ogonek;
transform = "{1, 0, 0, 1, -90, -9}";
}
);
};
layerId = "6544E2DB-1912-401E-9B5B-A29F161A5995";
paths = (
{
closed = 1;
nodes = (
"183 92 OFFCURVE",
"175 85 OFFCURVE",
"165 85 CURVE SMOOTH",
"155 85 OFFCURVE",
"149 92 OFFCURVE",
"152 115 CURVE SMOOTH",
"219 591 LINE",
"60 591 LINE",
"0 163 LINE SMOOTH",
"-19 25 OFFCURVE",
"29 -5 OFFCURVE",
"112 -11 CURVE",
"79 -27 OFFCURVE",
"58 -57 OFFCURVE",
"54 -83 CURVE SMOOTH",
"49 -117 OFFCURVE",
"79 -151 OFFCURVE",
"137 -151 CURVE SMOOTH",
"187 -151 OFFCURVE",
"209 -137 OFFCURVE",
"217 -133 CURVE",
"205 -96 LINE",
"202 -96 OFFCURVE",
"196 -99 OFFCURVE",
"187 -99 CURVE SMOOTH",
"171 -99 OFFCURVE",
"152 -85 OFFCURVE",
"155 -61 CURVE SMOOTH",
"157 -45 OFFCURVE",
"168 -24 OFFCURVE",
"189 -11 CURVE",
"275 -6 OFFCURVE",
"333 23 OFFCURVE",
"352 164 CURVE SMOOTH",
"412 591 LINE",
"253 591 LINE",
"186 115 LINE SMOOTH"
);
}
);
width = 376;
}
);
leftKerningGroup = U;
leftMetricsKey = U;
rightKerningGroup = U;
rightMetricsKey = U;
unicode = 0172;
},
{
glyphname = V;
lastChange = "2021-12-06 09:01:27 +0000";
layers = (
{
layerId = "6544E2DB-1912-401E-9B5B-A29F161A5995";
paths = (
{
closed = 1;
nodes = (
"296 0 LINE",
"463 591 LINE",
"271 591 LINE",
"242 473 LINE",
"250 591 LINE",
"51 591 LINE",
"51 0 LINE"
);
},
{
closed = 1;
nodes = (
"68 573 LINE",
"230 573 LINE",
"214 275 LINE",
"283 573 LINE",
"440 573 LINE",
"283 18 LINE",
"68 18 LINE"
);
},
{
closed = 1;
nodes = (
"276 27 LINE",
"429 564 LINE",
"290 564 LINE",
"202 192 LINE",
"198 170 LINE",
"200 192 LINE",
"221 564 LINE",
"78 564 LINE",
"77 27 LINE"
);
}
);
userData = {
assembly = "SVTCA[0]	/* SetFreedomAndProjectionVectorToAxis */\012PUSHW[ ]	/* 1 value pushed */\0122 \012MDAP[1]	/* MoveDirectAbsPt */\012IUP[0]	/* InterpolateUntPts */\012IUP[1]	/* InterpolateUntPts */";
};
width = 418;
}
);
leftKerningGroup = V;
note = V;
rightKerningGroup = V;
unicode = 0056;
},
{
glyphname = W;
lastChange = "2021-12-07 16:22:09 +0000";
layers = (
{
anchors = (
{
name = bottom;
position = "{283, 0}";
},
{
name = top;
position = "{366, 591}";
}
);
layerId = "6544E2DB-1912-401E-9B5B-A29F161A5995";
paths = (
{
closed = 1;
nodes = (
"271 0 LINE",
"292 76 LINE",
"294 0 LINE",
"511 0 LINE",
"681 591 LINE",
"474 591 LINE",
"470 575 OFFCURVE",
"465 556 OFFCURVE",
"460 535 CURVE SMOOTH",
"445 476 LINE",
"451 591 LINE",
"279 591 LINE",
"253 483 LINE",
"258 591 LINE",
"51 591 LINE",
"54 0 LINE"
);
},
{
closed = 1;
nodes = (
"69 573 LINE",
"238 573 LINE",
"228 304 LINE",
"262 440 LINE SMOOTH",
"273 485 OFFCURVE",
"284 529 OFFCURVE",
"294 573 CURVE",
"431 573 LINE",
"420 304 LINE",
"431 349 OFFCURVE",
"443 395 OFFCURVE",
"454 440 CURVE SMOOTH",
"487 573 LINE",
"657 573 LINE",
"498 18 LINE",
"312 18 LINE",
"310 198 LINE",
"284 107 LINE SMOOTH",
"275 77 OFFCURVE",
"266 47 OFFCURVE",
"258 18 CURVE",
"72 18 LINE"
);
},
{
closed = 1;
nodes = (
"251 27 LINE",
"318 261 LINE",
"321 27 LINE",
"490 27 LINE",
"645 564 LINE",
"494 564 LINE",
"407 209 LINE",
"422 564 LINE",
"301 564 LINE",
"216 209 LINE",
"229 564 LINE",
"78 564 LINE",
"81 27 LINE"
);
}
);
userData = {
assembly = "SVTCA[0]	/* SetFreedomAndProjectionVectorToAxis */\012PUSHW[ ]	/* 1 value pushed */\0123 \012MDAP[1]	/* MoveDirectAbsPt */\012PUSHW[ ]	/* 1 value pushed */\0126 \012MDAP[1]	/* MoveDirectAbsPt */\012IUP[0]	/* InterpolateUntPts */\012IUP[1]	/* InterpolateUntPts */";
};
width = 636;
}
);
leftKerningGroup = W;
note = W;
rightKerningGroup = W;
unicode = 0057;
},
{
glyphname = X;
lastChange = "2021-12-06 09:01:27 +0000";
layers = (
{
layerId = "6544E2DB-1912-401E-9B5B-A29F161A5995";
paths = (
{
closed = 1;
nodes = (
"169 0 LINE",
"170 5 OFFCURVE",
"172 11 OFFCURVE",
"174 16 CURVE SMOOTH",
"176 21 OFFCURVE",
"178 27 OFFCURVE",
"179 33 CURVE",
"181 0 LINE",
"373 0 LINE",
"344 305 LINE",
"459 591 LINE",
"256 591 LINE",
"250 575 LINE SMOOTH",
"248 570 OFFCURVE",
"246 564 OFFCURVE",
"245 558 CURVE",
"243 591 LINE",
"50 591 LINE",
"68 449 LINE SMOOTH",
"72 407 OFFCURVE",
"82 341 OFFCURVE",
"86 306 CURVE",
"-34 0 LINE"
);
},
{
closed = 1;
nodes = (
"104 306 LINE",
"70 573 LINE",
"227 573 LINE",
"235 471 LINE",
"246 506 OFFCURVE",
"257 540 OFFCURVE",
"268 573 CURVE",
"433 573 LINE",
"328 306 LINE",
"354 18 LINE",
"197 18 LINE",
"189 120 LINE",
"157 18 LINE",
"-9 18 LINE"
);
},
{
closed = 1;
nodes = (
"150 27 LINE",
"195 167 LINE",
"205 27 LINE",
"343 27 LINE",
"318 306 LINE",
"421 564 LINE",
"274 564 LINE",
"229 423 LINE",
"219 564 LINE",
"81 564 LINE",
"113 306 LINE",
"3 27 LINE"
);
}
);
userData = {
assembly = "SVTCA[0]	/* SetFreedomAndProjectionVectorToAxis */\012PUSHW[ ]	/* 1 value pushed */\0121 \012MDAP[1]	/* MoveDirectAbsPt */\012PUSHW[ ]	/* 1 value pushed */\01210 \012MDAP[1]	/* MoveDirectAbsPt */\012PUSHW[ ]	/* 1 value pushed */\01227 \012MDAP[1]	/* MoveDirectAbsPt */\012PUSHW[ ]	/* 1 value pushed */\0124 \012MDAP[1]	/* MoveDirectAbsPt */\012PUSHW[ ]	/* 1 value pushed */\0127 \012MDAP[1]	/* MoveDirectAbsPt */\012PUSHW[ ]	/* 1 value pushed */\01239 \012MDAP[1]	/* MoveDirectAbsPt */\012PUSHW[ ]	/* 3 values pushed */\0120 1 4 \012SRP1[ ]	/* SetRefPoint1 */\012SRP2[ ]	/* SetRefPoint2 */\012IP[ ]	/* InterpolatePts */\012PUSHW[ ]	/* 3 values pushed */\0126 1 4 \012SRP1[ ]	/* SetRefPoint1 */\012SRP2[ ]	/* SetRefPoint2 */\012IP[ ]	/* InterpolatePts */\012PUSHW[ ]	/* 3 values pushed */\01218 1 4 \012SRP1[ ]	/* SetRefPoint1 */\012SRP2[ ]	/* SetRefPoint2 */\012IP[ ]	/* InterpolatePts */\012PUSHW[ ]	/* 3 values pushed */\01226 1 4 \012SRP1[ ]	/* SetRefPoint1 */\012SRP2[ ]	/* SetRefPoint2 */\012IP[ ]	/* InterpolatePts */\012IUP[0]	/* InterpolateUntPts */\012IUP[1]	/* InterpolateUntPts */";
};
width = 412;
}
);
leftKerningGroup = X;
note = X;
rightKerningGroup = X;
unicode = 0058;
},
{
glyphname = Y;
lastChange = "2021-12-06 09:01:27 +0000";
layers = (
{
anchors = (
{
name = bottom;
position = "{169, 0}";
},
{
name = top;
position = "{257, 591}";
},
{
name = topleft;
position = "{65, 591}";
}
);
layerId = "6544E2DB-1912-401E-9B5B-A29F161A5995";
paths = (
{
closed = 1;
nodes = (
"262 0 LINE",
"295 236 LINE",
"454 591 LINE",
"273 591 LINE",
"248 527 LINE",
"241 591 LINE",
"49 591 LINE",
"107 244 LINE",
"73 0 LINE"
);
},
{
closed = 1;
nodes = (
"124 247 LINE",
"70 573 LINE",
"225 573 LINE",
"238 456 LINE",
"283 573 LINE",
"427 573 LINE",
"278 239 LINE",
"247 18 LINE",
"92 18 LINE"
);
},
{
closed = 1;
nodes = (
"239 27 LINE",
"269 241 LINE",
"414 564 LINE",
"289 564 LINE",
"245 451 LINE",
"230 404 LINE",
"229 451 LINE",
"217 564 LINE",
"82 564 LINE",
"134 250 LINE",
"102 27 LINE"
);
}
);
userData = {
assembly = "SVTCA[0]	/* SetFreedomAndProjectionVectorToAxis */\012PUSHW[ ]	/* 1 value pushed */\0122 \012MDAP[1]	/* MoveDirectAbsPt */\012IUP[0]	/* InterpolateUntPts */\012IUP[1]	/* InterpolateUntPts */";
};
width = 407;
}
);
leftKerningGroup = Y;
note = Y;
rightKerningGroup = Y;
unicode = 0059;
},
{
glyphname = Z;
lastChange = "2021-12-06 09:01:27 +0000";
layers = (
{
anchors = (
{
name = bottom;
position = "{109, 0}";
},
{
name = center;
position = "{160, 296}";
},
{
name = top;
position = "{195, 591}";
}
);
layerId = "6544E2DB-1912-401E-9B5B-A29F161A5995";
paths = (
{
closed = 1;
nodes = (
"256 0 LINE",
"277 155 LINE",
"190 155 LINE",
"325 492 LINE",
"339 591 LINE",
"60 591 LINE",
"38 436 LINE",
"110 436 LINE",
"-17 120 LINE",
"-33 0 LINE"
);
},
{
closed = 1;
nodes = (
"1 119 LINE",
"134 454 LINE",
"56 454 LINE",
"73 573 LINE",
"320 573 LINE",
"309 493 LINE",
"166 137 LINE",
"259 137 LINE",
"242 18 LINE",
"-14 18 LINE"
);
},
{
closed = 1;
nodes = (
"234 27 LINE",
"248 128 LINE",
"153 128 LINE",
"300 496 LINE",
"310 564 LINE",
"80 564 LINE",
"66 463 LINE",
"147 463 LINE",
"9 116 LINE",
"-5 27 LINE"
);
}
);
userData = {
assembly = "PUSHW[ ]	/* 4 values pushed */\0129 5 20 4 \012CALL[ ]	/* CallFunction */\012PUSHW[ ]	/* 3 values pushed */\0122 20 9 \012SRP1[ ]	/* SetRefPoint1 */\012SRP2[ ]	/* SetRefPoint2 */\012IP[ ]	/* InterpolatePts */\012PUSHW[ ]	/* 3 values pushed */\0127 20 9 \012SRP1[ ]	/* SetRefPoint1 */\012SRP2[ ]	/* SetRefPoint2 */\012IP[ ]	/* InterpolatePts */\012PUSHW[ ]	/* 3 values pushed */\01212 20 9 \012SRP1[ ]	/* SetRefPoint1 */\012SRP2[ ]	/* SetRefPoint2 */\012IP[ ]	/* InterpolatePts */\012PUSHW[ ]	/* 3 values pushed */\01217 20 9 \012SRP1[ ]	/* SetRefPoint1 */\012SRP2[ ]	/* SetRefPoint2 */\012IP[ ]	/* InterpolatePts */\012PUSHW[ ]	/* 1 value pushed */\0129 \012SRP0[ ]	/* SetRefPoint0 */\012PUSHW[ ]	/* 2 values pushed */\01219 5 \012MIRP[10100]	/* MoveIndirectRelPt */\012PUSHW[ ]	/* 1 value pushed */\01221 \012MDRP[10000]	/* MoveDirectRelPt */\012PUSHW[ ]	/* 1 value pushed */\01221 \012MDAP[1]	/* MoveDirectAbsPt */\012PUSHW[ ]	/* 3 values pushed */\01222 20 9 \012SRP1[ ]	/* SetRefPoint1 */\012SRP2[ ]	/* SetRefPoint2 */\012IP[ ]	/* InterpolatePts */\012PUSHW[ ]	/* 3 values pushed */\01227 20 9 \012SRP1[ ]	/* SetRefPoint1 */\012SRP2[ ]	/* SetRefPoint2 */\012IP[ ]	/* InterpolatePts */\012SVTCA[0]	/* SetFreedomAndProjectionVectorToAxis */\012PUSHW[ ]	/* 4 values pushed */\0127 3 9 4 \012CALL[ ]	/* CallFunction */\012IUP[0]	/* InterpolateUntPts */\012IUP[1]	/* InterpolateUntPts */";
};
width = 297;
}
);
leftKerningGroup = Z;
note = Z;
rightKerningGroup = Z;
unicode = 005A;
},
{
color = 4;
glyphname = A.ss01;
lastChange = "2021-12-07 22:57:43 +0000";
layers = (
{
anchors = (
{
name = bottom;
position = "{187, 0}";
},
{
name = ogonek;
position = "{364, 0}";
},
{
name = top;
position = "{257, 495}";
}
);
layerId = "6544E2DB-1912-401E-9B5B-A29F161A5995";
paths = (
{
closed = 1;
nodes = (
"364 0 LINE",
"366 496 LINE",
"154 496 LINE",
"16 0 LINE"
);
},
{
closed = 1;
nodes = (
"214 158 LINE",
"219 228 LINE",
"205 158 LINE"
);
},
{
closed = 1;
nodes = (
"167 478 LINE",
"349 478 LINE",
"346 18 LINE",
"200 18 LINE",
"204 82 LINE",
"194 82 LINE",
"181 18 LINE",
"38 18 LINE"
);
},
{
closed = 1;
nodes = (
"173 27 LINE",
"187 91 LINE",
"213 91 LINE",
"209 27 LINE",
"337 27 LINE",
"340 469 LINE",
"172 469 LINE",
"49 27 LINE"
);
},
{
closed = 1;
nodes = (
"240 376 LINE",
"221 149 LINE",
"195 149 LINE"
);
}
);
userData = {
assembly = "PUSHW[ ]	/* 4 values pushed */\01226 6 24 4 \012CALL[ ]	/* CallFunction */\012PUSHW[ ]	/* 1 value pushed */\01226 \012SRP0[ ]	/* SetRefPoint0 */\012PUSHW[ ]	/* 1 value pushed */\0120 \012MDRP[10000]	/* MoveDirectRelPt */\012PUSHW[ ]	/* 1 value pushed */\0120 \012MDAP[1]	/* MoveDirectAbsPt */\012PUSHW[ ]	/* 1 value pushed */\01224 \012SRP0[ ]	/* SetRefPoint0 */\012PUSHW[ ]	/* 2 values pushed */\0121 6 \012MIRP[10100]	/* MoveIndirectRelPt */\012PUSHW[ ]	/* 1 value pushed */\01224 \012SRP0[ ]	/* SetRefPoint0 */\012PUSHW[ ]	/* 1 value pushed */\0122 \012MDRP[10000]	/* MoveDirectRelPt */\012PUSHW[ ]	/* 1 value pushed */\0122 \012MDAP[1]	/* MoveDirectAbsPt */\012PUSHW[ ]	/* 1 value pushed */\01226 \012SRP0[ ]	/* SetRefPoint0 */\012PUSHW[ ]	/* 2 values pushed */\01211 6 \012MIRP[10100]	/* MoveIndirectRelPt */\012PUSHW[ ]	/* 1 value pushed */\0123 \012MDRP[10000]	/* MoveDirectRelPt */\012PUSHW[ ]	/* 1 value pushed */\0123 \012MDAP[1]	/* MoveDirectAbsPt */\012PUSHW[ ]	/* 1 value pushed */\01211 \012SRP0[ ]	/* SetRefPoint0 */\012PUSHW[ ]	/* 1 value pushed */\0129 \012MDRP[10000]	/* MoveDirectRelPt */\012PUSHW[ ]	/* 1 value pushed */\0129 \012MDAP[1]	/* MoveDirectAbsPt */\012PUSHW[ ]	/* 3 values pushed */\01210 24 26 \012SRP1[ ]	/* SetRefPoint1 */\012SRP2[ ]	/* SetRefPoint2 */\012IP[ ]	/* InterpolatePts */\012PUSHW[ ]	/* 1 value pushed */\01211 \012SRP0[ ]	/* SetRefPoint0 */\012PUSHW[ ]	/* 1 value pushed */\01216 \012MDRP[10000]	/* MoveDirectRelPt */\012PUSHW[ ]	/* 1 value pushed */\01216 \012MDAP[1]	/* MoveDirectAbsPt */\012PUSHW[ ]	/* 1 value pushed */\01224 \012SRP0[ ]	/* SetRefPoint0 */\012PUSHW[ ]	/* 1 value pushed */\01217 \012MDRP[10000]	/* MoveDirectRelPt */\012PUSHW[ ]	/* 1 value pushed */\01217 \012MDAP[1]	/* MoveDirectAbsPt */\012PUSHW[ ]	/* 1 value pushed */\01224 \012SRP0[ ]	/* SetRefPoint0 */\012PUSHW[ ]	/* 2 values pushed */\01229 5 \012MIRP[10100]	/* MoveIndirectRelPt */\012SVTCA[0]	/* SetFreedomAndProjectionVectorToAxis */\012PUSHW[ ]	/* 1 value pushed */\0120 \012RCVT[ ]	/* ReadCVT */\012IF[ ]	/* If */\012PUSHW[ ]	/* 1 value pushed */\01228 \012MDAP[1]	/* MoveDirectAbsPt */\012ELSE[ ]	/* Else */\012PUSHW[ ]	/* 2 values pushed */\01228 11 \012MIAP[0]	/* MoveIndirectAbsPt */\012EIF[ ]	/* EndIf */\012PUSHW[ ]	/* 1 value pushed */\0120 \012RCVT[ ]	/* ReadCVT */\012IF[ ]	/* If */\012PUSHW[ ]	/* 1 value pushed */\01229 \012MDAP[1]	/* MoveDirectAbsPt */\012ELSE[ ]	/* Else */\012PUSHW[ ]	/* 2 values pushed */\01229 7 \012MIAP[0]	/* MoveIndirectAbsPt */\012EIF[ ]	/* EndIf */\012PUSHW[ ]	/* 3 values pushed */\0126 29 28 \012SRP1[ ]	/* SetRefPoint1 */\012SRP2[ ]	/* SetRefPoint2 */\012IP[ ]	/* InterpolatePts */\012PUSHW[ ]	/* 3 values pushed */\01210 29 28 \012SRP1[ ]	/* SetRefPoint1 */\012SRP2[ ]	/* SetRefPoint2 */\012IP[ ]	/* InterpolatePts */\012PUSHW[ ]	/* 3 values pushed */\01211 29 28 \012SRP1[ ]	/* SetRefPoint1 */\012SRP2[ ]	/* SetRefPoint2 */\012IP[ ]	/* InterpolatePts */\012PUSHW[ ]	/* 3 values pushed */\01219 29 28 \012SRP1[ ]	/* SetRefPoint1 */\012SRP2[ ]	/* SetRefPoint2 */\012IP[ ]	/* InterpolatePts */\012IUP[0]	/* InterpolateUntPts */\012IUP[1]	/* InterpolateUntPts */";
};
width = 450;
}
);
note = A.tabular;
},
{
color = 4;
glyphname = AE.ss01;
lastChange = "2021-12-07 22:57:43 +0000";
layers = (
{
layerId = "6544E2DB-1912-401E-9B5B-A29F161A5995";
paths = (
{
closed = 1;
nodes = (
"401 0 LINE",
"419 135 LINE",
"325 135 LINE",
"326 145 OFFCURVE",
"326 153 OFFCURVE",
"326 160 CURVE SMOOTH",
"325 180 LINE",
"419 180 LINE",
"439 327 LINE",
"326 327 LINE",
"327 334 OFFCURVE",
"327 341 OFFCURVE",
"327 346 CURVE SMOOTH",
"326 360 LINE",
"451 360 LINE",
"470 496 LINE",
"107 496 LINE",
"-32 0 LINE"
);
},
{
closed = 1;
nodes = (
"171 158 LINE",
"176 230 LINE",
"162 158 LINE"
);
},
{
closed = 1;
nodes = (
"193 357 LINE",
"196 376 LINE",
"195 357 LINE",
"177 149 LINE",
"151 149 LINE"
);
},
{
closed = 1;
nodes = (
"120 478 LINE",
"451 478 LINE",
"436 377 LINE",
"307 377 LINE",
"307 366 OFFCURVE",
"307 355 OFFCURVE",
"308 344 CURVE SMOOTH",
"309 333 OFFCURVE",
"309 322 OFFCURVE",
"308 310 CURVE",
"420 310 LINE",
"404 198 LINE",
"307 198 LINE",
"307 184 OFFCURVE",
"307 171 OFFCURVE",
"308 158 CURVE SMOOTH",
"308 117 LINE",
"400 117 LINE",
"386 18 LINE",
"158 18 LINE",
"160 82 LINE",
"150 82 LINE",
"148 72 OFFCURVE",
"146 61 OFFCURVE",
"143 50 CURVE SMOOTH",
"136 18 LINE",
"-10 18 LINE"
);
},
{
closed = 1;
nodes = (
"129 27 LINE",
"142 91 LINE",
"169 91 LINE",
"166 27 LINE",
"378 27 LINE",
"390 108 LINE",
"299 108 LINE",
"299 207 LINE",
"397 207 LINE",
"410 301 LINE",
"299 301 LINE",
"299 386 LINE",
"429 386 LINE",
"440 469 LINE",
"126 469 LINE",
"1 27 LINE"
);
}
);
userData = {
assembly = "SVTCA[0]	/* SetFreedomAndProjectionVectorToAxis */\012PUSHW[ ]	/* 1 value pushed */\0120 \012RCVT[ ]	/* ReadCVT */\012IF[ ]	/* If */\012PUSHW[ ]	/* 1 value pushed */\01246 \012MDAP[1]	/* MoveDirectAbsPt */\012ELSE[ ]	/* Else */\012PUSHW[ ]	/* 2 values pushed */\01246 11 \012MIAP[0]	/* MoveIndirectAbsPt */\012EIF[ ]	/* EndIf */\012PUSHW[ ]	/* 1 value pushed */\0120 \012RCVT[ ]	/* ReadCVT */\012IF[ ]	/* If */\012PUSHW[ ]	/* 1 value pushed */\01260 \012MDAP[1]	/* MoveDirectAbsPt */\012ELSE[ ]	/* Else */\012PUSHW[ ]	/* 2 values pushed */\01260 7 \012MIAP[0]	/* MoveIndirectAbsPt */\012EIF[ ]	/* EndIf */\012PUSHW[ ]	/* 4 values pushed */\01258 4 14 4 \012CALL[ ]	/* CallFunction */\012PUSHW[ ]	/* 4 values pushed */\01231 2 26 4 \012CALL[ ]	/* CallFunction */\012PUSHW[ ]	/* 4 values pushed */\0129 4 54 4 \012CALL[ ]	/* CallFunction */\012PUSHW[ ]	/* 4 values pushed */\01237 2 32 4 \012CALL[ ]	/* CallFunction */\012PUSHW[ ]	/* 1 value pushed */\01214 \012SRP0[ ]	/* SetRefPoint0 */\012PUSHW[ ]	/* 1 value pushed */\0122 \012MDRP[10000]	/* MoveDirectRelPt */\012PUSHW[ ]	/* 1 value pushed */\01260 \012SRP0[ ]	/* SetRefPoint0 */\012PUSHW[ ]	/* 2 values pushed */\01212 4 \012MIRP[10100]	/* MoveIndirectRelPt */\012PUSHW[ ]	/* 3 values pushed */\0123 60 12 \012SRP1[ ]	/* SetRefPoint1 */\012SRP2[ ]	/* SetRefPoint2 */\012IP[ ]	/* InterpolatePts */\012PUSHW[ ]	/* 1 value pushed */\01246 \012SRP0[ ]	/* SetRefPoint0 */\012PUSHW[ ]	/* 2 values pushed */\0126 4 \012MIRP[10100]	/* MoveIndirectRelPt */\012PUSHW[ ]	/* 2 values pushed */\0125 2 \012MIRP[10100]	/* MoveIndirectRelPt */\012PUSHW[ ]	/* 1 value pushed */\0129 \012SRP0[ ]	/* SetRefPoint0 */\012PUSHW[ ]	/* 2 values pushed */\01210 1 \012MIRP[10100]	/* MoveIndirectRelPt */\012PUSHW[ ]	/* 1 value pushed */\0125 \012SRP0[ ]	/* SetRefPoint0 */\012PUSHW[ ]	/* 2 values pushed */\01248 4 \012MIRP[10100]	/* MoveIndirectRelPt */\012PUSHW[ ]	/* 3 values pushed */\01219 5 48 \012SRP1[ ]	/* SetRefPoint1 */\012SRP2[ ]	/* SetRefPoint2 */\012IP[ ]	/* InterpolatePts */\012PUSHW[ ]	/* 3 values pushed */\01223 54 9 \012SRP1[ ]	/* SetRefPoint1 */\012SRP2[ ]	/* SetRefPoint2 */\012IP[ ]	/* InterpolatePts */\012PUSHW[ ]	/* 3 values pushed */\01240 60 12 \012SRP1[ ]	/* SetRefPoint1 */\012SRP2[ ]	/* SetRefPoint2 */\012IP[ ]	/* InterpolatePts */\012PUSHW[ ]	/* 1 value pushed */\01210 \012SRP0[ ]	/* SetRefPoint0 */\012PUSHW[ ]	/* 2 values pushed */\01253 4 \012MIRP[10100]	/* MoveIndirectRelPt */\012IUP[0]	/* InterpolateUntPts */\012IUP[1]	/* InterpolateUntPts */";
};
width = 450;
}
);
note = AE.tabular;
},
{
color = 4;
glyphname = B.ss01;
lastChange = "2021-12-07 22:57:43 +0000";
layers = (
{
layerId = "6544E2DB-1912-401E-9B5B-A29F161A5995";
paths = (
{
closed = 1;
nodes = (
"220 0 LINE SMOOTH",
"301 0 OFFCURVE",
"354 29 OFFCURVE",
"366 120 CURVE SMOOTH",
"375 178 LINE SMOOTH",
"380 218 OFFCURVE",
"370 250 OFFCURVE",
"353 269 CURVE",
"372 288 OFFCURVE",
"384 317 OFFCURVE",
"388 346 CURVE SMOOTH",
"395 394 LINE SMOOTH",
"403 453 OFFCURVE",
"375 496 OFFCURVE",
"296 496 CURVE SMOOTH",
"107 496 LINE",
"38 0 LINE"
);
},
{
closed = 1;
nodes = (
"209 213 LINE",
"220 213 LINE SMOOTH",
"226 213 OFFCURVE",
"229 207 OFFCURVE",
"229 195 CURVE SMOOTH",
"228 183 OFFCURVE",
"227 168 OFFCURVE",
"224 151 CURVE SMOOTH",
"221 133 OFFCURVE",
"219 118 OFFCURVE",
"216 106 CURVE SMOOTH",
"213 93 OFFCURVE",
"208 87 OFFCURVE",
"203 87 CURVE SMOOTH",
"192 87 LINE"
);
},
{
closed = 1;
nodes = (
"204 96 LINE SMOOTH",
"205 96 OFFCURVE",
"207 101 OFFCURVE",
"209 112 CURVE SMOOTH",
"211 123 OFFCURVE",
"213 136 OFFCURVE",
"216 151 CURVE SMOOTH",
"221 189 LINE SMOOTH",
"222 199 OFFCURVE",
"221 204 OFFCURVE",
"219 204 CURVE SMOOTH",
"216 204 LINE",
"201 96 LINE"
);
},
{
closed = 1;
nodes = (
"122 478 LINE",
"294 478 LINE SMOOTH",
"362 478 OFFCURVE",
"385 443 OFFCURVE",
"378 394 CURVE SMOOTH",
"371 346 LINE SMOOTH",
"366 311 OFFCURVE",
"351 282 OFFCURVE",
"323 266 CURVE",
"350 254 OFFCURVE",
"365 226 OFFCURVE",
"358 178 CURVE SMOOTH",
"349 120 LINE SMOOTH",
"338 41 OFFCURVE",
"291 18 OFFCURVE",
"222 18 CURVE SMOOTH",
"57 18 LINE"
);
},
{
closed = 1;
nodes = (
"223 27 LINE SMOOTH",
"288 27 OFFCURVE",
"330 48 OFFCURVE",
"341 120 CURVE SMOOTH",
"350 178 LINE SMOOTH",
"358 237 OFFCURVE",
"329 263 OFFCURVE",
"289 263 CURVE",
"290 265 LINE",
"334 270 OFFCURVE",
"356 303 OFFCURVE",
"363 346 CURVE SMOOTH",
"370 394 LINE SMOOTH",
"377 438 OFFCURVE",
"355 469 OFFCURVE",
"292 469 CURVE SMOOTH",
"128 469 LINE",
"66 27 LINE"
);
},
{
closed = 1;
nodes = (
"237 407 LINE",
"248 407 LINE SMOOTH",
"254 407 OFFCURVE",
"257 401 OFFCURVE",
"256 390 CURVE SMOOTH",
"255 378 OFFCURVE",
"254 364 OFFCURVE",
"251 347 CURVE SMOOTH",
"249 330 OFFCURVE",
"246 316 OFFCURVE",
"242 305 CURVE SMOOTH",
"238 293 OFFCURVE",
"234 287 OFFCURVE",
"229 287 CURVE SMOOTH",
"220 287 LINE"
);
},
{
closed = 1;
nodes = (
"230 296 LINE SMOOTH",
"232 296 OFFCURVE",
"234 301 OFFCURVE",
"237 311 CURVE SMOOTH",
"239 321 OFFCURVE",
"241 333 OFFCURVE",
"243 347 CURVE SMOOTH",
"248 383 LINE SMOOTH",
"249 393 OFFCURVE",
"248 398 OFFCURVE",
"246 398 CURVE SMOOTH",
"243 398 LINE",
"229 296 LINE"
);
}
);
userData = {
assembly = "SVTCA[0]	/* SetFreedomAndProjectionVectorToAxis */\012PUSHW[ ]	/* 1 value pushed */\0120 \012RCVT[ ]	/* ReadCVT */\012IF[ ]	/* If */\012PUSHW[ ]	/* 1 value pushed */\01271 \012MDAP[1]	/* MoveDirectAbsPt */\012ELSE[ ]	/* Else */\012PUSHW[ ]	/* 2 values pushed */\01271 11 \012MIAP[0]	/* MoveIndirectAbsPt */\012EIF[ ]	/* EndIf */\012PUSHW[ ]	/* 1 value pushed */\0120 \012RCVT[ ]	/* ReadCVT */\012IF[ ]	/* If */\012PUSHW[ ]	/* 1 value pushed */\01286 \012MDAP[1]	/* MoveDirectAbsPt */\012ELSE[ ]	/* Else */\012PUSHW[ ]	/* 2 values pushed */\01286 7 \012MIAP[0]	/* MoveIndirectAbsPt */\012EIF[ ]	/* EndIf */\012PUSHW[ ]	/* 3 values pushed */\0129 86 71 \012SRP1[ ]	/* SetRefPoint1 */\012SRP2[ ]	/* SetRefPoint2 */\012IP[ ]	/* InterpolatePts */\012PUSHW[ ]	/* 3 values pushed */\01244 86 71 \012SRP1[ ]	/* SetRefPoint1 */\012SRP2[ ]	/* SetRefPoint2 */\012IP[ ]	/* InterpolatePts */\012PUSHW[ ]	/* 3 values pushed */\01253 86 71 \012SRP1[ ]	/* SetRefPoint1 */\012SRP2[ ]	/* SetRefPoint2 */\012IP[ ]	/* InterpolatePts */\012PUSHW[ ]	/* 3 values pushed */\01262 86 71 \012SRP1[ ]	/* SetRefPoint1 */\012SRP2[ ]	/* SetRefPoint2 */\012IP[ ]	/* InterpolatePts */\012IUP[0]	/* InterpolateUntPts */\012IUP[1]	/* InterpolateUntPts */";
};
width = 450;
}
);
note = B.tabular;
},
{
color = 4;
glyphname = C.ss01;
lastChange = "2021-12-07 22:57:43 +0000";
layers = (
{
anchors = (
{
name = bottom;
position = "{202, 0}";
},
{
name = top;
position = "{263, 495}";
}
);
layerId = "6544E2DB-1912-401E-9B5B-A29F161A5995";
paths = (
{
closed = 1;
nodes = (
"296 -9 OFFCURVE",
"345 25 OFFCURVE",
"363 158 CURVE SMOOTH",
"374 240 LINE",
"240 240 LINE",
"241 246 LINE",
"375 246 LINE",
"393 377 LINE SMOOTH",
"406 470 OFFCURVE",
"356 505 OFFCURVE",
"264 505 CURVE SMOOTH",
"172 505 OFFCURVE",
"106 472 OFFCURVE",
"93 377 CURVE SMOOTH",
"63 157 LINE SMOOTH",
"45 25 OFFCURVE",
"89 -9 OFFCURVE",
"192 -9 CURVE SMOOTH"
);
},
{
closed = 1;
nodes = (
"102 9 OFFCURVE",
"64 41 OFFCURVE",
"80 157 CURVE SMOOTH",
"110 377 LINE SMOOTH",
"121 458 OFFCURVE",
"179 487 OFFCURVE",
"262 487 CURVE SMOOTH",
"343 487 OFFCURVE",
"388 458 OFFCURVE",
"377 377 CURVE SMOOTH",
"362 264 LINE",
"233 264 LINE",
"249 382 LINE SMOOTH",
"250 392 OFFCURVE",
"251 397 OFFCURVE",
"249 397 CURVE SMOOTH",
"248 397 OFFCURVE",
"245 392 OFFCURVE",
"244 382 CURVE SMOOTH",
"206 109 LINE",
"204 100 OFFCURVE",
"204 96 OFFCURVE",
"207 96 CURVE SMOOTH",
"208 96 OFFCURVE",
"210 100 OFFCURVE",
"211 109 CURVE SMOOTH",
"227 222 LINE",
"356 222 LINE",
"347 158 LINE SMOOTH",
"331 41 OFFCURVE",
"287 9 OFFCURVE",
"195 9 CURVE SMOOTH"
);
},
{
closed = 1;
nodes = (
"280 18 OFFCURVE",
"324 47 OFFCURVE",
"338 158 CURVE SMOOTH",
"345 213 LINE",
"234 213 LINE",
"220 109 LINE SMOOTH",
"219 100 OFFCURVE",
"217 95 OFFCURVE",
"215 92 CURVE SMOOTH",
"212 89 OFFCURVE",
"209 87 OFFCURVE",
"206 87 CURVE SMOOTH",
"202 87 OFFCURVE",
"199 89 OFFCURVE",
"198 92 CURVE SMOOTH",
"196 95 OFFCURVE",
"196 100 OFFCURVE",
"197 109 CURVE SMOOTH",
"235 382 LINE SMOOTH",
"236 391 OFFCURVE",
"238 398 OFFCURVE",
"241 401 CURVE SMOOTH",
"244 404 OFFCURVE",
"247 406 OFFCURVE",
"251 406 CURVE SMOOTH",
"254 406 OFFCURVE",
"257 404 OFFCURVE",
"258 401 CURVE SMOOTH",
"259 398 OFFCURVE",
"259 391 OFFCURVE",
"258 382 CURVE SMOOTH",
"243 273 LINE",
"354 273 LINE",
"368 377 LINE SMOOTH",
"378 452 OFFCURVE",
"337 478 OFFCURVE",
"261 478 CURVE SMOOTH",
"184 478 OFFCURVE",
"128 452 OFFCURVE",
"118 377 CURVE SMOOTH",
"88 157 LINE SMOOTH",
"73 47 OFFCURVE",
"109 18 OFFCURVE",
"196 18 CURVE SMOOTH"
);
}
);
userData = {
assembly = "SVTCA[0]	/* SetFreedomAndProjectionVectorToAxis */\012PUSHW[ ]	/* 1 value pushed */\0120 \012RCVT[ ]	/* ReadCVT */\012IF[ ]	/* If */\012PUSHW[ ]	/* 1 value pushed */\01276 \012MDAP[1]	/* MoveDirectAbsPt */\012ELSE[ ]	/* Else */\012PUSHW[ ]	/* 2 values pushed */\01276 7 \012MIAP[0]	/* MoveIndirectAbsPt */\012EIF[ ]	/* EndIf */\012PUSHW[ ]	/* 4 values pushed */\01269 4 6 4 \012CALL[ ]	/* CallFunction */\012PUSHW[ ]	/* 4 values pushed */\01247 2 36 4 \012CALL[ ]	/* CallFunction */\012PUSHW[ ]	/* 4 values pushed */\01215 4 20 4 \012CALL[ ]	/* CallFunction */\012PUSHW[ ]	/* 1 value pushed */\01276 \012SRP0[ ]	/* SetRefPoint0 */\012PUSHW[ ]	/* 2 values pushed */\0120 4 \012MIRP[10100]	/* MoveIndirectRelPt */\012PUSHW[ ]	/* 1 value pushed */\0126 \012SRP0[ ]	/* SetRefPoint0 */\012PUSHW[ ]	/* 2 values pushed */\01235 4 \012MIRP[10100]	/* MoveIndirectRelPt */\012PUSHW[ ]	/* 1 value pushed */\01215 \012SRP0[ ]	/* SetRefPoint0 */\012PUSHW[ ]	/* 1 value pushed */\01268 \012MDRP[11100]	/* MoveDirectRelPt */\012PUSHW[ ]	/* 1 value pushed */\01220 \012SRP0[ ]	/* SetRefPoint0 */\012PUSHW[ ]	/* 1 value pushed */\01285 \012MDRP[11100]	/* MoveDirectRelPt */\012PUSHW[ ]	/* 1 value pushed */\01269 \012SRP0[ ]	/* SetRefPoint0 */\012PUSHW[ ]	/* 1 value pushed */\01289 \012MDRP[10000]	/* MoveDirectRelPt */\012PUSHW[ ]	/* 1 value pushed */\01289 \012MDAP[1]	/* MoveDirectAbsPt */\012IUP[0]	/* InterpolateUntPts */\012IUP[1]	/* InterpolateUntPts */";
};
width = 450;
}
);
note = C.tabular;
},
{
color = 4;
glyphname = D.ss01;
lastChange = "2021-12-07 22:57:43 +0000";
layers = (
{
layerId = "6544E2DB-1912-401E-9B5B-A29F161A5995";
paths = (
{
closed = 1;
nodes = (
"215 0 LINE SMOOTH",
"296 0 OFFCURVE",
"348 29 OFFCURVE",
"360 120 CURVE SMOOTH",
"399 394 LINE SMOOTH",
"407 453 OFFCURVE",
"380 496 OFFCURVE",
"301 496 CURVE SMOOTH",
"113 496 LINE",
"44 0 LINE"
);
},
{
closed = 1;
nodes = (
"128 478 LINE",
"299 478 LINE SMOOTH",
"367 478 OFFCURVE",
"390 443 OFFCURVE",
"383 394 CURVE SMOOTH",
"344 120 LINE SMOOTH",
"333 41 OFFCURVE",
"286 18 OFFCURVE",
"217 18 CURVE SMOOTH",
"63 18 LINE"
);
},
{
closed = 1;
nodes = (
"218 27 LINE SMOOTH",
"283 27 OFFCURVE",
"324 48 OFFCURVE",
"335 120 CURVE SMOOTH",
"374 394 LINE SMOOTH",
"381 438 OFFCURVE",
"360 469 OFFCURVE",
"297 469 CURVE SMOOTH",
"134 469 LINE",
"72 27 LINE"
);
},
{
closed = 1;
nodes = (
"241 404 LINE",
"252 404 LINE SMOOTH",
"255 404 OFFCURVE",
"258 403 OFFCURVE",
"260 400 CURVE SMOOTH",
"262 397 OFFCURVE",
"262 390 OFFCURVE",
"261 381 CURVE SMOOTH",
"223 109 LINE SMOOTH",
"222 100 OFFCURVE",
"220 95 OFFCURVE",
"217 92 CURVE SMOOTH",
"214 89 OFFCURVE",
"211 87 OFFCURVE",
"208 87 CURVE SMOOTH",
"197 87 LINE"
);
},
{
closed = 1;
nodes = (
"209 95 LINE SMOOTH",
"210 95 OFFCURVE",
"212 100 OFFCURVE",
"214 109 CURVE SMOOTH",
"252 381 LINE SMOOTH",
"254 390 OFFCURVE",
"254 395 OFFCURVE",
"251 395 CURVE SMOOTH",
"249 395 LINE",
"207 95 LINE"
);
}
);
userData = {
assembly = "SVTCA[0]	/* SetFreedomAndProjectionVectorToAxis */\012PUSHW[ ]	/* 1 value pushed */\0120 \012RCVT[ ]	/* ReadCVT */\012IF[ ]	/* If */\012PUSHW[ ]	/* 1 value pushed */\01238 \012MDAP[1]	/* MoveDirectAbsPt */\012ELSE[ ]	/* Else */\012PUSHW[ ]	/* 2 values pushed */\01238 11 \012MIAP[0]	/* MoveIndirectAbsPt */\012EIF[ ]	/* EndIf */\012PUSHW[ ]	/* 1 value pushed */\0120 \012RCVT[ ]	/* ReadCVT */\012IF[ ]	/* If */\012PUSHW[ ]	/* 1 value pushed */\01246 \012MDAP[1]	/* MoveDirectAbsPt */\012ELSE[ ]	/* Else */\012PUSHW[ ]	/* 2 values pushed */\01246 7 \012MIAP[0]	/* MoveIndirectAbsPt */\012EIF[ ]	/* EndIf */\012PUSHW[ ]	/* 3 values pushed */\01223 46 38 \012SRP1[ ]	/* SetRefPoint1 */\012SRP2[ ]	/* SetRefPoint2 */\012IP[ ]	/* InterpolatePts */\012IUP[0]	/* InterpolateUntPts */\012IUP[1]	/* InterpolateUntPts */";
};
width = 450;
}
);
note = D.tabular;
},
{
color = 4;
glyphname = E.ss01;
lastChange = "2021-12-07 22:57:43 +0000";
layers = (
{
anchors = (
{
name = bottom;
position = "{207, 0}";
},
{
name = ogonek;
position = "{311, 0}";
},
{
name = top;
position = "{260, 495}";
},
{
name = topleft;
position = "{96, 591}";
}
);
layerId = "6544E2DB-1912-401E-9B5B-A29F161A5995";
paths = (
{
closed = 1;
nodes = (
"316 0 LINE",
"334 135 LINE",
"253 135 LINE",
"260 180 LINE",
"335 180 LINE",
"355 327 LINE",
"280 327 LINE",
"285 360 LINE",
"366 360 LINE",
"385 496 LINE",
"145 496 LINE",
"76 0 LINE"
);
},
{
closed = 1;
nodes = (
"159 478 LINE",
"367 478 LINE",
"352 377 LINE",
"271 377 LINE",
"262 310 LINE",
"337 310 LINE",
"321 198 LINE",
"246 198 LINE",
"235 117 LINE",
"316 117 LINE",
"302 18 LINE",
"94 18 LINE"
);
},
{
closed = 1;
nodes = (
"295 27 LINE",
"307 108 LINE",
"226 108 LINE",
"240 207 LINE",
"315 207 LINE",
"328 301 LINE",
"253 301 LINE",
"265 386 LINE",
"346 386 LINE",
"357 469 LINE",
"165 469 LINE",
"103 27 LINE"
);
}
);
userData = {
assembly = "SVTCA[0]	/* SetFreedomAndProjectionVectorToAxis */\012PUSHW[ ]	/* 1 value pushed */\0120 \012RCVT[ ]	/* ReadCVT */\012IF[ ]	/* If */\012PUSHW[ ]	/* 1 value pushed */\01224 \012MDAP[1]	/* MoveDirectAbsPt */\012ELSE[ ]	/* Else */\012PUSHW[ ]	/* 2 values pushed */\01224 11 \012MIAP[0]	/* MoveIndirectAbsPt */\012EIF[ ]	/* EndIf */\012PUSHW[ ]	/* 1 value pushed */\0120 \012RCVT[ ]	/* ReadCVT */\012IF[ ]	/* If */\012PUSHW[ ]	/* 1 value pushed */\01234 \012MDAP[1]	/* MoveDirectAbsPt */\012ELSE[ ]	/* Else */\012PUSHW[ ]	/* 2 values pushed */\01234 7 \012MIAP[0]	/* MoveIndirectAbsPt */\012EIF[ ]	/* EndIf */\012PUSHW[ ]	/* 4 values pushed */\01233 4 10 4 \012CALL[ ]	/* CallFunction */\012PUSHW[ ]	/* 4 values pushed */\01217 2 14 4 \012CALL[ ]	/* CallFunction */\012PUSHW[ ]	/* 4 values pushed */\0125 4 30 4 \012CALL[ ]	/* CallFunction */\012PUSHW[ ]	/* 4 values pushed */\01221 2 18 4 \012CALL[ ]	/* CallFunction */\012PUSHW[ ]	/* 1 value pushed */\01224 \012SRP0[ ]	/* SetRefPoint0 */\012PUSHW[ ]	/* 2 values pushed */\0122 4 \012MIRP[10100]	/* MoveIndirectRelPt */\012PUSHW[ ]	/* 2 values pushed */\0121 2 \012MIRP[10100]	/* MoveIndirectRelPt */\012PUSHW[ ]	/* 1 value pushed */\0125 \012SRP0[ ]	/* SetRefPoint0 */\012PUSHW[ ]	/* 2 values pushed */\0126 1 \012MIRP[10100]	/* MoveIndirectRelPt */\012PUSHW[ ]	/* 1 value pushed */\01234 \012SRP0[ ]	/* SetRefPoint0 */\012PUSHW[ ]	/* 2 values pushed */\0128 4 \012MIRP[10100]	/* MoveIndirectRelPt */\012PUSHW[ ]	/* 1 value pushed */\01210 \012SRP0[ ]	/* SetRefPoint0 */\012PUSHW[ ]	/* 2 values pushed */\0129 2 \012MIRP[10100]	/* MoveIndirectRelPt */\012PUSHW[ ]	/* 1 value pushed */\0121 \012SRP0[ ]	/* SetRefPoint0 */\012PUSHW[ ]	/* 2 values pushed */\01226 4 \012MIRP[10100]	/* MoveIndirectRelPt */\012PUSHW[ ]	/* 1 value pushed */\0126 \012SRP0[ ]	/* SetRefPoint0 */\012PUSHW[ ]	/* 2 values pushed */\01228 4 \012MIRP[10100]	/* MoveIndirectRelPt */\012IUP[0]	/* InterpolateUntPts */\012IUP[1]	/* InterpolateUntPts */";
};
width = 450;
}
);
note = E.tabular;
},
{
color = 4;
glyphname = F.ss01;
lastChange = "2021-12-07 22:57:43 +0000";
layers = (
{
layerId = "6544E2DB-1912-401E-9B5B-A29F161A5995";
paths = (
{
closed = 1;
nodes = (
"235 0 LINE",
"260 180 LINE",
"335 180 LINE",
"355 327 LINE",
"280 327 LINE",
"285 360 LINE",
"366 360 LINE",
"385 496 LINE",
"145 496 LINE",
"76 0 LINE"
);
},
{
closed = 1;
nodes = (
"159 478 LINE",
"367 478 LINE",
"352 377 LINE",
"271 377 LINE",
"262 310 LINE",
"337 310 LINE",
"321 198 LINE",
"246 198 LINE",
"221 18 LINE",
"94 18 LINE"
);
},
{
closed = 1;
nodes = (
"214 27 LINE",
"240 207 LINE",
"315 207 LINE",
"328 301 LINE",
"253 301 LINE",
"265 386 LINE",
"346 386 LINE",
"357 469 LINE",
"165 469 LINE",
"103 27 LINE"
);
}
);
userData = {
assembly = "SVTCA[0]	/* SetFreedomAndProjectionVectorToAxis */\012PUSHW[ ]	/* 1 value pushed */\0120 \012RCVT[ ]	/* ReadCVT */\012IF[ ]	/* If */\012PUSHW[ ]	/* 1 value pushed */\01220 \012MDAP[1]	/* MoveDirectAbsPt */\012ELSE[ ]	/* Else */\012PUSHW[ ]	/* 2 values pushed */\01220 11 \012MIAP[0]	/* MoveIndirectAbsPt */\012EIF[ ]	/* EndIf */\012PUSHW[ ]	/* 1 value pushed */\0120 \012RCVT[ ]	/* ReadCVT */\012IF[ ]	/* If */\012PUSHW[ ]	/* 1 value pushed */\01228 \012MDAP[1]	/* MoveDirectAbsPt */\012ELSE[ ]	/* Else */\012PUSHW[ ]	/* 2 values pushed */\01228 7 \012MIAP[0]	/* MoveIndirectAbsPt */\012EIF[ ]	/* EndIf */\012PUSHW[ ]	/* 4 values pushed */\0125 4 26 4 \012CALL[ ]	/* CallFunction */\012PUSHW[ ]	/* 4 values pushed */\01217 2 14 4 \012CALL[ ]	/* CallFunction */\012PUSHW[ ]	/* 4 values pushed */\01224 4 6 4 \012CALL[ ]	/* CallFunction */\012PUSHW[ ]	/* 1 value pushed */\01220 \012SRP0[ ]	/* SetRefPoint0 */\012PUSHW[ ]	/* 2 values pushed */\0122 4 \012MIRP[10100]	/* MoveIndirectRelPt */\012PUSHW[ ]	/* 2 values pushed */\0121 2 \012MIRP[10100]	/* MoveIndirectRelPt */\012PUSHW[ ]	/* 2 values pushed */\01222 4 \012MIRP[10100]	/* MoveIndirectRelPt */\012IUP[0]	/* InterpolateUntPts */\012IUP[1]	/* InterpolateUntPts */";
};
width = 450;
}
);
note = F.tabular;
},
{
color = 4;
glyphname = G.ss01;
lastChange = "2021-12-07 22:57:43 +0000";
layers = (
{
layerId = "6544E2DB-1912-401E-9B5B-A29F161A5995";
paths = (
{
closed = 1;
nodes = (
"178 -7 OFFCURVE",
"195 0 OFFCURVE",
"210 11 CURVE",
"211 0 LINE",
"340 0 LINE",
"392 375 LINE SMOOTH",
"405 466 OFFCURVE",
"351 503 OFFCURVE",
"259 503 CURVE SMOOTH",
"170 503 OFFCURVE",
"105 470 OFFCURVE",
"92 375 CURVE SMOOTH",
"59 140 LINE SMOOTH",
"42 28 OFFCURVE",
"85 -7 OFFCURVE",
"154 -7 CURVE SMOOTH"
);
},
{
closed = 1;
nodes = (
"209 96 OFFCURVE",
"212 100 OFFCURVE",
"214 109 CURVE",
"224 184 LINE",
"210 184 LINE",
"200 109 LINE",
"198 100 OFFCURVE",
"200 96 OFFCURVE",
"205 96 CURVE SMOOTH"
);
},
{
closed = 1;
nodes = (
"98 11 OFFCURVE",
"62 43 OFFCURVE",
"76 140 CURVE SMOOTH",
"109 375 LINE SMOOTH",
"120 455 OFFCURVE",
"177 485 OFFCURVE",
"257 485 CURVE SMOOTH",
"337 485 OFFCURVE",
"387 455 OFFCURVE",
"376 375 CURVE SMOOTH",
"365 298 LINE",
"240 298 LINE",
"252 382 LINE SMOOTH",
"254 391 OFFCURVE",
"252 396 OFFCURVE",
"247 396 CURVE SMOOTH",
"243 396 OFFCURVE",
"240 391 OFFCURVE",
"238 382 CURVE SMOOTH",
"222 269 LINE",
"361 269 LINE",
"326 18 LINE",
"227 18 LINE",
"224 47 LINE",
"211 28 OFFCURVE",
"189 11 OFFCURVE",
"156 11 CURVE SMOOTH"
);
},
{
closed = 1;
nodes = (
"195 20 OFFCURVE",
"221 50 OFFCURVE",
"231 73 CURVE",
"234 27 LINE",
"318 27 LINE",
"351 260 LINE",
"226 260 LINE",
"217 193 LINE",
"234 193 LINE",
"222 109 LINE SMOOTH",
"219 92 OFFCURVE",
"213 87 OFFCURVE",
"204 87 CURVE SMOOTH",
"195 87 OFFCURVE",
"188 92 OFFCURVE",
"191 109 CURVE SMOOTH",
"229 382 LINE SMOOTH",
"232 401 OFFCURVE",
"239 405 OFFCURVE",
"248 405 CURVE SMOOTH",
"257 405 OFFCURVE",
"263 401 OFFCURVE",
"260 382 CURVE SMOOTH",
"250 307 LINE",
"358 307 LINE",
"367 375 LINE SMOOTH",
"377 448 OFFCURVE",
"331 476 OFFCURVE",
"255 476 CURVE SMOOTH",
"180 476 OFFCURVE",
"128 450 OFFCURVE",
"117 375 CURVE SMOOTH",
"84 140 LINE SMOOTH",
"72 51 OFFCURVE",
"102 20 OFFCURVE",
"157 20 CURVE SMOOTH"
);
}
);
userData = {
assembly = "SVTCA[0]	/* SetFreedomAndProjectionVectorToAxis */\012PUSHW[ ]	/* 1 value pushed */\0120 \012RCVT[ ]	/* ReadCVT */\012IF[ ]	/* If */\012PUSHW[ ]	/* 1 value pushed */\01276 \012MDAP[1]	/* MoveDirectAbsPt */\012ELSE[ ]	/* Else */\012PUSHW[ ]	/* 2 values pushed */\01276 7 \012MIAP[0]	/* MoveIndirectAbsPt */\012EIF[ ]	/* EndIf */\012PUSHW[ ]	/* 1 value pushed */\0120 \012RCVT[ ]	/* ReadCVT */\012IF[ ]	/* If */\012PUSHW[ ]	/* 1 value pushed */\01281 \012MDAP[1]	/* MoveDirectAbsPt */\012ELSE[ ]	/* Else */\012PUSHW[ ]	/* 2 values pushed */\01281 7 \012MIAP[0]	/* MoveIndirectAbsPt */\012EIF[ ]	/* EndIf */\012PUSHW[ ]	/* 4 values pushed */\01217 4 24 4 \012CALL[ ]	/* CallFunction */\012PUSHW[ ]	/* 3 values pushed */\01255 74 3 \012CALL[ ]	/* CallFunction */\012PUSHW[ ]	/* 1 value pushed */\01281 \012SRP0[ ]	/* SetRefPoint0 */\012PUSHW[ ]	/* 1 value pushed */\0128 \012MDRP[11100]	/* MoveDirectRelPt */\012NPUSHW[ ]	/* 27 values pushed */\0127 8 23 8 39 8 55 8 71 8 87 8 103 8 119 8 135 8 151 8 167 8 183 8 199 8 13 \012DELTAP1[ ]	/* DeltaExceptionP1 */\012NPUSHW[ ]	/* 5 values pushed */\012214 8 230 8 2 \012DELTAP1[ ]	/* DeltaExceptionP1 */\012PUSHW[ ]	/* 1 value pushed */\0121 \012MDRP[10000]	/* MoveDirectRelPt */\012PUSHW[ ]	/* 1 value pushed */\0121 \012MDAP[1]	/* MoveDirectAbsPt */\012PUSHW[ ]	/* 1 value pushed */\0128 \012SRP0[ ]	/* SetRefPoint0 */\012PUSHW[ ]	/* 1 value pushed */\01241 \012MDRP[11100]	/* MoveDirectRelPt */\012PUSHW[ ]	/* 3 values pushed */\0123 8 41 \012SRP1[ ]	/* SetRefPoint1 */\012SRP2[ ]	/* SetRefPoint2 */\012IP[ ]	/* InterpolatePts */\012PUSHW[ ]	/* 1 value pushed */\0128 \012SRP0[ ]	/* SetRefPoint0 */\012PUSHW[ ]	/* 1 value pushed */\01268 \012MDRP[10000]	/* MoveDirectRelPt */\012PUSHW[ ]	/* 1 value pushed */\01268 \012MDAP[1]	/* MoveDirectAbsPt */\012PUSHW[ ]	/* 1 value pushed */\01272 \012MDRP[10000]	/* MoveDirectRelPt */\012PUSHW[ ]	/* 1 value pushed */\01273 \012MDRP[10000]	/* MoveDirectRelPt */\012PUSHW[ ]	/* 3 values pushed */\01278 81 8 \012SRP1[ ]	/* SetRefPoint1 */\012SRP2[ ]	/* SetRefPoint2 */\012IP[ ]	/* InterpolatePts */\012PUSHW[ ]	/* 1 value pushed */\01224 \012SRP0[ ]	/* SetRefPoint0 */\012PUSHW[ ]	/* 2 values pushed */\01290 4 \012MIRP[10100]	/* MoveIndirectRelPt */\012IUP[0]	/* InterpolateUntPts */\012IUP[1]	/* InterpolateUntPts */";
};
width = 450;
}
);
note = G.tabular;
},
{
color = 4;
glyphname = H.ss01;
lastChange = "2021-12-07 22:57:43 +0000";
layers = (
{
layerId = "6544E2DB-1912-401E-9B5B-A29F161A5995";
paths = (
{
closed = 1;
nodes = (
"339 0 LINE",
"408 496 LINE",
"111 496 LINE",
"42 0 LINE"
);
},
{
closed = 1;
nodes = (
"126 478 LINE",
"254 478 LINE",
"230 307 LINE",
"238 307 LINE",
"262 478 LINE",
"390 478 LINE",
"325 18 LINE",
"197 18 LINE",
"223 202 LINE",
"215 202 LINE",
"189 18 LINE",
"61 18 LINE"
);
},
{
closed = 1;
nodes = (
"182 27 LINE",
"208 211 LINE",
"233 211 LINE",
"207 27 LINE",
"317 27 LINE",
"379 469 LINE",
"269 469 LINE",
"245 298 LINE",
"220 298 LINE",
"244 469 LINE",
"132 469 LINE",
"70 27 LINE"
);
}
);
userData = {
assembly = "SVTCA[0]	/* SetFreedomAndProjectionVectorToAxis */\012PUSHW[ ]	/* 1 value pushed */\0120 \012RCVT[ ]	/* ReadCVT */\012IF[ ]	/* If */\012PUSHW[ ]	/* 1 value pushed */\01225 \012MDAP[1]	/* MoveDirectAbsPt */\012ELSE[ ]	/* Else */\012PUSHW[ ]	/* 2 values pushed */\01225 11 \012MIAP[0]	/* MoveIndirectAbsPt */\012EIF[ ]	/* EndIf */\012PUSHW[ ]	/* 1 value pushed */\0120 \012RCVT[ ]	/* ReadCVT */\012IF[ ]	/* If */\012PUSHW[ ]	/* 1 value pushed */\01224 \012MDAP[1]	/* MoveDirectAbsPt */\012ELSE[ ]	/* Else */\012PUSHW[ ]	/* 2 values pushed */\01224 7 \012MIAP[0]	/* MoveIndirectAbsPt */\012EIF[ ]	/* EndIf */\012IUP[0]	/* InterpolateUntPts */\012IUP[1]	/* InterpolateUntPts */";
};
width = 450;
}
);
note = H.tabular;
},
{
color = 4;
glyphname = I.ss01;
lastChange = "2021-12-07 22:57:43 +0000";
layers = (
{
anchors = (
{
name = bottom;
position = "{187, 0}";
},
{
name = ogonek;
position = "{253, 0}";
},
{
name = top;
position = "{257, 495}";
},
{
name = topleft;
position = "{93, 591}";
}
);
layerId = "6544E2DB-1912-401E-9B5B-A29F161A5995";
paths = (
{
closed = 1;
nodes = (
"305 0 LINE",
"324 136 LINE",
"287 136 LINE",
"318 360 LINE",
"355 360 LINE",
"374 496 LINE",
"146 496 LINE",
"127 360 LINE",
"164 360 LINE",
"133 136 LINE",
"96 136 LINE",
"77 0 LINE"
);
},
{
closed = 1;
nodes = (
"109 119 LINE",
"146 119 LINE",
"182 377 LINE",
"145 377 LINE",
"160 478 LINE",
"356 478 LINE",
"341 377 LINE",
"304 377 LINE",
"268 119 LINE",
"305 119 LINE",
"291 18 LINE",
"95 18 LINE"
);
},
{
closed = 1;
nodes = (
"284 27 LINE",
"296 110 LINE",
"259 110 LINE",
"298 386 LINE",
"335 386 LINE",
"346 469 LINE",
"166 469 LINE",
"155 386 LINE",
"192 386 LINE",
"153 110 LINE",
"116 110 LINE",
"104 27 LINE"
);
}
);
userData = {
assembly = "SVTCA[0]	/* SetFreedomAndProjectionVectorToAxis */\012PUSHW[ ]	/* 1 value pushed */\0120 \012RCVT[ ]	/* ReadCVT */\012IF[ ]	/* If */\012PUSHW[ ]	/* 1 value pushed */\01224 \012MDAP[1]	/* MoveDirectAbsPt */\012ELSE[ ]	/* Else */\012PUSHW[ ]	/* 2 values pushed */\01224 11 \012MIAP[0]	/* MoveIndirectAbsPt */\012EIF[ ]	/* EndIf */\012PUSHW[ ]	/* 1 value pushed */\0120 \012RCVT[ ]	/* ReadCVT */\012IF[ ]	/* If */\012PUSHW[ ]	/* 1 value pushed */\01230 \012MDAP[1]	/* MoveDirectAbsPt */\012ELSE[ ]	/* Else */\012PUSHW[ ]	/* 2 values pushed */\01230 7 \012MIAP[0]	/* MoveIndirectAbsPt */\012EIF[ ]	/* EndIf */\012PUSHW[ ]	/* 4 values pushed */\0125 2 6 4 \012CALL[ ]	/* CallFunction */\012PUSHW[ ]	/* 1 value pushed */\01224 \012SRP0[ ]	/* SetRefPoint0 */\012PUSHW[ ]	/* 2 values pushed */\0122 4 \012MIRP[10100]	/* MoveIndirectRelPt */\012PUSHW[ ]	/* 2 values pushed */\0121 2 \012MIRP[10100]	/* MoveIndirectRelPt */\012PUSHW[ ]	/* 1 value pushed */\01230 \012SRP0[ ]	/* SetRefPoint0 */\012PUSHW[ ]	/* 2 values pushed */\0124 4 \012MIRP[10100]	/* MoveIndirectRelPt */\012PUSHW[ ]	/* 1 value pushed */\0128 \012MDRP[10000]	/* MoveDirectRelPt */\012PUSHW[ ]	/* 1 value pushed */\0129 \012MDRP[10000]	/* MoveDirectRelPt */\012PUSHW[ ]	/* 1 value pushed */\0122 \012SRP0[ ]	/* SetRefPoint0 */\012PUSHW[ ]	/* 1 value pushed */\01210 \012MDRP[10000]	/* MoveDirectRelPt */\012PUSHW[ ]	/* 1 value pushed */\01211 \012MDRP[10000]	/* MoveDirectRelPt */\012PUSHW[ ]	/* 1 value pushed */\0121 \012SRP0[ ]	/* SetRefPoint0 */\012PUSHW[ ]	/* 2 values pushed */\01226 4 \012MIRP[10100]	/* MoveIndirectRelPt */\012PUSHW[ ]	/* 1 value pushed */\0126 \012SRP0[ ]	/* SetRefPoint0 */\012PUSHW[ ]	/* 2 values pushed */\01228 4 \012MIRP[10100]	/* MoveIndirectRelPt */\012PUSHW[ ]	/* 1 value pushed */\01232 \012MDRP[10000]	/* MoveDirectRelPt */\012PUSHW[ ]	/* 1 value pushed */\01226 \012SRP0[ ]	/* SetRefPoint0 */\012PUSHW[ ]	/* 1 value pushed */\01234 \012MDRP[10000]	/* MoveDirectRelPt */\012IUP[0]	/* InterpolateUntPts */\012IUP[1]	/* InterpolateUntPts */";
};
width = 450;
}
);
note = I.tabular;
},
{
color = 4;
glyphname = J.ss01;
lastChange = "2021-12-07 22:57:43 +0000";
layers = (
{
layerId = "6544E2DB-1912-401E-9B5B-A29F161A5995";
paths = (
{
closed = 1;
nodes = (
"238 -103 OFFCURVE",
"287 -67 OFFCURVE",
"303 47 CURVE SMOOTH",
"348 367 LINE",
"396 367 LINE",
"416 506 LINE",
"152 506 LINE",
"132 367 LINE",
"185 367 LINE",
"140 45 LINE SMOOTH",
"139 37 OFFCURVE",
"139 36 OFFCURVE",
"132 36 CURVE SMOOTH",
"128 36 OFFCURVE",
"121 37 OFFCURVE",
"111 38 CURVE SMOOTH",
"100 39 OFFCURVE",
"89 41 OFFCURVE",
"78 42 CURVE SMOOTH",
"35 48 LINE",
"16 -91 LINE",
"29 -91 OFFCURVE",
"115 -103 OFFCURVE",
"129 -103 CURVE SMOOTH"
);
},
{
closed = 1;
nodes = (
"120 -85 OFFCURVE",
"45 -75 OFFCURVE",
"35 -75 CURVE",
"49 27 LINE",
"83 22 LINE SMOOTH",
"102 19 OFFCURVE",
"121 17 OFFCURVE",
"129 17 CURVE SMOOTH",
"148 17 OFFCURVE",
"153 22 OFFCURVE",
"156 45 CURVE SMOOTH",
"204 385 LINE",
"151 385 LINE",
"165 488 LINE",
"396 488 LINE",
"382 385 LINE",
"334 385 LINE",
"286 47 LINE SMOOTH",
"273 -55 OFFCURVE",
"229 -85 OFFCURVE",
"132 -85 CURVE SMOOTH"
);
},
{
closed = 1;
nodes = (
"224 -76 OFFCURVE",
"264 -48 OFFCURVE",
"277 47 CURVE SMOOTH",
"326 394 LINE",
"375 394 LINE",
"387 479 LINE",
"173 479 LINE",
"161 394 LINE",
"214 394 LINE",
"165 45 LINE SMOOTH",
"161 14 OFFCURVE",
"155 8 OFFCURVE",
"128 8 CURVE SMOOTH",
"117 8 OFFCURVE",
"100 9 OFFCURVE",
"85 12 CURVE SMOOTH",
"57 16 LINE",
"45 -66 LINE",
"55 -66 OFFCURVE",
"122 -76 OFFCURVE",
"133 -76 CURVE SMOOTH"
);
}
);
userData = {
assembly = "SVTCA[0]	/* SetFreedomAndProjectionVectorToAxis */\012PUSHW[ ]	/* 4 values pushed */\01220 4 61 4 \012CALL[ ]	/* CallFunction */\012PUSHW[ ]	/* 4 values pushed */\0121 2 2 4 \012CALL[ ]	/* CallFunction */\012PUSHW[ ]	/* 1 value pushed */\01220 \012SRP0[ ]	/* SetRefPoint0 */\012PUSHW[ ]	/* 2 values pushed */\0129 2 \012MIRP[10100]	/* MoveIndirectRelPt */\012PUSHW[ ]	/* 1 value pushed */\0122 \012SRP0[ ]	/* SetRefPoint0 */\012PUSHW[ ]	/* 1 value pushed */\01224 \012MDRP[10000]	/* MoveDirectRelPt */\012PUSHW[ ]	/* 1 value pushed */\0122 \012SRP0[ ]	/* SetRefPoint0 */\012PUSHW[ ]	/* 2 values pushed */\01253 4 \012MIRP[10100]	/* MoveIndirectRelPt */\012PUSHW[ ]	/* 1 value pushed */\0121 \012SRP0[ ]	/* SetRefPoint0 */\012PUSHW[ ]	/* 2 values pushed */\01254 4 \012MIRP[10100]	/* MoveIndirectRelPt */\012PUSHW[ ]	/* 1 value pushed */\01276 \012MDRP[10000]	/* MoveDirectRelPt */\012IUP[0]	/* InterpolateUntPts */\012IUP[1]	/* InterpolateUntPts */";
};
width = 450;
}
);
note = J.tabular;
},
{
color = 4;
glyphname = K.ss01;
lastChange = "2021-12-07 22:57:43 +0000";
layers = (
{
layerId = "6544E2DB-1912-401E-9B5B-A29F161A5995";
paths = (
{
closed = 1;
nodes = (
"379 0 LINE",
"334 257 LINE",
"446 496 LINE",
"107 496 LINE",
"38 0 LINE"
);
},
{
closed = 1;
nodes = (
"122 478 LINE",
"252 478 LINE",
"237 375 LINE",
"273 478 LINE",
"421 478 LINE",
"316 258 LINE",
"357 18 LINE",
"213 18 LINE",
"204 141 LINE",
"187 18 LINE",
"57 18 LINE"
);
},
{
closed = 1;
nodes = (
"180 27 LINE",
"208 226 LINE",
"220 27 LINE",
"347 27 LINE",
"307 257 LINE",
"407 469 LINE",
"277 469 LINE",
"217 289 LINE",
"242 469 LINE",
"128 469 LINE",
"66 27 LINE"
);
}
);
userData = {
assembly = "SVTCA[0]	/* SetFreedomAndProjectionVectorToAxis */\012PUSHW[ ]	/* 1 value pushed */\0120 \012RCVT[ ]	/* ReadCVT */\012IF[ ]	/* If */\012PUSHW[ ]	/* 1 value pushed */\01222 \012MDAP[1]	/* MoveDirectAbsPt */\012ELSE[ ]	/* Else */\012PUSHW[ ]	/* 2 values pushed */\01222 11 \012MIAP[0]	/* MoveIndirectAbsPt */\012EIF[ ]	/* EndIf */\012PUSHW[ ]	/* 1 value pushed */\0120 \012RCVT[ ]	/* ReadCVT */\012IF[ ]	/* If */\012PUSHW[ ]	/* 1 value pushed */\01229 \012MDAP[1]	/* MoveDirectAbsPt */\012ELSE[ ]	/* Else */\012PUSHW[ ]	/* 2 values pushed */\01229 7 \012MIAP[0]	/* MoveIndirectAbsPt */\012EIF[ ]	/* EndIf */\012PUSHW[ ]	/* 3 values pushed */\0120 29 22 \012SRP1[ ]	/* SetRefPoint1 */\012SRP2[ ]	/* SetRefPoint2 */\012IP[ ]	/* InterpolatePts */\012PUSHW[ ]	/* 3 values pushed */\0122 29 22 \012SRP1[ ]	/* SetRefPoint1 */\012SRP2[ ]	/* SetRefPoint2 */\012IP[ ]	/* InterpolatePts */\012PUSHW[ ]	/* 3 values pushed */\0126 29 22 \012SRP1[ ]	/* SetRefPoint1 */\012SRP2[ ]	/* SetRefPoint2 */\012IP[ ]	/* InterpolatePts */\012PUSHW[ ]	/* 3 values pushed */\01215 29 22 \012SRP1[ ]	/* SetRefPoint1 */\012SRP2[ ]	/* SetRefPoint2 */\012IP[ ]	/* InterpolatePts */\012PUSHW[ ]	/* 3 values pushed */\01219 29 22 \012SRP1[ ]	/* SetRefPoint1 */\012SRP2[ ]	/* SetRefPoint2 */\012IP[ ]	/* InterpolatePts */\012PUSHW[ ]	/* 3 values pushed */\01221 29 22 \012SRP1[ ]	/* SetRefPoint1 */\012SRP2[ ]	/* SetRefPoint2 */\012IP[ ]	/* InterpolatePts */\012IUP[0]	/* InterpolateUntPts */\012IUP[1]	/* InterpolateUntPts */";
};
width = 450;
}
);
note = K.tabular;
},
{
color = 4;
glyphname = L.ss01;
lastChange = "2021-12-07 22:57:43 +0000";
layers = (
{
layerId = "6544E2DB-1912-401E-9B5B-A29F161A5995";
paths = (
{
closed = 1;
nodes = (
"321 0 LINE",
"339 135 LINE",
"267 135 LINE",
"318 496 LINE",
"167 496 LINE",
"98 0 LINE"
);
},
{
closed = 1;
nodes = (
"181 478 LINE",
"301 478 LINE",
"250 117 LINE",
"321 117 LINE",
"307 18 LINE",
"116 18 LINE"
);
},
{
closed = 1;
nodes = (
"300 27 LINE",
"312 108 LINE",
"241 108 LINE",
"291 469 LINE",
"187 469 LINE",
"125 27 LINE"
);
}
);
userData = {
assembly = "SVTCA[0]	/* SetFreedomAndProjectionVectorToAxis */\012PUSHW[ ]	/* 1 value pushed */\0120 \012RCVT[ ]	/* ReadCVT */\012IF[ ]	/* If */\012PUSHW[ ]	/* 1 value pushed */\01212 \012MDAP[1]	/* MoveDirectAbsPt */\012ELSE[ ]	/* Else */\012PUSHW[ ]	/* 2 values pushed */\01212 11 \012MIAP[0]	/* MoveIndirectAbsPt */\012EIF[ ]	/* EndIf */\012PUSHW[ ]	/* 1 value pushed */\0120 \012RCVT[ ]	/* ReadCVT */\012IF[ ]	/* If */\012PUSHW[ ]	/* 1 value pushed */\01216 \012MDAP[1]	/* MoveDirectAbsPt */\012ELSE[ ]	/* Else */\012PUSHW[ ]	/* 2 values pushed */\01216 7 \012MIAP[0]	/* MoveIndirectAbsPt */\012EIF[ ]	/* EndIf */\012PUSHW[ ]	/* 4 values pushed */\0123 2 4 4 \012CALL[ ]	/* CallFunction */\012PUSHW[ ]	/* 1 value pushed */\01216 \012SRP0[ ]	/* SetRefPoint0 */\012PUSHW[ ]	/* 2 values pushed */\0122 4 \012MIRP[10100]	/* MoveIndirectRelPt */\012PUSHW[ ]	/* 1 value pushed */\0124 \012SRP0[ ]	/* SetRefPoint0 */\012PUSHW[ ]	/* 2 values pushed */\01214 4 \012MIRP[10100]	/* MoveIndirectRelPt */\012IUP[0]	/* InterpolateUntPts */\012IUP[1]	/* InterpolateUntPts */";
};
width = 450;
}
);
note = L.tabular;
},
{
color = 4;
glyphname = M.ss01;
lastChange = "2021-12-07 22:57:43 +0000";
layers = (
{
layerId = "6544E2DB-1912-401E-9B5B-A29F161A5995";
paths = (
{
closed = 1;
nodes = (
"372 0 LINE",
"441 496 LINE",
"78 496 LINE",
"9 0 LINE"
);
},
{
closed = 1;
nodes = (
"93 478 LINE",
"242 478 LINE",
"236 331 LINE",
"242 357 OFFCURVE",
"248 382 OFFCURVE",
"255 406 CURVE SMOOTH",
"273 478 LINE",
"422 478 LINE",
"357 18 LINE",
"251 18 LINE",
"271 157 LINE",
"238 18 LINE",
"145 18 LINE",
"152 146 LINE",
"134 18 LINE",
"28 18 LINE"
);
},
{
closed = 1;
nodes = (
"126 27 LINE",
"170 335 LINE",
"153 27 LINE",
"232 27 LINE",
"305 335 LINE",
"261 27 LINE",
"349 27 LINE",
"411 469 LINE",
"279 469 LINE",
"224 244 LINE",
"233 469 LINE",
"100 469 LINE",
"38 27 LINE"
);
}
);
userData = {
assembly = "SVTCA[0]	/* SetFreedomAndProjectionVectorToAxis */\012PUSHW[ ]	/* 1 value pushed */\0120 \012RCVT[ ]	/* ReadCVT */\012IF[ ]	/* If */\012PUSHW[ ]	/* 1 value pushed */\01229 \012MDAP[1]	/* MoveDirectAbsPt */\012ELSE[ ]	/* Else */\012PUSHW[ ]	/* 2 values pushed */\01229 11 \012MIAP[0]	/* MoveIndirectAbsPt */\012EIF[ ]	/* EndIf */\012PUSHW[ ]	/* 1 value pushed */\0120 \012RCVT[ ]	/* ReadCVT */\012IF[ ]	/* If */\012PUSHW[ ]	/* 1 value pushed */\01228 \012MDAP[1]	/* MoveDirectAbsPt */\012ELSE[ ]	/* Else */\012PUSHW[ ]	/* 2 values pushed */\01228 7 \012MIAP[0]	/* MoveIndirectAbsPt */\012EIF[ ]	/* EndIf */\012PUSHW[ ]	/* 3 values pushed */\0120 28 29 \012SRP1[ ]	/* SetRefPoint1 */\012SRP2[ ]	/* SetRefPoint2 */\012IP[ ]	/* InterpolatePts */\012PUSHW[ ]	/* 3 values pushed */\0125 28 29 \012SRP1[ ]	/* SetRefPoint1 */\012SRP2[ ]	/* SetRefPoint2 */\012IP[ ]	/* InterpolatePts */\012PUSHW[ ]	/* 3 values pushed */\01210 28 29 \012SRP1[ ]	/* SetRefPoint1 */\012SRP2[ ]	/* SetRefPoint2 */\012IP[ ]	/* InterpolatePts */\012PUSHW[ ]	/* 3 values pushed */\01215 28 29 \012SRP1[ ]	/* SetRefPoint1 */\012SRP2[ ]	/* SetRefPoint2 */\012IP[ ]	/* InterpolatePts */\012PUSHW[ ]	/* 3 values pushed */\01222 28 29 \012SRP1[ ]	/* SetRefPoint1 */\012SRP2[ ]	/* SetRefPoint2 */\012IP[ ]	/* InterpolatePts */\012PUSHW[ ]	/* 3 values pushed */\01227 28 29 \012SRP1[ ]	/* SetRefPoint1 */\012SRP2[ ]	/* SetRefPoint2 */\012IP[ ]	/* InterpolatePts */\012IUP[0]	/* InterpolateUntPts */\012IUP[1]	/* InterpolateUntPts */";
};
width = 450;
}
);
note = M.tabular;
},
{
color = 4;
glyphname = N.ss01;
lastChange = "2021-12-07 22:57:43 +0000";
layers = (
{
anchors = (
{
name = bottom;
position = "{191, 0}";
},
{
name = top;
position = "{259, 495}";
}
);
layerId = "6544E2DB-1912-401E-9B5B-A29F161A5995";
paths = (
{
closed = 1;
nodes = (
"191 0 LINE",
"194 26 LINE",
"197 0 LINE",
"337 0 LINE",
"406 496 LINE",
"259 496 LINE",
"256 474 LINE",
"245 496 LINE",
"113 496 LINE",
"44 0 LINE"
);
},
{
closed = 1;
nodes = (
"127 478 LINE",
"239 478 LINE",
"253 335 LINE",
"273 478 LINE",
"387 478 LINE",
"322 18 LINE",
"212 18 LINE",
"194 146 LINE",
"176 18 LINE",
"62 18 LINE"
);
},
{
closed = 1;
nodes = (
"169 27 LINE",
"195 211 LINE",
"219 27 LINE",
"315 27 LINE",
"377 469 LINE",
"280 469 LINE",
"251 263 LINE",
"230 469 LINE",
"134 469 LINE",
"72 27 LINE"
);
}
);
userData = {
assembly = "SVTCA[0]	/* SetFreedomAndProjectionVectorToAxis */\012PUSHW[ ]	/* 1 value pushed */\0120 \012RCVT[ ]	/* ReadCVT */\012IF[ ]	/* If */\012PUSHW[ ]	/* 1 value pushed */\01223 \012MDAP[1]	/* MoveDirectAbsPt */\012ELSE[ ]	/* Else */\012PUSHW[ ]	/* 2 values pushed */\01223 11 \012MIAP[0]	/* MoveIndirectAbsPt */\012EIF[ ]	/* EndIf */\012PUSHW[ ]	/* 1 value pushed */\0120 \012RCVT[ ]	/* ReadCVT */\012IF[ ]	/* If */\012PUSHW[ ]	/* 1 value pushed */\01226 \012MDAP[1]	/* MoveDirectAbsPt */\012ELSE[ ]	/* Else */\012PUSHW[ ]	/* 2 values pushed */\01226 11 \012MIAP[0]	/* MoveIndirectAbsPt */\012EIF[ ]	/* EndIf */\012PUSHW[ ]	/* 1 value pushed */\0120 \012RCVT[ ]	/* ReadCVT */\012IF[ ]	/* If */\012PUSHW[ ]	/* 1 value pushed */\01221 \012MDAP[1]	/* MoveDirectAbsPt */\012ELSE[ ]	/* Else */\012PUSHW[ ]	/* 2 values pushed */\01221 7 \012MIAP[0]	/* MoveIndirectAbsPt */\012EIF[ ]	/* EndIf */\012PUSHW[ ]	/* 1 value pushed */\0120 \012RCVT[ ]	/* ReadCVT */\012IF[ ]	/* If */\012PUSHW[ ]	/* 1 value pushed */\01228 \012MDAP[1]	/* MoveDirectAbsPt */\012ELSE[ ]	/* Else */\012PUSHW[ ]	/* 2 values pushed */\01228 7 \012MIAP[0]	/* MoveIndirectAbsPt */\012EIF[ ]	/* EndIf */\012PUSHW[ ]	/* 3 values pushed */\0120 21 23 \012SRP1[ ]	/* SetRefPoint1 */\012SRP2[ ]	/* SetRefPoint2 */\012IP[ ]	/* InterpolatePts */\012PUSHW[ ]	/* 3 values pushed */\0125 21 23 \012SRP1[ ]	/* SetRefPoint1 */\012SRP2[ ]	/* SetRefPoint2 */\012IP[ ]	/* InterpolatePts */\012PUSHW[ ]	/* 3 values pushed */\01214 21 23 \012SRP1[ ]	/* SetRefPoint1 */\012SRP2[ ]	/* SetRefPoint2 */\012IP[ ]	/* InterpolatePts */\012PUSHW[ ]	/* 3 values pushed */\01219 21 23 \012SRP1[ ]	/* SetRefPoint1 */\012SRP2[ ]	/* SetRefPoint2 */\012IP[ ]	/* InterpolatePts */\012PUSHW[ ]	/* 3 values pushed */\01220 21 23 \012SRP1[ ]	/* SetRefPoint1 */\012SRP2[ ]	/* SetRefPoint2 */\012IP[ ]	/* InterpolatePts */\012PUSHW[ ]	/* 3 values pushed */\01225 21 23 \012SRP1[ ]	/* SetRefPoint1 */\012SRP2[ ]	/* SetRefPoint2 */\012IP[ ]	/* InterpolatePts */\012IUP[0]	/* InterpolateUntPts */\012IUP[1]	/* InterpolateUntPts */";
};
width = 450;
}
);
note = N.tabular;
},
{
color = 4;
glyphname = O.ss01;
lastChange = "2021-12-07 22:57:43 +0000";
layers = (
{
anchors = (
{
name = bottom;
position = "{193, 0}";
},
{
name = center;
position = "{244, 296}";
},
{
name = ogonek;
position = "{235, 0}";
},
{
name = top;
position = "{264, 495}";
},
{
name = topleft;
position = "{83, 591}";
},
{
name = topright;
position = "{306, 495}";
}
);
layerId = "6544E2DB-1912-401E-9B5B-A29F161A5995";
paths = (
{
closed = 1;
nodes = (
"296 -9 OFFCURVE",
"345 25 OFFCURVE",
"363 158 CURVE SMOOTH",
"393 377 LINE SMOOTH",
"406 470 OFFCURVE",
"356 505 OFFCURVE",
"264 505 CURVE SMOOTH",
"172 505 OFFCURVE",
"106 472 OFFCURVE",
"93 377 CURVE SMOOTH",
"63 157 LINE SMOOTH",
"45 25 OFFCURVE",
"89 -9 OFFCURVE",
"192 -9 CURVE SMOOTH"
);
},
{
closed = 1;
nodes = (
"102 9 OFFCURVE",
"64 41 OFFCURVE",
"80 157 CURVE SMOOTH",
"110 377 LINE SMOOTH",
"121 458 OFFCURVE",
"179 487 OFFCURVE",
"262 487 CURVE SMOOTH",
"343 487 OFFCURVE",
"388 458 OFFCURVE",
"377 377 CURVE SMOOTH",
"347 158 LINE SMOOTH",
"331 41 OFFCURVE",
"287 9 OFFCURVE",
"195 9 CURVE SMOOTH"
);
},
{
closed = 1;
nodes = (
"280 18 OFFCURVE",
"323 47 OFFCURVE",
"338 158 CURVE SMOOTH",
"368 377 LINE SMOOTH",
"378 452 OFFCURVE",
"337 478 OFFCURVE",
"261 478 CURVE SMOOTH",
"184 478 OFFCURVE",
"128 452 OFFCURVE",
"118 377 CURVE SMOOTH",
"88 157 LINE SMOOTH",
"73 47 OFFCURVE",
"109 18 OFFCURVE",
"196 18 CURVE SMOOTH"
);
},
{
closed = 1;
nodes = (
"202 87 OFFCURVE",
"199 89 OFFCURVE",
"198 92 CURVE SMOOTH",
"196 95 OFFCURVE",
"196 100 OFFCURVE",
"197 109 CURVE SMOOTH",
"235 382 LINE SMOOTH",
"236 391 OFFCURVE",
"238 398 OFFCURVE",
"241 401 CURVE SMOOTH",
"244 404 OFFCURVE",
"247 406 OFFCURVE",
"251 406 CURVE SMOOTH",
"254 406 OFFCURVE",
"257 404 OFFCURVE",
"258 401 CURVE SMOOTH",
"259 398 OFFCURVE",
"259 391 OFFCURVE",
"258 382 CURVE SMOOTH",
"220 109 LINE SMOOTH",
"219 100 OFFCURVE",
"217 95 OFFCURVE",
"215 92 CURVE SMOOTH",
"212 89 OFFCURVE",
"209 87 OFFCURVE",
"206 87 CURVE SMOOTH"
);
},
{
closed = 1;
nodes = (
"208 96 OFFCURVE",
"209 100 OFFCURVE",
"211 109 CURVE",
"249 382 LINE SMOOTH",
"250 392 OFFCURVE",
"251 397 OFFCURVE",
"249 397 CURVE SMOOTH",
"248 397 OFFCURVE",
"245 392 OFFCURVE",
"244 382 CURVE SMOOTH",
"206 109 LINE",
"204 100 OFFCURVE",
"204 96 OFFCURVE",
"207 96 CURVE SMOOTH"
);
}
);
userData = {
assembly = "SVTCA[0]	/* SetFreedomAndProjectionVectorToAxis */\012PUSHW[ ]	/* 1 value pushed */\01269 \012MDAP[1]	/* MoveDirectAbsPt */\012PUSHW[ ]	/* 1 value pushed */\0120 \012RCVT[ ]	/* ReadCVT */\012IF[ ]	/* If */\012PUSHW[ ]	/* 1 value pushed */\01260 \012MDAP[1]	/* MoveDirectAbsPt */\012ELSE[ ]	/* Else */\012PUSHW[ ]	/* 2 values pushed */\01260 7 \012MIAP[0]	/* MoveIndirectAbsPt */\012EIF[ ]	/* EndIf */\012IUP[0]	/* InterpolateUntPts */\012IUP[1]	/* InterpolateUntPts */";
};
width = 450;
}
);
note = O.tabular;
},
{
color = 4;
glyphname = Oslash.ss01;
lastChange = "2021-12-07 22:57:43 +0000";
layers = (
{
layerId = "6544E2DB-1912-401E-9B5B-A29F161A5995";
paths = (
{
closed = 1;
nodes = (
"104 -40 LINE",
"107 -35 OFFCURVE",
"110 -29 OFFCURVE",
"115 -22 CURVE SMOOTH",
"128 -1 LINE",
"149 -8 OFFCURVE",
"172 -9 OFFCURVE",
"197 -9 CURVE SMOOTH",
"304 -9 OFFCURVE",
"354 26 OFFCURVE",
"374 160 CURVE SMOOTH",
"405 382 LINE SMOOTH",
"408 402 OFFCURVE",
"408 420 OFFCURVE",
"405 435 CURVE",
"478 549 LINE",
"345 549 LINE",
"319 508 LINE",
"304 511 OFFCURVE",
"287 512 OFFCURVE",
"270 512 CURVE SMOOTH",
"175 512 OFFCURVE",
"107 477 OFFCURVE",
"94 382 CURVE SMOOTH",
"63 159 LINE SMOOTH",
"59 135 OFFCURVE",
"58 114 OFFCURVE",
"59 95 CURVE",
"-26 -40 LINE"
);
},
{
closed = 1;
nodes = (
"215 97 OFFCURVE",
"216 102 OFFCURVE",
"217 111 CURVE SMOOTH",
"228 186 LINE",
"220 174 LINE",
"211 111 LINE SMOOTH",
"210 102 OFFCURVE",
"211 97 OFFCURVE",
"212 97 CURVE SMOOTH"
);
},
{
closed = 1;
nodes = (
"207 88 OFFCURVE",
"204 90 OFFCURVE",
"203 93 CURVE SMOOTH",
"201 96 OFFCURVE",
"201 102 OFFCURVE",
"202 111 CURVE SMOOTH",
"211 177 LINE",
"241 225 LINE",
"225 111 LINE SMOOTH",
"224 102 OFFCURVE",
"222 96 OFFCURVE",
"220 93 CURVE SMOOTH",
"217 90 OFFCURVE",
"214 88 OFFCURVE",
"211 88 CURVE SMOOTH"
);
},
{
closed = 1;
nodes = (
"77 93 LINE",
"75 111 OFFCURVE",
"76 133 OFFCURVE",
"80 159 CURVE SMOOTH",
"111 382 LINE SMOOTH",
"123 465 OFFCURVE",
"183 494 OFFCURVE",
"268 494 CURVE SMOOTH",
"291 494 OFFCURVE",
"310 493 OFFCURVE",
"325 488 CURVE",
"353 531 LINE",
"445 531 LINE",
"386 436 LINE",
"389 428 OFFCURVE",
"390 420 OFFCURVE",
"390 412 CURVE SMOOTH",
"390 403 OFFCURVE",
"389 393 OFFCURVE",
"388 382 CURVE SMOOTH",
"357 160 LINE SMOOTH",
"340 41 OFFCURVE",
"293 9 OFFCURVE",
"200 9 CURVE SMOOTH",
"169 9 OFFCURVE",
"143 11 OFFCURVE",
"123 22 CURVE",
"95 -22 LINE",
"4 -22 LINE"
);
},
{
closed = 1;
nodes = (
"92 -13 LINE",
"120 34 LINE",
"143 22 OFFCURVE",
"168 18 OFFCURVE",
"201 18 CURVE SMOOTH",
"288 18 OFFCURVE",
"333 47 OFFCURVE",
"348 160 CURVE SMOOTH",
"379 382 LINE SMOOTH",
"382 404 OFFCURVE",
"380 422 OFFCURVE",
"375 436 CURVE",
"430 522 LINE",
"357 522 LINE",
"328 476 LINE",
"311 482 OFFCURVE",
"290 485 OFFCURVE",
"267 485 CURVE SMOOTH",
"188 485 OFFCURVE",
"131 457 OFFCURVE",
"120 382 CURVE SMOOTH",
"89 159 LINE SMOOTH",
"85 132 OFFCURVE",
"84 110 OFFCURVE",
"87 93 CURVE",
"21 -13 LINE"
);
},
{
closed = 1;
nodes = (
"241 388 LINE SMOOTH",
"242 397 OFFCURVE",
"244 404 OFFCURVE",
"247 407 CURVE SMOOTH",
"249 410 OFFCURVE",
"252 411 OFFCURVE",
"256 411 CURVE SMOOTH",
"259 411 OFFCURVE",
"262 410 OFFCURVE",
"264 407 CURVE SMOOTH",
"265 404 OFFCURVE",
"265 397 OFFCURVE",
"264 388 CURVE SMOOTH",
"262 371 LINE",
"232 324 LINE"
);
},
{
closed = 1;
nodes = (
"254 374 LINE",
"256 388 LINE SMOOTH",
"257 397 OFFCURVE",
"256 402 OFFCURVE",
"255 402 CURVE SMOOTH",
"252 402 OFFCURVE",
"251 397 OFFCURVE",
"250 388 CURVE SMOOTH",
"246 362 LINE"
);
}
);
userData = {
assembly = "SVTCA[0]	/* SetFreedomAndProjectionVectorToAxis */\012PUSHW[ ]	/* 1 value pushed */\01297 \012MDAP[1]	/* MoveDirectAbsPt */\012PUSHW[ ]	/* 1 value pushed */\012113 \012MDAP[1]	/* MoveDirectAbsPt */\012PUSHW[ ]	/* 3 values pushed */\01210 113 97 \012SRP1[ ]	/* SetRefPoint1 */\012SRP2[ ]	/* SetRefPoint2 */\012IP[ ]	/* InterpolatePts */\012PUSHW[ ]	/* 3 values pushed */\01224 113 97 \012SRP1[ ]	/* SetRefPoint1 */\012SRP2[ ]	/* SetRefPoint2 */\012IP[ ]	/* InterpolatePts */\012PUSHW[ ]	/* 3 values pushed */\01229 113 97 \012SRP1[ ]	/* SetRefPoint1 */\012SRP2[ ]	/* SetRefPoint2 */\012IP[ ]	/* InterpolatePts */\012PUSHW[ ]	/* 3 values pushed */\01234 113 97 \012SRP1[ ]	/* SetRefPoint1 */\012SRP2[ ]	/* SetRefPoint2 */\012IP[ ]	/* InterpolatePts */\012PUSHW[ ]	/* 3 values pushed */\01249 113 97 \012SRP1[ ]	/* SetRefPoint1 */\012SRP2[ ]	/* SetRefPoint2 */\012IP[ ]	/* InterpolatePts */\012PUSHW[ ]	/* 3 values pushed */\01254 113 97 \012SRP1[ ]	/* SetRefPoint1 */\012SRP2[ ]	/* SetRefPoint2 */\012IP[ ]	/* InterpolatePts */\012PUSHW[ ]	/* 3 values pushed */\01257 113 97 \012SRP1[ ]	/* SetRefPoint1 */\012SRP2[ ]	/* SetRefPoint2 */\012IP[ ]	/* InterpolatePts */\012PUSHW[ ]	/* 3 values pushed */\01272 113 97 \012SRP1[ ]	/* SetRefPoint1 */\012SRP2[ ]	/* SetRefPoint2 */\012IP[ ]	/* InterpolatePts */\012IUP[0]	/* InterpolateUntPts */\012IUP[1]	/* InterpolateUntPts */";
};
width = 450;
}
);
note = Oslash.tabular;
},
{
color = 4;
glyphname = OE.ss01;
lastChange = "2021-12-07 22:57:43 +0000";
layers = (
{
layerId = "6544E2DB-1912-401E-9B5B-A29F161A5995";
paths = (
{
closed = 1;
nodes = (
"166.667 -9 OFFCURVE",
"192.333 -6.667 OFFCURVE",
"215 0 CURVE",
"390 0 LINE",
"408 135 LINE",
"320 135 LINE",
"327 181 LINE",
"408 181 LINE",
"429 329 LINE",
"348 329 LINE",
"352 361 LINE",
"440 361 LINE",
"459 498 LINE",
"276 498 LINE",
"258 502.667 OFFCURVE",
"236.667 505 OFFCURVE",
"212 505 CURVE SMOOTH",
"116 505 OFFCURVE",
"48.667 471.667 OFFCURVE",
"34 377 CURVE SMOOTH",
"4 157 LINE SMOOTH",
"-15.584 24.811 OFFCURVE",
"33.672 -9 OFFCURVE",
"140 -9 CURVE SMOOTH"
);
},
{
closed = 1;
nodes = (
"150 87 OFFCURVE",
"147.167 88.5 OFFCURVE",
"145.5 91.5 CURVE SMOOTH",
"143.833 94.5 OFFCURVE",
"143.667 100.333 OFFCURVE",
"145 109 CURVE SMOOTH",
"183 382 LINE SMOOTH",
"184.333 391.333 OFFCURVE",
"186.333 397.667 OFFCURVE",
"189 401 CURVE SMOOTH",
"191.667 404.333 OFFCURVE",
"195 406 OFFCURVE",
"199 406 CURVE SMOOTH",
"202.333 406 OFFCURVE",
"204.667 404.333 OFFCURVE",
"206 401 CURVE SMOOTH",
"207.333 397.667 OFFCURVE",
"207.333 391.333 OFFCURVE",
"206 382 CURVE SMOOTH",
"168 109 LINE SMOOTH",
"166.667 100.333 OFFCURVE",
"164.833 94.5 OFFCURVE",
"162.5 91.5 CURVE SMOOTH",
"160.167 88.5 OFFCURVE",
"157.333 87 OFFCURVE",
"154 87 CURVE SMOOTH"
);
},
{
closed = 1;
nodes = (
"155.667 96 OFFCURVE",
"157 100.333 OFFCURVE",
"159 109 CURVE",
"197 382 LINE SMOOTH",
"199 392 OFFCURVE",
"199 397 OFFCURVE",
"197 397 CURVE SMOOTH",
"195 397 OFFCURVE",
"193 392 OFFCURVE",
"191 382 CURVE SMOOTH",
"153 109 LINE",
"151 100.333 OFFCURVE",
"151.667 96 OFFCURVE",
"155 96 CURVE SMOOTH"
);
},
{
closed = 1;
nodes = (
"47.632 9 OFFCURVE",
"4.911 39.817 OFFCURVE",
"22 157 CURVE SMOOTH",
"52 377 LINE SMOOTH",
"64 458.333 OFFCURVE",
"123.333 487 OFFCURVE",
"210 487 CURVE SMOOTH",
"231.333 487 OFFCURVE",
"256 484 OFFCURVE",
"272 480 CURVE",
"440 480 LINE",
"426 379 LINE",
"338 379 LINE",
"328 311 LINE",
"409 311 LINE",
"393 199 LINE",
"312 199 LINE",
"301 117 LINE",
"389 117 LINE",
"375 18 LINE",
"214 18 LINE",
"192.667 12 OFFCURVE",
"169 9 OFFCURVE",
"143 9 CURVE SMOOTH"
);
},
{
closed = 1;
nodes = (
"169.333 18 OFFCURVE",
"192 21 OFFCURVE",
"212 27 CURVE",
"367 27 LINE",
"379 108 LINE",
"291 108 LINE",
"305 208 LINE",
"386 208 LINE",
"399 302 LINE",
"318 302 LINE",
"330 388 LINE",
"418 388 LINE",
"430 471 LINE",
"269 471 LINE",
"250.333 475 OFFCURVE",
"231.667 478 OFFCURVE",
"209 478 CURVE SMOOTH",
"129 478 OFFCURVE",
"70.667 451.667 OFFCURVE",
"60 377 CURVE SMOOTH",
"30 157 LINE SMOOTH",
"15.212 46.089 OFFCURVE",
"54.219 18 OFFCURVE",
"144 18 CURVE SMOOTH"
);
}
);
userData = {
assembly = "SVTCA[0]	/* SetFreedomAndProjectionVectorToAxis */\012PUSHW[ ]	/* 1 value pushed */\01283 \012MDAP[1]	/* MoveDirectAbsPt */\012PUSHW[ ]	/* 1 value pushed */\01285 \012MDAP[1]	/* MoveDirectAbsPt */\012PUSHW[ ]	/* 1 value pushed */\0120 \012RCVT[ ]	/* ReadCVT */\012IF[ ]	/* If */\012PUSHW[ ]	/* 1 value pushed */\01286 \012MDAP[1]	/* MoveDirectAbsPt */\012ELSE[ ]	/* Else */\012PUSHW[ ]	/* 2 values pushed */\01286 11 \012MIAP[0]	/* MoveIndirectAbsPt */\012EIF[ ]	/* EndIf */\012PUSHW[ ]	/* 1 value pushed */\0120 \012RCVT[ ]	/* ReadCVT */\012IF[ ]	/* If */\012PUSHW[ ]	/* 1 value pushed */\01295 \012MDAP[1]	/* MoveDirectAbsPt */\012ELSE[ ]	/* Else */\012PUSHW[ ]	/* 2 values pushed */\01295 7 \012MIAP[0]	/* MoveIndirectAbsPt */\012EIF[ ]	/* EndIf */\012PUSHW[ ]	/* 1 value pushed */\0120 \012RCVT[ ]	/* ReadCVT */\012IF[ ]	/* If */\012PUSHW[ ]	/* 1 value pushed */\01274 \012MDAP[1]	/* MoveDirectAbsPt */\012ELSE[ ]	/* Else */\012PUSHW[ ]	/* 2 values pushed */\01274 7 \012MIAP[0]	/* MoveIndirectAbsPt */\012EIF[ ]	/* EndIf */\012PUSHW[ ]	/* 4 values pushed */\01221 2 22 4 \012CALL[ ]	/* CallFunction */\012PUSHW[ ]	/* 4 values pushed */\01256 2 53 4 \012CALL[ ]	/* CallFunction */\012PUSHW[ ]	/* 4 values pushed */\01217 4 91 4 \012CALL[ ]	/* CallFunction */\012PUSHW[ ]	/* 4 values pushed */\01260 2 57 4 \012CALL[ ]	/* CallFunction */\012PUSHW[ ]	/* 4 values pushed */\01289 4 18 4 \012CALL[ ]	/* CallFunction */\012PUSHW[ ]	/* 1 value pushed */\01274 \012SRP0[ ]	/* SetRefPoint0 */\012PUSHW[ ]	/* 1 value pushed */\0120 \012MDRP[11100]	/* MoveDirectRelPt */\012NPUSHW[ ]	/* 27 values pushed */\0127 0 23 0 39 0 55 0 71 0 87 0 103 0 119 0 135 0 151 0 167 0 183 0 199 0 13 \012DELTAP1[ ]	/* DeltaExceptionP1 */\012NPUSHW[ ]	/* 5 values pushed */\012214 0 230 0 2 \012DELTAP1[ ]	/* DeltaExceptionP1 */\012PUSHW[ ]	/* 1 value pushed */\01286 \012SRP0[ ]	/* SetRefPoint0 */\012PUSHW[ ]	/* 2 values pushed */\01214 4 \012MIRP[10100]	/* MoveIndirectRelPt */\012PUSHW[ ]	/* 2 values pushed */\01213 2 \012MIRP[10100]	/* MoveIndirectRelPt */\012PUSHW[ ]	/* 1 value pushed */\0129 \012MDRP[10000]	/* MoveDirectRelPt */\012PUSHW[ ]	/* 1 value pushed */\0129 \012MDAP[1]	/* MoveDirectAbsPt */\012PUSHW[ ]	/* 1 value pushed */\0120 \012SRP0[ ]	/* SetRefPoint0 */\012PUSHW[ ]	/* 1 value pushed */\01251 \012MDRP[10000]	/* MoveDirectRelPt */\012PUSHW[ ]	/* 1 value pushed */\01252 \012MDRP[10000]	/* MoveDirectRelPt */\012PUSHW[ ]	/* 1 value pushed */\01213 \012SRP0[ ]	/* SetRefPoint0 */\012PUSHW[ ]	/* 2 values pushed */\01287 4 \012MIRP[10100]	/* MoveIndirectRelPt */\012PUSHW[ ]	/* 1 value pushed */\01222 \012SRP0[ ]	/* SetRefPoint0 */\012PUSHW[ ]	/* 2 values pushed */\01294 4 \012MIRP[10100]	/* MoveIndirectRelPt */\012IUP[0]	/* InterpolateUntPts */\012IUP[1]	/* InterpolateUntPts */";
};
width = 450;
}
);
note = OE.tabular;
},
{
color = 4;
glyphname = P.ss01;
lastChange = "2021-12-07 22:57:43 +0000";
layers = (
{
layerId = "6544E2DB-1912-401E-9B5B-A29F161A5995";
paths = (
{
closed = 1;
nodes = (
"219 0 LINE",
"242 168 LINE",
"269 168 LINE SMOOTH",
"353 168 OFFCURVE",
"386 237 OFFCURVE",
"397 320 CURVE SMOOTH",
"408 394 LINE SMOOTH",
"416 453 OFFCURVE",
"389 496 OFFCURVE",
"310 496 CURVE SMOOTH",
"122 496 LINE",
"53 0 LINE"
);
},
{
closed = 1;
nodes = (
"137 478 LINE",
"308 478 LINE SMOOTH",
"376 478 OFFCURVE",
"399 443 OFFCURVE",
"392 394 CURVE SMOOTH",
"381 320 LINE SMOOTH",
"373 249 OFFCURVE",
"342 186 OFFCURVE",
"272 186 CURVE SMOOTH",
"229 186 LINE",
"205 18 LINE",
"72 18 LINE"
);
},
{
closed = 1;
nodes = (
"197 27 LINE",
"221 194 LINE",
"273 194 LINE SMOOTH",
"336 194 OFFCURVE",
"364 253 OFFCURVE",
"372 320 CURVE SMOOTH",
"383 394 LINE SMOOTH",
"390 438 OFFCURVE",
"369 469 OFFCURVE",
"306 469 CURVE SMOOTH",
"143 469 LINE",
"81 27 LINE"
);
},
{
closed = 1;
nodes = (
"251 407 LINE",
"262 407 LINE SMOOTH",
"269 407 OFFCURVE",
"272 402 OFFCURVE",
"271 391 CURVE SMOOTH",
"270 380 OFFCURVE",
"268 360 OFFCURVE",
"264 333 CURVE SMOOTH",
"260 305 OFFCURVE",
"256 286 OFFCURVE",
"253 275 CURVE SMOOTH",
"249 264 OFFCURVE",
"244 259 OFFCURVE",
"239 259 CURVE SMOOTH",
"230 259 LINE"
);
},
{
closed = 1;
nodes = (
"242 268 OFFCURVE",
"244 273 OFFCURVE",
"247 282 CURVE SMOOTH",
"249 291 OFFCURVE",
"252 308 OFFCURVE",
"255 333 CURVE SMOOTH",
"262 384 LINE SMOOTH",
"263 393 OFFCURVE",
"262 398 OFFCURVE",
"260 398 CURVE SMOOTH",
"258 398 LINE",
"240 268 LINE"
);
}
);
userData = {
assembly = "SVTCA[0]	/* SetFreedomAndProjectionVectorToAxis */\012PUSHW[ ]	/* 1 value pushed */\0120 \012RCVT[ ]	/* ReadCVT */\012IF[ ]	/* If */\012PUSHW[ ]	/* 1 value pushed */\01245 \012MDAP[1]	/* MoveDirectAbsPt */\012ELSE[ ]	/* Else */\012PUSHW[ ]	/* 2 values pushed */\01245 11 \012MIAP[0]	/* MoveIndirectAbsPt */\012EIF[ ]	/* EndIf */\012PUSHW[ ]	/* 1 value pushed */\0120 \012RCVT[ ]	/* ReadCVT */\012IF[ ]	/* If */\012PUSHW[ ]	/* 1 value pushed */\01257 \012MDAP[1]	/* MoveDirectAbsPt */\012ELSE[ ]	/* Else */\012PUSHW[ ]	/* 2 values pushed */\01257 7 \012MIAP[0]	/* MoveIndirectAbsPt */\012EIF[ ]	/* EndIf */\012PUSHW[ ]	/* 3 values pushed */\01230 57 45 \012SRP1[ ]	/* SetRefPoint1 */\012SRP2[ ]	/* SetRefPoint2 */\012IP[ ]	/* InterpolatePts */\012IUP[0]	/* InterpolateUntPts */\012IUP[1]	/* InterpolateUntPts */";
};
width = 450;
}
);
note = P.tabular;
},
{
color = 4;
glyphname = Q.ss01;
lastChange = "2021-12-07 22:57:43 +0000";
layers = (
{
layerId = "6544E2DB-1912-401E-9B5B-A29F161A5995";
paths = (
{
closed = 1;
nodes = (
"343 -35 LINE",
"314 39 LINE",
"335 66 OFFCURVE",
"350 104 OFFCURVE",
"358 160 CURVE SMOOTH",
"389 383 LINE SMOOTH",
"404 479 OFFCURVE",
"353 514 OFFCURVE",
"261 514 CURVE SMOOTH",
"169 514 OFFCURVE",
"104 479 OFFCURVE",
"89 383 CURVE SMOOTH",
"58 159 LINE SMOOTH",
"38 30 OFFCURVE",
"82 -6 OFFCURVE",
"177 -9 CURVE",
"216 -108 LINE"
);
},
{
closed = 1;
nodes = (
"190 9 LINE",
"97 9 OFFCURVE",
"58 42 OFFCURVE",
"75 159 CURVE SMOOTH",
"106 383 LINE SMOOTH",
"118 466 OFFCURVE",
"175 495 OFFCURVE",
"258 495 CURVE SMOOTH",
"339 495 OFFCURVE",
"385 466 OFFCURVE",
"373 383 CURVE SMOOTH",
"342 160 LINE SMOOTH",
"334 100 OFFCURVE",
"317 64 OFFCURVE",
"294 41 CURVE",
"322 -28 LINE",
"226 -84 LINE"
);
},
{
closed = 1;
nodes = (
"310 -25 LINE",
"284 43 LINE",
"307 63 OFFCURVE",
"324 97 OFFCURVE",
"333 160 CURVE SMOOTH",
"364 383 LINE SMOOTH",
"375 459 OFFCURVE",
"333 486 OFFCURVE",
"257 486 CURVE SMOOTH",
"180 486 OFFCURVE",
"125 459 OFFCURVE",
"114 383 CURVE SMOOTH",
"83 159 LINE SMOOTH",
"68 47 OFFCURVE",
"103 18 OFFCURVE",
"191 18 CURVE SMOOTH",
"196 18 LINE",
"231 -71 LINE"
);
},
{
closed = 1;
nodes = (
"193 88 OFFCURVE",
"190 96 OFFCURVE",
"192 111 CURVE SMOOTH",
"231 389 LINE SMOOTH",
"232 398 OFFCURVE",
"234 405 OFFCURVE",
"237 408 CURVE SMOOTH",
"240 411 OFFCURVE",
"243 413 OFFCURVE",
"247 413 CURVE SMOOTH",
"250 413 OFFCURVE",
"253 411 OFFCURVE",
"254 408 CURVE SMOOTH",
"255 405 OFFCURVE",
"255 398 OFFCURVE",
"254 389 CURVE SMOOTH",
"215 111 LINE SMOOTH",
"213 96 OFFCURVE",
"208 88 OFFCURVE",
"201 88 CURVE SMOOTH"
);
},
{
closed = 1;
nodes = (
"204 97 OFFCURVE",
"205 102 OFFCURVE",
"206 111 CURVE SMOOTH",
"245 389 LINE SMOOTH",
"247 398 OFFCURVE",
"247 403 OFFCURVE",
"245 403 CURVE SMOOTH",
"243 403 OFFCURVE",
"241 398 OFFCURVE",
"239 389 CURVE SMOOTH",
"200 111 LINE SMOOTH",
"199 102 OFFCURVE",
"200 97 OFFCURVE",
"202 97 CURVE SMOOTH"
);
}
);
userData = {
assembly = "SVTCA[0]	/* SetFreedomAndProjectionVectorToAxis */\012PUSHW[ ]	/* 1 value pushed */\01279 \012MDAP[1]	/* MoveDirectAbsPt */\012PUSHW[ ]	/* 1 value pushed */\01270 \012MDAP[1]	/* MoveDirectAbsPt */\012PUSHW[ ]	/* 1 value pushed */\0120 \012RCVT[ ]	/* ReadCVT */\012IF[ ]	/* If */\012PUSHW[ ]	/* 1 value pushed */\01251 \012MDAP[1]	/* MoveDirectAbsPt */\012ELSE[ ]	/* Else */\012PUSHW[ ]	/* 2 values pushed */\01251 11 \012MIAP[0]	/* MoveIndirectAbsPt */\012EIF[ ]	/* EndIf */\012IUP[0]	/* InterpolateUntPts */\012IUP[1]	/* InterpolateUntPts */";
};
width = 450;
}
);
note = Q.tabular;
},
{
color = 4;
glyphname = R.ss01;
lastChange = "2021-12-07 22:57:43 +0000";
layers = (
{
layerId = "6544E2DB-1912-401E-9B5B-A29F161A5995";
paths = (
{
closed = 1;
nodes = (
"376 0 LINE",
"356 194 LINE",
"352 211 OFFCURVE",
"348 224 OFFCURVE",
"343 234 CURVE",
"371 257 OFFCURVE",
"384 292 OFFCURVE",
"388 327 CURVE SMOOTH",
"398 394 LINE SMOOTH",
"406 454 OFFCURVE",
"378 496 OFFCURVE",
"297 496 CURVE SMOOTH",
"107 496 LINE",
"38 0 LINE"
);
},
{
closed = 1;
nodes = (
"122 478 LINE",
"295 478 LINE SMOOTH",
"364 478 OFFCURVE",
"388 443 OFFCURVE",
"381 394 CURVE SMOOTH",
"371 327 LINE SMOOTH",
"366 288 OFFCURVE",
"355 255 OFFCURVE",
"316 236 CURVE",
"327 228 OFFCURVE",
"335 211 OFFCURVE",
"340 184 CURVE",
"357 18 LINE",
"215 21 LINE",
"214 40 OFFCURVE",
"213 58 OFFCURVE",
"212 74 CURVE SMOOTH",
"209 113 LINE SMOOTH",
"208 125 OFFCURVE",
"208 132 OFFCURVE",
"207 134 CURVE",
"191 18 LINE",
"57 18 LINE"
);
},
{
closed = 1;
nodes = (
"184 27 LINE",
"212 223 LINE",
"213 223 LINE",
"213 220 OFFCURVE",
"216 145 OFFCURVE",
"217 122 CURVE SMOOTH",
"218 94 OFFCURVE",
"219 62 OFFCURVE",
"220 27 CURVE",
"347 27 LINE",
"331 188 LINE",
"323 227 OFFCURVE",
"310 233 OFFCURVE",
"291 236 CURVE",
"339 248 OFFCURVE",
"357 284 OFFCURVE",
"362 327 CURVE SMOOTH",
"372 394 LINE SMOOTH",
"379 438 OFFCURVE",
"357 469 OFFCURVE",
"293 469 CURVE SMOOTH",
"128 469 LINE",
"66 27 LINE"
);
},
{
closed = 1;
nodes = (
"238 407 LINE",
"249 407 LINE SMOOTH",
"256 407 OFFCURVE",
"259 402 OFFCURVE",
"258 391 CURVE SMOOTH",
"257 380 OFFCURVE",
"255 360 OFFCURVE",
"251 333 CURVE SMOOTH",
"247 305 OFFCURVE",
"243 287 OFFCURVE",
"240 279 CURVE SMOOTH",
"237 271 OFFCURVE",
"232 267 OFFCURVE",
"227 267 CURVE SMOOTH",
"218 267 LINE"
);
},
{
closed = 1;
nodes = (
"228 276 LINE SMOOTH",
"231 276 OFFCURVE",
"233 280 OFFCURVE",
"235 287 CURVE SMOOTH",
"236 294 OFFCURVE",
"239 309 OFFCURVE",
"242 333 CURVE SMOOTH",
"249 384 LINE SMOOTH",
"250 393 OFFCURVE",
"249 398 OFFCURVE",
"247 398 CURVE SMOOTH",
"244 398 LINE",
"227 276 LINE"
);
}
);
userData = {
assembly = "SVTCA[0]	/* SetFreedomAndProjectionVectorToAxis */\012PUSHW[ ]	/* 1 value pushed */\0120 \012RCVT[ ]	/* ReadCVT */\012IF[ ]	/* If */\012PUSHW[ ]	/* 1 value pushed */\01262 \012MDAP[1]	/* MoveDirectAbsPt */\012ELSE[ ]	/* Else */\012PUSHW[ ]	/* 2 values pushed */\01262 11 \012MIAP[0]	/* MoveIndirectAbsPt */\012EIF[ ]	/* EndIf */\012PUSHW[ ]	/* 1 value pushed */\0120 \012RCVT[ ]	/* ReadCVT */\012IF[ ]	/* If */\012PUSHW[ ]	/* 1 value pushed */\01273 \012MDAP[1]	/* MoveDirectAbsPt */\012ELSE[ ]	/* Else */\012PUSHW[ ]	/* 2 values pushed */\01273 7 \012MIAP[0]	/* MoveIndirectAbsPt */\012EIF[ ]	/* EndIf */\012PUSHW[ ]	/* 3 values pushed */\0128 73 62 \012SRP1[ ]	/* SetRefPoint1 */\012SRP2[ ]	/* SetRefPoint2 */\012IP[ ]	/* InterpolatePts */\012PUSHW[ ]	/* 3 values pushed */\01221 73 62 \012SRP1[ ]	/* SetRefPoint1 */\012SRP2[ ]	/* SetRefPoint2 */\012IP[ ]	/* InterpolatePts */\012PUSHW[ ]	/* 3 values pushed */\01241 73 62 \012SRP1[ ]	/* SetRefPoint1 */\012SRP2[ ]	/* SetRefPoint2 */\012IP[ ]	/* InterpolatePts */\012PUSHW[ ]	/* 3 values pushed */\01253 73 62 \012SRP1[ ]	/* SetRefPoint1 */\012SRP2[ ]	/* SetRefPoint2 */\012IP[ ]	/* InterpolatePts */\012IUP[0]	/* InterpolateUntPts */\012IUP[1]	/* InterpolateUntPts */";
};
width = 450;
}
);
note = R.tabular;
},
{
color = 4;
glyphname = S.ss01;
lastChange = "2021-12-07 22:57:43 +0000";
layers = (
{
anchors = (
{
name = bottom;
position = "{203, 0}";
},
{
name = top;
position = "{262, 495}";
}
);
layerId = "6544E2DB-1912-401E-9B5B-A29F161A5995";
paths = (
{
closed = 1;
nodes = (
"290 -6 OFFCURVE",
"357 38 OFFCURVE",
"372 156 CURVE SMOOTH",
"383 233 OFFCURVE",
"372 265 OFFCURVE",
"337 288 CURVE",
"386 288 LINE",
"397 364 LINE SMOOTH",
"410 454 OFFCURVE",
"364 499 OFFCURVE",
"263 499 CURVE SMOOTH",
"145 499 OFFCURVE",
"103 459 OFFCURVE",
"87 343 CURVE SMOOTH",
"76 271 OFFCURVE",
"84 224 OFFCURVE",
"132 195 CURVE",
"61 195 LINE",
"55 154 LINE SMOOTH",
"37 32 OFFCURVE",
"80 -6 OFFCURVE",
"187 -6 CURVE SMOOTH"
);
},
{
closed = 1;
nodes = (
"208 97 OFFCURVE",
"210 99 OFFCURVE",
"211 103 CURVE SMOOTH",
"212 107 OFFCURVE",
"214 116 OFFCURVE",
"216 129 CURVE SMOOTH",
"219 145 OFFCURVE",
"215 155 OFFCURVE",
"210 166 CURVE",
"205 135 LINE SMOOTH",
"202 118 OFFCURVE",
"202 108 OFFCURVE",
"202 104 CURVE SMOOTH",
"202 99 OFFCURVE",
"203 97 OFFCURVE",
"206 97 CURVE SMOOTH"
);
},
{
closed = 1;
nodes = (
"94 12 OFFCURVE",
"58 45 OFFCURVE",
"72 154 CURVE SMOOTH",
"75 177 LINE",
"201 177 LINE",
"190 186 OFFCURVE",
"176 193 OFFCURVE",
"156 204 CURVE SMOOTH",
"105 231 OFFCURVE",
"93 274 OFFCURVE",
"104 343 CURVE SMOOTH",
"117 444 OFFCURVE",
"155 481 OFFCURVE",
"260 481 CURVE SMOOTH",
"351 481 OFFCURVE",
"392 442 OFFCURVE",
"381 364 CURVE SMOOTH",
"373 306 LINE",
"256 306 LINE",
"260 303 OFFCURVE",
"264 302 OFFCURVE",
"281 295 CURVE",
"352 264 OFFCURVE",
"368 243 OFFCURVE",
"356 156 CURVE SMOOTH",
"341 50 OFFCURVE",
"285 12 OFFCURVE",
"189 12 CURVE SMOOTH"
);
},
{
closed = 1;
nodes = (
"277 21 OFFCURVE",
"334 58 OFFCURVE",
"347 156 CURVE SMOOTH",
"359 238 OFFCURVE",
"341 260 OFFCURVE",
"278 286 CURVE SMOOTH",
"245 298 OFFCURVE",
"223 306 OFFCURVE",
"228 348 CURVE SMOOTH",
"231 369 OFFCURVE",
"236 388 OFFCURVE",
"248 388 CURVE SMOOTH",
"255 388 OFFCURVE",
"259 383 OFFCURVE",
"259 373 CURVE SMOOTH",
"259 362 OFFCURVE",
"256 347 OFFCURVE",
"254 326 CURVE SMOOTH",
"253 315 LINE",
"365 315 LINE",
"372 364 LINE SMOOTH",
"382 436 OFFCURVE",
"344 472 OFFCURVE",
"259 472 CURVE SMOOTH",
"160 472 OFFCURVE",
"125 438 OFFCURVE",
"112 343 CURVE SMOOTH",
"101 275 OFFCURVE",
"111 236 OFFCURVE",
"160 212 CURVE SMOOTH",
"213 185 OFFCURVE",
"230 178 OFFCURVE",
"225 129 CURVE SMOOTH",
"222 112 OFFCURVE",
"220 101 OFFCURVE",
"217 96 CURVE SMOOTH",
"214 91 OFFCURVE",
"210 88 OFFCURVE",
"205 88 CURVE SMOOTH",
"200 88 OFFCURVE",
"196 91 OFFCURVE",
"195 97 CURVE SMOOTH",
"193 102 OFFCURVE",
"193 115 OFFCURVE",
"196 135 CURVE SMOOTH",
"201 168 LINE",
"83 168 LINE",
"81 154 LINE SMOOTH",
"66 51 OFFCURVE",
"101 21 OFFCURVE",
"190 21 CURVE SMOOTH"
);
},
{
closed = 1;
nodes = (
"246 326 LINE SMOOTH",
"247 343 OFFCURVE",
"250 357 OFFCURVE",
"251 366 CURVE SMOOTH",
"252 375 OFFCURVE",
"250 379 OFFCURVE",
"247 379 CURVE SMOOTH",
"244 379 OFFCURVE",
"242 376 OFFCURVE",
"241 370 CURVE SMOOTH",
"239 364 OFFCURVE",
"237 357 OFFCURVE",
"236 348 CURVE SMOOTH",
"234 333 OFFCURVE",
"237 322 OFFCURVE",
"245 314 CURVE"
);
}
);
userData = {
assembly = "SVTCA[0]	/* SetFreedomAndProjectionVectorToAxis */\012PUSHW[ ]	/* 1 value pushed */\0120 \012RCVT[ ]	/* ReadCVT */\012IF[ ]	/* If */\012PUSHW[ ]	/* 1 value pushed */\012132 \012MDAP[1]	/* MoveDirectAbsPt */\012ELSE[ ]	/* Else */\012PUSHW[ ]	/* 2 values pushed */\012132 11 \012MIAP[0]	/* MoveIndirectAbsPt */\012EIF[ ]	/* EndIf */\012PUSHW[ ]	/* 1 value pushed */\0120 \012RCVT[ ]	/* ReadCVT */\012IF[ ]	/* If */\012PUSHW[ ]	/* 1 value pushed */\012117 \012MDAP[1]	/* MoveDirectAbsPt */\012ELSE[ ]	/* Else */\012PUSHW[ ]	/* 2 values pushed */\012117 7 \012MIAP[0]	/* MoveIndirectAbsPt */\012EIF[ ]	/* EndIf */\012PUSHW[ ]	/* 4 values pushed */\01217 4 10 4 \012CALL[ ]	/* CallFunction */\012PUSHW[ ]	/* 1 value pushed */\012117 \012SRP0[ ]	/* SetRefPoint0 */\012PUSHW[ ]	/* 2 values pushed */\01216 4 \012MIRP[10100]	/* MoveIndirectRelPt */\012PUSHW[ ]	/* 1 value pushed */\012132 \012SRP0[ ]	/* SetRefPoint0 */\012PUSHW[ ]	/* 2 values pushed */\01245 4 \012MIRP[10100]	/* MoveIndirectRelPt */\012NPUSHW[ ]	/* 9 values pushed */\0128 45 24 45 40 45 56 45 4 \012DELTAP1[ ]	/* DeltaExceptionP1 */\012PUSHW[ ]	/* 2 values pushed */\01237 2 \012MIRP[10100]	/* MoveIndirectRelPt */\012PUSHW[ ]	/* 2 values pushed */\01241 4 \012MIRP[10100]	/* MoveIndirectRelPt */\012PUSHW[ ]	/* 3 values pushed */\01260 117 132 \012SRP1[ ]	/* SetRefPoint1 */\012SRP2[ ]	/* SetRefPoint2 */\012IP[ ]	/* InterpolatePts */\012PUSHW[ ]	/* 3 values pushed */\01269 117 16 \012SRP1[ ]	/* SetRefPoint1 */\012SRP2[ ]	/* SetRefPoint2 */\012IP[ ]	/* InterpolatePts */\012PUSHW[ ]	/* 3 values pushed */\01276 117 132 \012SRP1[ ]	/* SetRefPoint1 */\012SRP2[ ]	/* SetRefPoint2 */\012IP[ ]	/* InterpolatePts */\012PUSHW[ ]	/* 1 value pushed */\01210 \012SRP0[ ]	/* SetRefPoint0 */\012PUSHW[ ]	/* 2 values pushed */\012124 4 \012MIRP[10100]	/* MoveIndirectRelPt */\012PUSHW[ ]	/* 3 values pushed */\01291 10 124 \012SRP1[ ]	/* SetRefPoint1 */\012SRP2[ ]	/* SetRefPoint2 */\012IP[ ]	/* InterpolatePts */\012PUSHW[ ]	/* 3 values pushed */\012109 117 132 \012SRP1[ ]	/* SetRefPoint1 */\012SRP2[ ]	/* SetRefPoint2 */\012IP[ ]	/* InterpolatePts */\012IUP[0]	/* InterpolateUntPts */\012IUP[1]	/* InterpolateUntPts */";
};
width = 450;
}
);
note = S.tabular;
},
{
color = 4;
glyphname = T.ss01;
lastChange = "2021-12-07 22:57:43 +0000";
layers = (
{
layerId = "6544E2DB-1912-401E-9B5B-A29F161A5995";
paths = (
{
closed = 1;
nodes = (
"270 0 LINE",
"320 360 LINE",
"379 360 LINE",
"398 496 LINE",
"121 496 LINE",
"102 360 LINE",
"161 360 LINE",
"111 0 LINE"
);
},
{
closed = 1;
nodes = (
"179 377 LINE",
"120 377 LINE",
"135 478 LINE",
"379 478 LINE",
"364 377 LINE",
"305 377 LINE",
"255 18 LINE",
"129 18 LINE"
);
},
{
closed = 1;
nodes = (
"248 27 LINE",
"299 386 LINE",
"358 386 LINE",
"369 469 LINE",
"141 469 LINE",
"130 386 LINE",
"190 386 LINE",
"139 27 LINE"
);
}
);
userData = {
assembly = "SVTCA[0]	/* SetFreedomAndProjectionVectorToAxis */\012PUSHW[ ]	/* 1 value pushed */\0120 \012RCVT[ ]	/* ReadCVT */\012IF[ ]	/* If */\012PUSHW[ ]	/* 1 value pushed */\01221 \012MDAP[1]	/* MoveDirectAbsPt */\012ELSE[ ]	/* Else */\012PUSHW[ ]	/* 2 values pushed */\01221 11 \012MIAP[0]	/* MoveIndirectAbsPt */\012EIF[ ]	/* EndIf */\012PUSHW[ ]	/* 1 value pushed */\0120 \012RCVT[ ]	/* ReadCVT */\012IF[ ]	/* If */\012PUSHW[ ]	/* 1 value pushed */\01217 \012MDAP[1]	/* MoveDirectAbsPt */\012ELSE[ ]	/* Else */\012PUSHW[ ]	/* 2 values pushed */\01217 7 \012MIAP[0]	/* MoveIndirectAbsPt */\012EIF[ ]	/* EndIf */\012PUSHW[ ]	/* 4 values pushed */\0126 2 7 4 \012CALL[ ]	/* CallFunction */\012PUSHW[ ]	/* 1 value pushed */\01221 \012SRP0[ ]	/* SetRefPoint0 */\012PUSHW[ ]	/* 2 values pushed */\0120 4 \012MIRP[10100]	/* MoveIndirectRelPt */\012PUSHW[ ]	/* 1 value pushed */\0123 \012MDRP[10000]	/* MoveDirectRelPt */\012PUSHW[ ]	/* 1 value pushed */\0124 \012MDRP[10000]	/* MoveDirectRelPt */\012PUSHW[ ]	/* 1 value pushed */\0126 \012SRP0[ ]	/* SetRefPoint0 */\012PUSHW[ ]	/* 2 values pushed */\01223 4 \012MIRP[10100]	/* MoveIndirectRelPt */\012PUSHW[ ]	/* 1 value pushed */\01219 \012MDRP[10000]	/* MoveDirectRelPt */\012IUP[0]	/* InterpolateUntPts */\012IUP[1]	/* InterpolateUntPts */";
};
width = 450;
}
);
note = T.tabular;
},
{
color = 4;
glyphname = U.ss01;
lastChange = "2021-12-07 22:57:43 +0000";
layers = (
{
anchors = (
{
name = bottom;
position = "{188, 0}";
},
{
name = ogonek;
position = "{254, 0}";
},
{
name = top;
position = "{260, 495}";
},
{
name = topright;
position = "{306, 495}";
}
);
layerId = "6544E2DB-1912-401E-9B5B-A29F161A5995";
paths = (
{
closed = 1;
nodes = (
"290 -9 OFFCURVE",
"341 17 OFFCURVE",
"359 150 CURVE SMOOTH",
"407 497 LINE",
"111 497 LINE",
"62 149 LINE SMOOTH",
"43 16 OFFCURVE",
"87 -9 OFFCURVE",
"188 -9 CURVE SMOOTH"
);
},
{
closed = 1;
nodes = (
"100 9 OFFCURVE",
"62 32 OFFCURVE",
"79 149 CURVE SMOOTH",
"126 479 LINE",
"254 479 LINE",
"203 114 LINE SMOOTH",
"202 104 OFFCURVE",
"201 99 OFFCURVE",
"203 99 CURVE SMOOTH",
"206 99 OFFCURVE",
"209 104 OFFCURVE",
"210 114 CURVE SMOOTH",
"261 479 LINE",
"388 479 LINE",
"342 150 LINE SMOOTH",
"325 32 OFFCURVE",
"282 9 OFFCURVE",
"191 9 CURVE SMOOTH"
);
},
{
closed = 1;
nodes = (
"275 18 OFFCURVE",
"318 38 OFFCURVE",
"334 150 CURVE SMOOTH",
"379 470 LINE",
"268 470 LINE",
"218 114 LINE SMOOTH",
"217 105 OFFCURVE",
"215 98 OFFCURVE",
"212 95 CURVE SMOOTH",
"209 92 OFFCURVE",
"206 90 OFFCURVE",
"202 90 CURVE SMOOTH",
"199 90 OFFCURVE",
"196 92 OFFCURVE",
"195 95 CURVE SMOOTH",
"193 98 OFFCURVE",
"193 105 OFFCURVE",
"194 114 CURVE SMOOTH",
"244 470 LINE",
"133 470 LINE",
"87 149 LINE SMOOTH",
"71 39 OFFCURVE",
"106 18 OFFCURVE",
"192 18 CURVE SMOOTH"
);
}
);
userData = {
assembly = "SVTCA[0]	/* SetFreedomAndProjectionVectorToAxis */\012PUSHW[ ]	/* 1 value pushed */\0120 \012RCVT[ ]	/* ReadCVT */\012IF[ ]	/* If */\012PUSHW[ ]	/* 1 value pushed */\01242 \012MDAP[1]	/* MoveDirectAbsPt */\012ELSE[ ]	/* Else */\012PUSHW[ ]	/* 2 values pushed */\01242 11 \012MIAP[0]	/* MoveIndirectAbsPt */\012EIF[ ]	/* EndIf */\012PUSHW[ ]	/* 1 value pushed */\0120 \012RCVT[ ]	/* ReadCVT */\012IF[ ]	/* If */\012PUSHW[ ]	/* 1 value pushed */\01248 \012MDAP[1]	/* MoveDirectAbsPt */\012ELSE[ ]	/* Else */\012PUSHW[ ]	/* 2 values pushed */\01248 7 \012MIAP[0]	/* MoveIndirectAbsPt */\012EIF[ ]	/* EndIf */\012IUP[0]	/* InterpolateUntPts */\012IUP[1]	/* InterpolateUntPts */";
};
width = 450;
}
);
note = U.tabular;
},
{
color = 4;
glyphname = V.ss01;
lastChange = "2021-12-07 22:57:43 +0000";
layers = (
{
layerId = "6544E2DB-1912-401E-9B5B-A29F161A5995";
paths = (
{
closed = 1;
nodes = (
"294 0 LINE",
"434 496 LINE",
"267 496 LINE",
"255 442 LINE",
"258 496 LINE",
"86 496 LINE",
"87 0 LINE"
);
},
{
closed = 1;
nodes = (
"104 478 LINE",
"240 478 LINE",
"227 245 LINE",
"281 478 LINE",
"412 478 LINE",
"282 18 LINE",
"104 18 LINE"
);
},
{
closed = 1;
nodes = (
"275 27 LINE",
"400 469 LINE",
"286 469 LINE",
"215 162 LINE",
"212 145 LINE",
"213 162 LINE",
"230 469 LINE",
"112 469 LINE",
"112 27 LINE"
);
}
);
userData = {
assembly = "PUSHW[ ]	/* 4 values pushed */\0125 6 9 4 \012CALL[ ]	/* CallFunction */\012PUSHW[ ]	/* 3 values pushed */\0127 9 5 \012SRP1[ ]	/* SetRefPoint1 */\012SRP2[ ]	/* SetRefPoint2 */\012IP[ ]	/* InterpolatePts */\012PUSHW[ ]	/* 1 value pushed */\0125 \012SRP0[ ]	/* SetRefPoint0 */\012PUSHW[ ]	/* 1 value pushed */\01214 \012MDRP[10000]	/* MoveDirectRelPt */\012PUSHW[ ]	/* 1 value pushed */\01214 \012MDAP[1]	/* MoveDirectAbsPt */\012SVTCA[0]	/* SetFreedomAndProjectionVectorToAxis */\012PUSHW[ ]	/* 1 value pushed */\0120 \012RCVT[ ]	/* ReadCVT */\012IF[ ]	/* If */\012PUSHW[ ]	/* 1 value pushed */\01216 \012MDAP[1]	/* MoveDirectAbsPt */\012ELSE[ ]	/* Else */\012PUSHW[ ]	/* 2 values pushed */\01216 11 \012MIAP[0]	/* MoveIndirectAbsPt */\012EIF[ ]	/* EndIf */\012PUSHW[ ]	/* 1 value pushed */\0120 \012RCVT[ ]	/* ReadCVT */\012IF[ ]	/* If */\012PUSHW[ ]	/* 1 value pushed */\01218 \012MDAP[1]	/* MoveDirectAbsPt */\012ELSE[ ]	/* Else */\012PUSHW[ ]	/* 2 values pushed */\01218 11 \012MIAP[0]	/* MoveIndirectAbsPt */\012EIF[ ]	/* EndIf */\012PUSHW[ ]	/* 1 value pushed */\0120 \012RCVT[ ]	/* ReadCVT */\012IF[ ]	/* If */\012PUSHW[ ]	/* 1 value pushed */\01220 \012MDAP[1]	/* MoveDirectAbsPt */\012ELSE[ ]	/* Else */\012PUSHW[ ]	/* 2 values pushed */\01220 7 \012MIAP[0]	/* MoveIndirectAbsPt */\012EIF[ ]	/* EndIf */\012PUSHW[ ]	/* 3 values pushed */\0121 20 16 \012SRP1[ ]	/* SetRefPoint1 */\012SRP2[ ]	/* SetRefPoint2 */\012IP[ ]	/* InterpolatePts */\012PUSHW[ ]	/* 3 values pushed */\0127 20 16 \012SRP1[ ]	/* SetRefPoint1 */\012SRP2[ ]	/* SetRefPoint2 */\012IP[ ]	/* InterpolatePts */\012PUSHW[ ]	/* 3 values pushed */\01212 20 16 \012SRP1[ ]	/* SetRefPoint1 */\012SRP2[ ]	/* SetRefPoint2 */\012IP[ ]	/* InterpolatePts */\012PUSHW[ ]	/* 3 values pushed */\01214 20 16 \012SRP1[ ]	/* SetRefPoint1 */\012SRP2[ ]	/* SetRefPoint2 */\012IP[ ]	/* InterpolatePts */\012PUSHW[ ]	/* 3 values pushed */\01217 20 16 \012SRP1[ ]	/* SetRefPoint1 */\012SRP2[ ]	/* SetRefPoint2 */\012IP[ ]	/* InterpolatePts */\012IUP[0]	/* InterpolateUntPts */\012IUP[1]	/* InterpolateUntPts */";
};
width = 450;
}
);
note = V.tabular;
},
{
color = 4;
glyphname = W.ss01;
lastChange = "2021-12-07 22:57:43 +0000";
layers = (
{
layerId = "6544E2DB-1912-401E-9B5B-A29F161A5995";
paths = (
{
closed = 1;
nodes = (
"352 0 LINE",
"479 496 LINE",
"40 496 LINE",
"30 0 LINE"
);
},
{
closed = 1;
nodes = (
"59 478 LINE",
"177 478 LINE",
"166 327 LINE",
"177 378 OFFCURVE",
"187 429 OFFCURVE",
"196 478 CURVE",
"313 478 LINE",
"301 305 LINE",
"339 478 LINE",
"457 478 LINE",
"338 18 LINE",
"209 18 LINE",
"212 150 LINE",
"177 18 LINE",
"48 18 LINE"
);
},
{
closed = 1;
nodes = (
"170 27 LINE",
"221 220 LINE",
"218 27 LINE",
"331 27 LINE",
"446 469 LINE",
"345 469 LINE",
"283 177 LINE",
"303 469 LINE",
"203 469 LINE",
"145 177 LINE",
"167 469 LINE",
"66 469 LINE",
"57 27 LINE"
);
}
);
userData = {
assembly = "SVTCA[0]	/* SetFreedomAndProjectionVectorToAxis */\012PUSHW[ ]	/* 1 value pushed */\0120 \012RCVT[ ]	/* ReadCVT */\012IF[ ]	/* If */\012PUSHW[ ]	/* 1 value pushed */\01228 \012MDAP[1]	/* MoveDirectAbsPt */\012ELSE[ ]	/* Else */\012PUSHW[ ]	/* 2 values pushed */\01228 11 \012MIAP[0]	/* MoveIndirectAbsPt */\012EIF[ ]	/* EndIf */\012PUSHW[ ]	/* 1 value pushed */\0120 \012RCVT[ ]	/* ReadCVT */\012IF[ ]	/* If */\012PUSHW[ ]	/* 1 value pushed */\01230 \012MDAP[1]	/* MoveDirectAbsPt */\012ELSE[ ]	/* Else */\012PUSHW[ ]	/* 2 values pushed */\01230 7 \012MIAP[0]	/* MoveIndirectAbsPt */\012EIF[ ]	/* EndIf */\012PUSHW[ ]	/* 3 values pushed */\0120 30 28 \012SRP1[ ]	/* SetRefPoint1 */\012SRP2[ ]	/* SetRefPoint2 */\012IP[ ]	/* InterpolatePts */\012PUSHW[ ]	/* 3 values pushed */\0122 30 28 \012SRP1[ ]	/* SetRefPoint1 */\012SRP2[ ]	/* SetRefPoint2 */\012IP[ ]	/* InterpolatePts */\012PUSHW[ ]	/* 3 values pushed */\0125 30 28 \012SRP1[ ]	/* SetRefPoint1 */\012SRP2[ ]	/* SetRefPoint2 */\012IP[ ]	/* InterpolatePts */\012PUSHW[ ]	/* 3 values pushed */\01210 30 28 \012SRP1[ ]	/* SetRefPoint1 */\012SRP2[ ]	/* SetRefPoint2 */\012IP[ ]	/* InterpolatePts */\012PUSHW[ ]	/* 3 values pushed */\01217 30 28 \012SRP1[ ]	/* SetRefPoint1 */\012SRP2[ ]	/* SetRefPoint2 */\012IP[ ]	/* InterpolatePts */\012PUSHW[ ]	/* 3 values pushed */\01222 30 28 \012SRP1[ ]	/* SetRefPoint1 */\012SRP2[ ]	/* SetRefPoint2 */\012IP[ ]	/* InterpolatePts */\012PUSHW[ ]	/* 3 values pushed */\01225 30 28 \012SRP1[ ]	/* SetRefPoint1 */\012SRP2[ ]	/* SetRefPoint2 */\012IP[ ]	/* InterpolatePts */\012PUSHW[ ]	/* 3 values pushed */\01227 30 28 \012SRP1[ ]	/* SetRefPoint1 */\012SRP2[ ]	/* SetRefPoint2 */\012IP[ ]	/* InterpolatePts */\012IUP[0]	/* InterpolateUntPts */\012IUP[1]	/* InterpolateUntPts */";
};
width = 450;
}
);
note = W.tabular;
},
{
color = 4;
glyphname = X.ss01;
lastChange = "2021-12-07 22:57:43 +0000";
layers = (
{
layerId = "6544E2DB-1912-401E-9B5B-A29F161A5995";
paths = (
{
closed = 1;
nodes = (
"191 0 LINE",
"194 11 LINE",
"195 0 LINE",
"361 0 LINE",
"338 257 LINE",
"433 496 LINE",
"259 496 LINE",
"254 483 LINE",
"254 496 LINE",
"86 496 LINE",
"117 256 LINE",
"18 0 LINE"
);
},
{
closed = 1;
nodes = (
"134 256 LINE",
"106 478 LINE",
"238 478 LINE",
"244 399 LINE",
"270 478 LINE",
"409 478 LINE",
"320 256 LINE",
"342 18 LINE",
"211 18 LINE",
"205 96 LINE",
"180 18 LINE",
"41 18 LINE"
);
},
{
closed = 1;
nodes = (
"174 27 LINE",
"210 142 LINE",
"218 27 LINE",
"332 27 LINE",
"312 257 LINE",
"396 469 LINE",
"275 469 LINE",
"238 353 LINE",
"230 469 LINE",
"116 469 LINE",
"144 257 LINE",
"53 27 LINE"
);
}
);
userData = {
assembly = "SVTCA[0]	/* SetFreedomAndProjectionVectorToAxis */\012PUSHW[ ]	/* 1 value pushed */\0120 \012RCVT[ ]	/* ReadCVT */\012IF[ ]	/* If */\012PUSHW[ ]	/* 1 value pushed */\01228 \012MDAP[1]	/* MoveDirectAbsPt */\012ELSE[ ]	/* Else */\012PUSHW[ ]	/* 2 values pushed */\01228 11 \012MIAP[0]	/* MoveIndirectAbsPt */\012EIF[ ]	/* EndIf */\012PUSHW[ ]	/* 1 value pushed */\0120 \012RCVT[ ]	/* ReadCVT */\012IF[ ]	/* If */\012PUSHW[ ]	/* 1 value pushed */\01231 \012MDAP[1]	/* MoveDirectAbsPt */\012ELSE[ ]	/* Else */\012PUSHW[ ]	/* 2 values pushed */\01231 11 \012MIAP[0]	/* MoveIndirectAbsPt */\012EIF[ ]	/* EndIf */\012PUSHW[ ]	/* 1 value pushed */\0120 \012RCVT[ ]	/* ReadCVT */\012IF[ ]	/* If */\012PUSHW[ ]	/* 1 value pushed */\01225 \012MDAP[1]	/* MoveDirectAbsPt */\012ELSE[ ]	/* Else */\012PUSHW[ ]	/* 2 values pushed */\01225 7 \012MIAP[0]	/* MoveIndirectAbsPt */\012EIF[ ]	/* EndIf */\012PUSHW[ ]	/* 1 value pushed */\0120 \012RCVT[ ]	/* ReadCVT */\012IF[ ]	/* If */\012PUSHW[ ]	/* 1 value pushed */\01234 \012MDAP[1]	/* MoveDirectAbsPt */\012ELSE[ ]	/* Else */\012PUSHW[ ]	/* 2 values pushed */\01234 7 \012MIAP[0]	/* MoveIndirectAbsPt */\012EIF[ ]	/* EndIf */\012PUSHW[ ]	/* 3 values pushed */\0120 25 28 \012SRP1[ ]	/* SetRefPoint1 */\012SRP2[ ]	/* SetRefPoint2 */\012IP[ ]	/* InterpolatePts */\012PUSHW[ ]	/* 3 values pushed */\0122 25 28 \012SRP1[ ]	/* SetRefPoint1 */\012SRP2[ ]	/* SetRefPoint2 */\012IP[ ]	/* InterpolatePts */\012PUSHW[ ]	/* 3 values pushed */\0126 25 28 \012SRP1[ ]	/* SetRefPoint1 */\012SRP2[ ]	/* SetRefPoint2 */\012IP[ ]	/* InterpolatePts */\012PUSHW[ ]	/* 3 values pushed */\0128 25 28 \012SRP1[ ]	/* SetRefPoint1 */\012SRP2[ ]	/* SetRefPoint2 */\012IP[ ]	/* InterpolatePts */\012PUSHW[ ]	/* 3 values pushed */\01215 25 28 \012SRP1[ ]	/* SetRefPoint1 */\012SRP2[ ]	/* SetRefPoint2 */\012IP[ ]	/* InterpolatePts */\012PUSHW[ ]	/* 3 values pushed */\01217 25 28 \012SRP1[ ]	/* SetRefPoint1 */\012SRP2[ ]	/* SetRefPoint2 */\012IP[ ]	/* InterpolatePts */\012PUSHW[ ]	/* 3 values pushed */\01221 25 28 \012SRP1[ ]	/* SetRefPoint1 */\012SRP2[ ]	/* SetRefPoint2 */\012IP[ ]	/* InterpolatePts */\012PUSHW[ ]	/* 3 values pushed */\01223 25 28 \012SRP1[ ]	/* SetRefPoint1 */\012SRP2[ ]	/* SetRefPoint2 */\012IP[ ]	/* InterpolatePts */\012PUSHW[ ]	/* 3 values pushed */\01224 25 28 \012SRP1[ ]	/* SetRefPoint1 */\012SRP2[ ]	/* SetRefPoint2 */\012IP[ ]	/* InterpolatePts */\012PUSHW[ ]	/* 3 values pushed */\01230 25 28 \012SRP1[ ]	/* SetRefPoint1 */\012SRP2[ ]	/* SetRefPoint2 */\012IP[ ]	/* InterpolatePts */\012IUP[0]	/* InterpolateUntPts */\012IUP[1]	/* InterpolateUntPts */";
};
width = 451;
}
);
note = X.tabular;
},
{
color = 4;
glyphname = Y.ss01;
lastChange = "2021-12-07 22:57:43 +0000";
layers = (
{
anchors = (
{
name = bottom;
position = "{193, 0}";
},
{
name = top;
position = "{264, 495}";
},
{
name = topleft;
position = "{80, 591}";
}
);
layerId = "6544E2DB-1912-401E-9B5B-A29F161A5995";
paths = (
{
closed = 1;
nodes = (
"271 0 LINE",
"298 198 LINE",
"431 496 LINE",
"274 496 LINE",
"259 456 LINE",
"254 496 LINE",
"88 496 LINE",
"136 205 LINE",
"108 0 LINE"
);
},
{
closed = 1;
nodes = (
"154 208 LINE",
"110 478 LINE",
"239 478 LINE",
"248 385 LINE",
"285 478 LINE",
"406 478 LINE",
"282 201 LINE",
"256 18 LINE",
"127 18 LINE"
);
},
{
closed = 1;
nodes = (
"249 27 LINE",
"274 203 LINE",
"392 469 LINE",
"290 469 LINE",
"253 376 LINE",
"242 338 LINE",
"241 376 LINE",
"231 469 LINE",
"119 469 LINE",
"163 211 LINE",
"137 27 LINE"
);
}
);
userData = {
assembly = "SVTCA[0]	/* SetFreedomAndProjectionVectorToAxis */\012PUSHW[ ]	/* 1 value pushed */\0120 \012RCVT[ ]	/* ReadCVT */\012IF[ ]	/* If */\012PUSHW[ ]	/* 1 value pushed */\01220 \012MDAP[1]	/* MoveDirectAbsPt */\012ELSE[ ]	/* Else */\012PUSHW[ ]	/* 2 values pushed */\01220 11 \012MIAP[0]	/* MoveIndirectAbsPt */\012EIF[ ]	/* EndIf */\012PUSHW[ ]	/* 1 value pushed */\0120 \012RCVT[ ]	/* ReadCVT */\012IF[ ]	/* If */\012PUSHW[ ]	/* 1 value pushed */\01225 \012MDAP[1]	/* MoveDirectAbsPt */\012ELSE[ ]	/* Else */\012PUSHW[ ]	/* 2 values pushed */\01225 11 \012MIAP[0]	/* MoveIndirectAbsPt */\012EIF[ ]	/* EndIf */\012PUSHW[ ]	/* 1 value pushed */\0120 \012RCVT[ ]	/* ReadCVT */\012IF[ ]	/* If */\012PUSHW[ ]	/* 1 value pushed */\01222 \012MDAP[1]	/* MoveDirectAbsPt */\012ELSE[ ]	/* Else */\012PUSHW[ ]	/* 2 values pushed */\01222 7 \012MIAP[0]	/* MoveIndirectAbsPt */\012EIF[ ]	/* EndIf */\012PUSHW[ ]	/* 3 values pushed */\0120 22 20 \012SRP1[ ]	/* SetRefPoint1 */\012SRP2[ ]	/* SetRefPoint2 */\012IP[ ]	/* InterpolatePts */\012PUSHW[ ]	/* 3 values pushed */\0128 22 20 \012SRP1[ ]	/* SetRefPoint1 */\012SRP2[ ]	/* SetRefPoint2 */\012IP[ ]	/* InterpolatePts */\012PUSHW[ ]	/* 3 values pushed */\01212 22 20 \012SRP1[ ]	/* SetRefPoint1 */\012SRP2[ ]	/* SetRefPoint2 */\012IP[ ]	/* InterpolatePts */\012PUSHW[ ]	/* 3 values pushed */\01219 22 20 \012SRP1[ ]	/* SetRefPoint1 */\012SRP2[ ]	/* SetRefPoint2 */\012IP[ ]	/* InterpolatePts */\012PUSHW[ ]	/* 3 values pushed */\01227 22 20 \012SRP1[ ]	/* SetRefPoint1 */\012SRP2[ ]	/* SetRefPoint2 */\012IP[ ]	/* InterpolatePts */\012IUP[0]	/* InterpolateUntPts */\012IUP[1]	/* InterpolateUntPts */";
};
width = 450;
}
);
note = Y.tabular;
},
{
color = 4;
glyphname = Z.ss01;
lastChange = "2021-12-07 22:57:43 +0000";
layers = (
{
anchors = (
{
name = bottom;
position = "{192, 0}";
},
{
name = center;
position = "{245, 296}";
},
{
name = top;
position = "{260, 495}";
}
);
layerId = "6544E2DB-1912-401E-9B5B-A29F161A5995";
paths = (
{
closed = 1;
nodes = (
"312 0 LINE",
"331 136 LINE",
"262 136 LINE",
"369 409 LINE",
"381 496 LINE",
"147 496 LINE",
"128 360 LINE",
"184 360 LINE",
"84 103 LINE",
"70 0 LINE"
);
},
{
closed = 1;
nodes = (
"100 103 LINE",
"208 377 LINE",
"146 377 LINE",
"161 478 LINE",
"363 478 LINE",
"353 410 LINE",
"239 119 LINE",
"312 119 LINE",
"298 18 LINE",
"88 18 LINE"
);
},
{
closed = 1;
nodes = (
"291 27 LINE",
"303 110 LINE",
"226 110 LINE",
"346 413 LINE",
"353 469 LINE",
"167 469 LINE",
"156 386 LINE",
"220 386 LINE",
"108 100 LINE",
"97 27 LINE"
);
}
);
userData = {
assembly = "SVTCA[0]	/* SetFreedomAndProjectionVectorToAxis */\012PUSHW[ ]	/* 1 value pushed */\0120 \012RCVT[ ]	/* ReadCVT */\012IF[ ]	/* If */\012PUSHW[ ]	/* 1 value pushed */\01224 \012MDAP[1]	/* MoveDirectAbsPt */\012ELSE[ ]	/* Else */\012PUSHW[ ]	/* 2 values pushed */\01224 11 \012MIAP[0]	/* MoveIndirectAbsPt */\012EIF[ ]	/* EndIf */\012PUSHW[ ]	/* 1 value pushed */\0120 \012RCVT[ ]	/* ReadCVT */\012IF[ ]	/* If */\012PUSHW[ ]	/* 1 value pushed */\01220 \012MDAP[1]	/* MoveDirectAbsPt */\012ELSE[ ]	/* Else */\012PUSHW[ ]	/* 2 values pushed */\01220 7 \012MIAP[0]	/* MoveIndirectAbsPt */\012EIF[ ]	/* EndIf */\012PUSHW[ ]	/* 4 values pushed */\0124 2 3 4 \012CALL[ ]	/* CallFunction */\012PUSHW[ ]	/* 1 value pushed */\01224 \012SRP0[ ]	/* SetRefPoint0 */\012PUSHW[ ]	/* 2 values pushed */\0122 4 \012MIRP[10100]	/* MoveIndirectRelPt */\012PUSHW[ ]	/* 1 value pushed */\01220 \012SRP0[ ]	/* SetRefPoint0 */\012PUSHW[ ]	/* 2 values pushed */\0127 4 \012MIRP[10100]	/* MoveIndirectRelPt */\012PUSHW[ ]	/* 2 values pushed */\0129 2 \012MIRP[10100]	/* MoveIndirectRelPt */\012PUSHW[ ]	/* 2 values pushed */\01227 4 \012MIRP[10100]	/* MoveIndirectRelPt */\012PUSHW[ ]	/* 3 values pushed */\01212 9 27 \012SRP1[ ]	/* SetRefPoint1 */\012SRP2[ ]	/* SetRefPoint2 */\012IP[ ]	/* InterpolatePts */\012PUSHW[ ]	/* 3 values pushed */\01217 20 24 \012SRP1[ ]	/* SetRefPoint1 */\012SRP2[ ]	/* SetRefPoint2 */\012IP[ ]	/* InterpolatePts */\012PUSHW[ ]	/* 3 values pushed */\01222 20 24 \012SRP1[ ]	/* SetRefPoint1 */\012SRP2[ ]	/* SetRefPoint2 */\012IP[ ]	/* InterpolatePts */\012IUP[0]	/* InterpolateUntPts */\012IUP[1]	/* InterpolateUntPts */";
};
width = 450;
}
);
note = Z.tabular;
},
{
glyphname = a;
lastChange = "2021-12-07 18:33:06 +0000";
layers = (
{
anchors = (
{
name = bottom;
position = "{152, 0}";
},
{
name = ogonek;
position = "{319, 0}";
},
{
name = top;
position = "{222, 495}";
}
);
layerId = "6544E2DB-1912-401E-9B5B-A29F161A5995";
paths = (
{
closed = 1;
nodes = (
"141 -6 OFFCURVE",
"156 -3 OFFCURVE",
"169 4 CURVE",
"169 0 LINE",
"327 0 LINE",
"395 495 LINE",
"206 495 LINE",
"206 493 LINE",
"194 497 OFFCURVE",
"176 501 OFFCURVE",
"156 501 CURVE SMOOTH",
"102 501 OFFCURVE",
"39 475 OFFCURVE",
"26 380 CURVE SMOOTH",
"-3 168 LINE SMOOTH",
"-18 43 OFFCURVE",
"4 -6 OFFCURVE",
"122 -6 CURVE SMOOTH"
);
},
{
closed = 1;
nodes = (
"159 98 OFFCURVE",
"156 100 OFFCURVE",
"154 104 CURVE SMOOTH",
"151 108 OFFCURVE",
"151 115 OFFCURVE",
"152 125 CURVE SMOOTH",
"186 365 LINE SMOOTH",
"187 375 OFFCURVE",
"190 382 OFFCURVE",
"193 386 CURVE SMOOTH",
"196 390 OFFCURVE",
"200 392 OFFCURVE",
"204 392 CURVE SMOOTH",
"207 392 OFFCURVE",
"210 391 OFFCURVE",
"214 390 CURVE SMOOTH",
"219 389 LINE",
"182 125 LINE SMOOTH",
"179 105 OFFCURVE",
"172 98 OFFCURVE",
"163 98 CURVE SMOOTH"
);
},
{
closed = 1;
nodes = (
"168 107 OFFCURVE",
"171 113 OFFCURVE",
"173 126 CURVE SMOOTH",
"209 383 LINE",
"204 383 LINE SMOOTH",
"199 383 OFFCURVE",
"196 377 OFFCURVE",
"195 364 CURVE",
"161 124 LINE SMOOTH",
"159 113 OFFCURVE",
"160 107 OFFCURVE",
"163 107 CURVE SMOOTH"
);
},
{
closed = 1;
nodes = (
"21 12 OFFCURVE",
"1 54 OFFCURVE",
"14 165 CURVE SMOOTH",
"44 377 LINE SMOOTH",
"56 461 OFFCURVE",
"110 483 OFFCURVE",
"156 483 CURVE SMOOTH",
"189 483 OFFCURVE",
"209 473 OFFCURVE",
"221 461 CURVE",
"223 477 LINE",
"375 477 LINE",
"312 18 LINE",
"190 18 LINE",
"191 38 LINE",
"176 23 OFFCURVE",
"157 12 OFFCURVE",
"122 12 CURVE SMOOTH"
);
},
{
closed = 1;
nodes = (
"166 21 OFFCURVE",
"193 49 OFFCURVE",
"205 69 CURVE",
"199 27 LINE",
"304 27 LINE",
"365 469 LINE",
"230 469 LINE",
"226 438 LINE",
"218 455 OFFCURVE",
"203 474 OFFCURVE",
"156 474 CURVE SMOOTH",
"114 474 OFFCURVE",
"63 453 OFFCURVE",
"52 376 CURVE SMOOTH",
"23 165 LINE SMOOTH",
"6 44 OFFCURVE",
"43 21 OFFCURVE",
"122 21 CURVE SMOOTH"
);
}
);
userData = {
assembly = "PUSHW[ ]	/* 4 values pushed */\0120 6 78 4 \012CALL[ ]	/* CallFunction */\012NPUSHW[ ]	/* 9 values pushed */\0126 0 22 0 38 0 54 0 4 \012DELTAP1[ ]	/* DeltaExceptionP1 */\012PUSHW[ ]	/* 1 value pushed */\01278 \012SRP0[ ]	/* SetRefPoint0 */\012PUSHW[ ]	/* 1 value pushed */\01281 \012MDRP[10000]	/* MoveDirectRelPt */\012PUSHW[ ]	/* 1 value pushed */\01281 \012MDAP[1]	/* MoveDirectAbsPt */\012SVTCA[0]	/* SetFreedomAndProjectionVectorToAxis */\012PUSHW[ ]	/* 1 value pushed */\01211 \012MDAP[1]	/* MoveDirectAbsPt */\012PUSHW[ ]	/* 1 value pushed */\01215 \012MDAP[1]	/* MoveDirectAbsPt */\012PUSHW[ ]	/* 1 value pushed */\0120 \012MDAP[1]	/* MoveDirectAbsPt */\012PUSHW[ ]	/* 1 value pushed */\01217 \012MDAP[1]	/* MoveDirectAbsPt */\012PUSHW[ ]	/* 1 value pushed */\01211 \012SRP0[ ]	/* SetRefPoint0 */\012PUSHW[ ]	/* 2 values pushed */\01232 2 \012MIRP[10100]	/* MoveIndirectRelPt */\012PUSHW[ ]	/* 3 values pushed */\01214 11 32 \012SRP1[ ]	/* SetRefPoint1 */\012SRP2[ ]	/* SetRefPoint2 */\012IP[ ]	/* InterpolatePts */\012PUSHW[ ]	/* 1 value pushed */\01211 \012SRP0[ ]	/* SetRefPoint0 */\012PUSHW[ ]	/* 1 value pushed */\01216 \012MDRP[10000]	/* MoveDirectRelPt */\012PUSHW[ ]	/* 1 value pushed */\01216 \012MDAP[1]	/* MoveDirectAbsPt */\012PUSHW[ ]	/* 1 value pushed */\0120 \012SRP0[ ]	/* SetRefPoint0 */\012PUSHW[ ]	/* 1 value pushed */\01218 \012MDRP[10000]	/* MoveDirectRelPt */\012PUSHW[ ]	/* 1 value pushed */\01218 \012MDAP[1]	/* MoveDirectAbsPt */\012PUSHW[ ]	/* 1 value pushed */\0120 \012SRP0[ ]	/* SetRefPoint0 */\012PUSHW[ ]	/* 2 values pushed */\01224 2 \012MIRP[10100]	/* MoveIndirectRelPt */\012PUSHW[ ]	/* 3 values pushed */\01251 0 24 \012SRP1[ ]	/* SetRefPoint1 */\012SRP2[ ]	/* SetRefPoint2 */\012IP[ ]	/* InterpolatePts */\012PUSHW[ ]	/* 1 value pushed */\0120 \012SRP0[ ]	/* SetRefPoint0 */\012PUSHW[ ]	/* 1 value pushed */\01252 \012MDRP[10000]	/* MoveDirectRelPt */\012PUSHW[ ]	/* 1 value pushed */\01252 \012MDAP[1]	/* MoveDirectAbsPt */\012PUSHW[ ]	/* 1 value pushed */\01211 \012SRP0[ ]	/* SetRefPoint0 */\012PUSHW[ ]	/* 1 value pushed */\01254 \012MDRP[10000]	/* MoveDirectRelPt */\012PUSHW[ ]	/* 1 value pushed */\01254 \012MDAP[1]	/* MoveDirectAbsPt */\012PUSHW[ ]	/* 3 values pushed */\01256 11 32 \012SRP1[ ]	/* SetRefPoint1 */\012SRP2[ ]	/* SetRefPoint2 */\012IP[ ]	/* InterpolatePts */\012IUP[0]	/* InterpolateUntPts */\012IUP[1]	/* InterpolateUntPts */";
};
width = 372;
}
);
leftKerningGroup = a;
leftMetricsKey = o;
note = a;
rightKerningGroup = a;
rightMetricsKey = "=n+5";
unicode = 0061;
},
